<svg width="252" height="507" viewBox="0 0 252 507" fill="none" xmlns="http://www.w3.org/2000/svg">
<g opacity="0.07" clip-path="url(#clip0_32_133)">
<path d="M253.211 118.243L388.494 253.533L253.276 388.757L117.766 253.257L253.211 118.243Z" stroke="black" stroke-width="4" stroke-miterlimit="10"/>
<path d="M253.341 250.983C235.661 249.961 202.202 239.521 202.202 207.278C202.202 197.926 205.173 190.182 210.79 184.873C215.596 180.343 221.943 178.07 228.713 178.444C233.892 178.736 238.632 181.041 242.09 184.905C245.532 188.769 247.269 193.754 246.977 198.933C246.506 207.132 239.46 213.398 231.262 212.944C228.437 212.781 225.921 211.58 224.038 209.762C228.567 209.632 232.204 205.93 232.204 201.384C232.204 196.838 228.453 192.99 223.81 192.99C219.167 192.99 215.417 196.741 215.417 201.384C215.417 201.855 215.466 202.326 215.547 202.78C216.083 210.914 222.625 217.587 230.97 218.074C242.009 218.707 251.458 210.265 252.091 199.241C252.464 192.698 250.273 186.399 245.906 181.512C241.538 176.625 235.548 173.719 229.005 173.346C220.839 172.875 213.112 175.651 207.283 181.155C200.708 187.357 197.104 196.627 197.104 207.278C197.104 243.353 233.713 254.977 253.065 256.098C253.114 256.098 253.162 256.098 253.211 256.098C254.559 256.098 255.679 255.042 255.76 253.679C255.841 252.266 254.77 251.065 253.357 250.983H253.341Z" fill="black"/>
<path d="M253.097 250.983C270.777 249.961 304.236 239.521 304.236 207.278C304.236 197.926 301.265 190.182 295.648 184.873C290.843 180.343 284.495 178.07 277.725 178.444C272.546 178.736 267.806 181.041 264.348 184.905C260.906 188.769 259.169 193.754 259.461 198.933C259.932 207.132 266.978 213.398 275.176 212.944C278.001 212.781 280.518 211.58 282.401 209.762C277.871 209.632 274.235 205.93 274.235 201.384C274.235 196.838 277.985 192.99 282.628 192.99C287.271 192.99 291.021 196.741 291.021 201.384C291.021 201.855 290.973 202.326 290.892 202.78C290.356 210.914 283.813 217.587 275.469 218.074C264.429 218.707 254.981 210.265 254.347 199.241C253.974 192.698 256.166 186.399 260.533 181.512C264.884 176.625 270.891 173.719 277.433 173.346C285.599 172.875 293.327 175.651 299.155 181.155C305.73 187.357 309.334 196.627 309.334 207.278C309.334 243.353 272.725 254.977 253.373 256.098C253.325 256.098 253.276 256.098 253.227 256.098C251.88 256.098 250.76 255.042 250.678 253.679C250.597 252.266 251.669 251.065 253.081 250.983H253.097Z" fill="black"/>
<path d="M253.341 256.114C235.661 257.137 202.202 267.576 202.202 299.82C202.202 309.171 205.173 316.915 210.79 322.224C215.596 326.754 221.943 329.027 228.713 328.654C233.892 328.361 238.632 326.056 242.09 322.192C245.532 318.328 247.269 313.344 246.977 308.165C246.506 299.966 239.46 293.699 231.262 294.153C228.437 294.316 225.921 295.517 224.038 297.352C228.567 297.482 232.204 301.183 232.204 305.729C232.204 310.275 228.453 314.123 223.81 314.123C219.167 314.123 215.417 310.356 215.417 305.729C215.417 305.258 215.466 304.788 215.547 304.333C216.083 296.199 222.625 289.526 230.97 289.039C242.009 288.406 251.458 296.848 252.091 307.872C252.464 314.415 250.273 320.715 245.906 325.601C241.538 330.488 235.548 333.394 229.005 333.768C220.839 334.239 213.112 331.462 207.283 325.959C200.708 319.757 197.104 310.486 197.104 299.836C197.104 263.761 233.713 252.136 253.065 251.016C253.114 251.016 253.162 251.016 253.211 251.016C254.559 251.016 255.679 252.071 255.76 253.435C255.841 254.847 254.77 256.049 253.357 256.13L253.341 256.114Z" fill="black"/>
<path d="M253.097 256.114C270.777 257.137 304.236 267.576 304.236 299.82C304.236 309.171 301.265 316.915 295.648 322.224C290.843 326.754 284.495 329.027 277.725 328.654C272.546 328.361 267.806 326.056 264.348 322.192C260.906 318.328 259.169 313.344 259.461 308.165C259.932 299.966 266.978 293.699 275.176 294.153C278.001 294.316 280.518 295.517 282.401 297.352C277.871 297.482 274.235 301.183 274.235 305.729C274.235 310.275 277.985 314.123 282.628 314.123C287.271 314.123 291.021 310.356 291.021 305.729C291.021 305.258 290.973 304.788 290.892 304.333C290.356 296.199 283.813 289.526 275.469 289.039C264.429 288.406 254.981 296.848 254.347 307.872C253.974 314.415 256.166 320.715 260.533 325.601C264.884 330.488 270.891 333.394 277.433 333.768C285.599 334.239 293.327 331.462 299.155 325.959C305.73 319.757 309.334 310.486 309.334 299.836C309.334 263.761 272.725 252.136 253.373 251.016C253.325 251.016 253.276 251.016 253.227 251.016C251.88 251.016 250.76 252.071 250.678 253.435C250.597 254.847 251.669 256.049 253.081 256.13L253.097 256.114Z" fill="black"/>
<path d="M253.097 247.606C253.097 247.606 252.87 246.973 252.286 245.967C251.993 245.463 251.636 244.846 251.133 244.213C250.662 243.548 250.078 242.85 249.396 242.135C248.73 241.405 247.919 240.69 247.058 239.96C246.165 239.261 245.224 238.547 244.136 237.979C243.081 237.362 241.896 236.907 240.743 236.42C239.574 235.966 238.34 235.625 237.188 235.203C235.97 234.91 234.752 234.618 233.535 234.488C232.285 234.423 231.116 234.293 229.979 234.261C228.827 234.261 227.739 234.164 226.749 233.969C225.726 233.855 224.768 233.693 223.891 233.465C223.453 233.352 223.031 233.189 222.641 233.011C222.235 232.832 221.846 232.67 221.489 232.459C220.758 232.037 220.125 231.517 219.573 231.014C219.037 230.478 218.599 229.975 218.29 229.585C217.982 229.147 217.82 228.92 217.82 228.92V227.02C217.82 227.02 217.998 226.809 218.307 226.403C218.631 226.03 219.118 225.575 219.752 225.088C220.385 224.617 221.164 224.163 222.073 223.822C222.528 223.659 222.998 223.497 223.518 223.399C224.021 223.335 224.557 223.302 225.125 223.335C226.229 223.399 227.431 223.481 228.697 223.724C229.947 224.049 231.229 224.503 232.528 225.072C233.811 225.672 235.077 226.5 236.327 227.247C237.577 228.027 238.779 228.968 240.012 229.748C241.181 230.673 242.334 231.55 243.34 232.589C244.331 233.644 245.321 234.618 246.117 235.706C246.993 236.696 247.74 237.752 248.454 238.693C248.828 239.148 249.12 239.667 249.428 240.122C249.737 240.593 250.045 241.015 250.305 241.469C252.432 244.993 253.308 247.542 253.308 247.542L253.114 247.623L253.097 247.606Z" fill="black"/>
<path d="M246.798 223.692C246.798 220.152 249.656 217.295 253.195 217.295C256.734 217.295 259.591 220.152 259.591 223.692C259.591 227.231 256.734 230.088 253.195 230.088C249.656 230.088 246.798 227.231 246.798 223.692Z" fill="black"/>
<path d="M253.097 259.507C253.097 259.507 252.87 260.14 252.286 261.147C251.993 261.65 251.636 262.267 251.133 262.9C250.662 263.566 250.078 264.264 249.396 264.978C248.73 265.709 247.919 266.423 247.058 267.154C246.165 267.852 245.224 268.566 244.136 269.135C243.081 269.752 241.896 270.206 240.743 270.693C239.574 271.148 238.34 271.489 237.188 271.911C235.97 272.203 234.752 272.495 233.535 272.625C232.285 272.69 231.116 272.82 229.979 272.853C228.827 272.853 227.739 272.95 226.749 273.145C225.726 273.258 224.768 273.421 223.891 273.648C223.453 273.762 223.031 273.924 222.641 274.103C222.235 274.281 221.846 274.444 221.489 274.655C220.758 275.077 220.125 275.596 219.573 276.1C219.037 276.635 218.599 277.139 218.29 277.528C217.982 277.967 217.82 278.194 217.82 278.194V280.094C217.82 280.094 217.998 280.305 218.307 280.711C218.631 281.068 219.118 281.539 219.752 282.026C220.385 282.496 221.164 282.951 222.073 283.292C222.528 283.454 222.998 283.617 223.518 283.714C224.021 283.779 224.557 283.811 225.125 283.779C226.229 283.714 227.431 283.633 228.697 283.389C229.947 283.065 231.229 282.61 232.528 282.042C233.811 281.441 235.077 280.613 236.327 279.866C237.577 279.087 238.779 278.145 240.012 277.366C241.181 276.441 242.334 275.564 243.34 274.525C244.331 273.47 245.321 272.495 246.117 271.408C246.993 270.417 247.74 269.362 248.454 268.42C248.828 267.966 249.12 267.446 249.428 266.975C249.737 266.505 250.045 266.082 250.305 265.628C252.432 262.105 253.308 259.556 253.308 259.556L253.114 259.475L253.097 259.507Z" fill="black"/>
<path d="M246.798 283.406C246.798 286.945 249.656 289.802 253.195 289.802C256.734 289.802 259.591 286.945 259.591 283.406C259.591 279.866 256.734 277.009 253.195 277.009C249.656 277.009 246.798 279.866 246.798 283.406Z" fill="black"/>
<path d="M223.826 253.678C223.826 253.678 219.508 253.695 213.014 254.295C209.767 254.588 205.985 254.977 201.942 255.61C197.884 256.292 193.565 257.185 189.247 257.77C187.088 258.046 184.928 258.468 182.802 258.89C180.675 259.328 178.581 259.767 176.551 260.108C172.493 260.822 168.71 260.854 165.479 260.562C162.232 260.286 159.537 258.971 157.638 257.607C156.696 256.942 155.95 256.211 155.446 255.724C154.943 255.188 154.667 254.847 154.667 254.847C154.18 254.036 154.164 253.159 154.667 252.233C154.667 252.233 154.943 251.893 155.446 251.357C155.95 250.853 156.696 250.123 157.638 249.473C159.521 248.11 162.232 246.795 165.479 246.519C168.726 246.243 172.509 246.259 176.551 246.973C178.581 247.314 180.675 247.752 182.802 248.191C184.928 248.597 187.088 249.019 189.247 249.311C193.565 249.896 197.884 250.789 201.942 251.47C206.001 252.104 209.784 252.493 213.014 252.785C219.492 253.386 223.826 253.402 223.826 253.402V253.695V253.678Z" fill="black"/>
<path d="M209.134 246.47C209.134 246.47 208.956 246.437 208.631 246.356C208.306 246.275 207.819 246.178 207.218 246.015C206.618 245.869 205.887 245.642 205.027 245.415C204.199 245.139 203.225 244.895 202.202 244.522C201.163 244.181 200.059 243.775 198.874 243.304C197.689 242.849 196.471 242.281 195.156 241.745C193.89 241.128 192.477 240.593 191.179 239.797C190.513 239.424 189.831 239.05 189.166 238.644C188.516 238.222 187.916 237.719 187.282 237.248C186 236.323 184.815 235.267 183.581 234.228L182.656 233.449L181.811 232.605C181.259 232.037 180.707 231.468 180.188 230.884C179.636 230.316 179.214 229.699 178.824 229.066C178.435 228.432 178.061 227.799 177.736 227.182C177.022 225.948 176.714 224.65 176.389 223.464C176.129 222.263 175.967 221.126 176.227 220.071C176.421 219.016 176.779 218.074 177.168 217.311C177.59 216.532 177.996 215.931 178.353 215.509C178.727 215.087 178.954 214.86 178.954 214.86C179.62 214.502 180.318 214.372 181.048 214.502C181.048 214.502 181.341 214.632 181.876 214.86C182.363 215.087 183.013 215.444 183.695 215.882C184.36 216.321 185.058 216.856 185.643 217.506C186.195 218.155 186.877 218.821 187.266 219.649C187.672 220.477 187.997 221.402 188.451 222.328C188.646 222.799 188.841 223.302 188.987 223.838C189.133 224.373 189.279 224.926 189.49 225.478C189.685 226.03 189.831 226.614 190.01 227.215L190.27 228.124L190.627 229.001C191.13 230.17 191.601 231.436 192.364 232.491L193.419 234.18C193.809 234.715 194.198 235.267 194.588 235.819C195.318 236.972 196.26 237.898 197.104 238.937C198.03 239.83 198.955 240.739 199.929 241.437C200.416 241.794 200.887 242.151 201.342 242.492C201.812 242.817 202.283 243.093 202.738 243.369C203.631 243.953 204.507 244.359 205.27 244.765C206.05 245.122 206.748 245.431 207.332 245.626C208.485 246.08 209.183 246.21 209.183 246.21L209.134 246.437V246.47Z" fill="black"/>
<path d="M209.199 260.871C209.199 260.871 208.501 261.017 207.348 261.455C206.764 261.65 206.066 261.975 205.287 262.316C204.524 262.722 203.647 263.128 202.754 263.712C202.299 264.004 201.829 264.28 201.358 264.589C200.903 264.93 200.432 265.271 199.945 265.644C198.971 266.342 198.062 267.251 197.121 268.144C196.276 269.167 195.335 270.109 194.604 271.262C194.215 271.814 193.825 272.366 193.435 272.901L192.38 274.59C191.617 275.645 191.13 276.911 190.643 278.08L190.286 278.957L190.026 279.866C189.847 280.467 189.685 281.051 189.507 281.603C189.295 282.139 189.149 282.691 189.003 283.243C188.841 283.779 188.662 284.282 188.468 284.753C188.013 285.679 187.688 286.62 187.282 287.432C186.893 288.26 186.211 288.926 185.659 289.575C185.074 290.208 184.393 290.744 183.711 291.199C183.013 291.637 182.38 291.994 181.893 292.221C181.357 292.449 181.065 292.579 181.065 292.579C180.366 292.692 179.668 292.579 178.97 292.221C178.97 292.221 178.743 291.994 178.37 291.572C178.029 291.15 177.607 290.549 177.184 289.77C176.795 288.991 176.438 288.065 176.243 287.01C175.999 285.955 176.145 284.818 176.405 283.617C176.714 282.431 177.038 281.133 177.753 279.899C178.077 279.266 178.451 278.649 178.84 278.015C179.23 277.382 179.668 276.765 180.204 276.197C180.724 275.613 181.276 275.044 181.828 274.476L182.672 273.632L183.597 272.853C184.831 271.814 186.016 270.758 187.299 269.833C187.932 269.362 188.532 268.875 189.182 268.437C189.847 268.031 190.529 267.641 191.195 267.284C192.494 266.505 193.906 265.953 195.172 265.336C196.487 264.8 197.705 264.232 198.89 263.777C200.075 263.322 201.179 262.9 202.218 262.559C203.241 262.186 204.215 261.942 205.043 261.666C205.887 261.439 206.618 261.212 207.235 261.066C207.835 260.903 208.322 260.806 208.647 260.725C208.972 260.644 209.15 260.611 209.15 260.611L209.199 260.838V260.871Z" fill="black"/>
<path d="M253.032 183.59C253.032 183.59 253.032 182.843 252.968 181.528C252.951 180.879 252.903 180.067 252.838 179.158C252.773 178.249 252.724 177.21 252.61 176.089C252.416 173.833 252.14 171.219 251.701 168.394C251.458 166.981 251.198 165.536 250.938 164.059C250.646 162.582 250.451 161.088 250.208 159.578C249.98 158.084 249.737 156.574 249.445 155.097C249.169 153.62 248.844 152.158 248.617 150.762C248.113 147.953 248.097 145.323 248.292 143.067C248.487 140.81 249.396 138.943 250.338 137.628C250.825 136.978 251.279 136.459 251.653 136.102C252.042 135.744 252.269 135.566 252.269 135.566C252.903 135.241 253.52 135.192 254.071 135.566C254.071 135.566 254.283 135.761 254.688 136.102C255.046 136.459 255.516 136.962 256.003 137.628C256.945 138.943 257.854 140.81 258.049 143.067C258.244 145.323 258.228 147.937 257.724 150.762C257.497 152.175 257.172 153.62 256.896 155.097C256.604 156.574 256.344 158.068 256.133 159.578C255.89 161.072 255.695 162.582 255.403 164.059C255.143 165.536 254.883 166.998 254.64 168.394C254.201 171.203 253.925 173.833 253.731 176.089C253.617 177.21 253.568 178.249 253.503 179.158C253.438 180.067 253.39 180.863 253.373 181.528C253.308 182.843 253.308 183.59 253.308 183.59H253.114H253.032Z" fill="black"/>
<path d="M249.023 178.07C249.023 178.07 248.925 177.648 248.6 176.95C248.308 176.236 247.772 175.278 246.977 174.222C246.604 173.687 246.133 173.151 245.613 172.615C245.11 172.063 244.493 171.56 243.86 171.073C243.146 170.651 242.496 170.164 241.717 169.839L240.613 169.303C240.223 169.157 239.866 168.995 239.493 168.832C238.795 168.491 237.983 168.345 237.236 168.183C236.489 168.021 235.694 168.053 235.012 167.956C234.33 167.874 233.665 167.858 233.096 167.663C232.544 167.452 231.976 167.339 231.489 167.111C230.986 166.9 230.596 166.462 230.19 166.072C229.801 165.666 229.46 165.114 229.168 164.627C228.875 164.108 228.648 163.605 228.47 163.231C228.307 162.809 228.21 162.582 228.21 162.582C227.983 161.997 227.999 161.396 228.34 160.78C228.34 160.78 228.47 160.585 228.713 160.211C228.957 159.887 229.33 159.448 229.801 159.026C230.272 158.636 230.872 158.198 231.538 157.922C232.203 157.614 232.967 157.565 233.762 157.63C234.558 157.744 235.418 157.841 236.262 158.231C237.106 158.604 237.999 159.01 238.795 159.676C239.574 160.357 240.37 161.039 241.068 161.851C241.766 162.663 242.496 163.393 243.113 164.221C243.438 164.627 243.763 165.017 244.055 165.423C244.331 165.845 244.574 166.283 244.834 166.722C245.354 167.566 245.711 168.459 246.1 169.287C246.831 170.943 247.464 172.42 247.902 173.719C248.373 175.002 248.665 176.09 248.893 176.836C249.087 177.583 249.217 178.022 249.217 178.022L249.023 178.07Z" fill="black"/>
<path d="M253.032 323.475C253.032 323.475 253.032 324.221 252.968 325.536C252.951 326.186 252.903 326.998 252.838 327.907C252.773 328.816 252.724 329.855 252.61 330.975C252.416 333.232 252.14 335.846 251.701 338.671C251.458 340.083 251.198 341.528 250.938 343.006C250.646 344.483 250.451 345.977 250.208 347.487C249.98 348.98 249.737 350.49 249.445 351.968C249.169 353.445 248.844 354.906 248.617 356.303C248.113 359.111 248.097 361.742 248.292 363.998C248.487 366.255 249.396 368.122 250.338 369.437C250.825 370.087 251.279 370.606 251.653 370.963C252.042 371.32 252.269 371.499 252.269 371.499C252.903 371.856 253.52 371.905 254.071 371.499C254.071 371.499 254.283 371.304 254.688 370.963C255.046 370.606 255.516 370.103 256.003 369.437C256.945 368.122 257.854 366.255 258.049 363.998C258.244 361.742 258.228 359.128 257.724 356.303C257.497 354.89 257.172 353.445 256.896 351.968C256.604 350.49 256.344 348.997 256.133 347.487C255.89 345.993 255.695 344.483 255.403 343.006C255.143 341.528 254.883 340.067 254.64 338.671C254.201 335.862 253.925 333.232 253.731 330.975C253.617 329.855 253.568 328.816 253.503 327.907C253.438 326.998 253.39 326.202 253.373 325.536C253.308 324.221 253.308 323.475 253.308 323.475H253.114H253.032Z" fill="black"/>
<path d="M249.023 328.995C249.023 328.995 248.925 329.417 248.6 330.115C248.308 330.813 247.773 331.787 246.977 332.843C246.604 333.378 246.133 333.914 245.613 334.45C245.11 335.002 244.493 335.505 243.86 335.976C243.146 336.398 242.496 336.885 241.717 337.21L240.613 337.746C240.223 337.892 239.866 338.054 239.493 338.216C238.795 338.557 237.983 338.704 237.236 338.866C236.489 339.028 235.694 338.996 235.012 339.093C234.33 339.174 233.665 339.191 233.096 339.385C232.544 339.596 231.976 339.71 231.489 339.937C230.986 340.148 230.596 340.587 230.19 340.976C229.801 341.382 229.46 341.934 229.168 342.421C228.875 342.941 228.648 343.444 228.47 343.818C228.307 344.24 228.21 344.467 228.21 344.467C228.161 345.165 228.21 345.766 228.34 346.269C228.34 346.269 228.47 346.464 228.713 346.837C228.957 347.162 229.33 347.601 229.801 348.023C230.272 348.412 230.872 348.851 231.538 349.127C232.204 349.435 232.967 349.484 233.762 349.419C234.558 349.305 235.418 349.208 236.262 348.818C237.106 348.445 237.999 348.039 238.795 347.373C239.574 346.691 240.37 346.009 241.068 345.198C241.766 344.386 242.496 343.672 243.113 342.827C243.438 342.421 243.763 342.032 244.055 341.626C244.331 341.204 244.574 340.765 244.834 340.327C245.354 339.483 245.711 338.59 246.1 337.762C246.831 336.106 247.464 334.628 247.902 333.33C248.373 332.047 248.665 330.959 248.893 330.212C249.087 329.466 249.217 329.027 249.217 329.027L249.023 328.979V328.995Z" fill="black"/>
<path d="M166.064 239.197C169.65 239.197 172.558 236.289 172.558 232.702C172.558 229.116 169.65 226.208 166.064 226.208C162.477 226.208 159.57 229.116 159.57 232.702C159.57 236.289 162.477 239.197 166.064 239.197Z" fill="black"/>
<path d="M166.064 280.597C169.65 280.597 172.558 277.689 172.558 274.103C172.558 270.516 169.65 267.609 166.064 267.609C162.477 267.609 159.57 270.516 159.57 274.103C159.57 277.689 162.477 280.597 166.064 280.597Z" fill="black"/>
<path d="M134.767 253.821L142.803 261.857L150.838 253.821L142.803 245.785L134.767 253.821Z" fill="black"/>
<path d="M118.578 115.677C100.898 114.654 67.4385 104.215 67.4385 71.9714C67.4385 62.6198 70.4095 54.8755 76.0267 49.5665C80.8321 45.0368 87.1798 42.7638 93.9334 43.1372C99.1123 43.4295 103.869 45.7349 107.311 49.5989C110.752 53.463 112.49 58.4472 112.197 63.6264C111.727 71.8252 104.681 78.0921 96.4822 77.6375C93.6574 77.4752 91.1411 76.2738 89.2578 74.4391C93.7873 74.3093 97.4238 70.6076 97.4238 66.0617C97.4238 61.5157 93.6737 57.668 89.0306 57.668C84.3875 57.668 80.6373 61.4183 80.6373 66.0617C80.6373 66.5325 80.686 67.0033 80.7672 67.4579C81.3029 75.5919 87.8454 82.2646 96.19 82.7517C107.23 83.3849 116.678 74.9424 117.311 63.9186C117.685 57.3757 115.493 51.0764 111.126 46.1895C106.775 41.3026 100.768 38.3965 94.2256 38.0231C86.0596 37.5523 78.332 40.3285 72.5037 45.8323C65.9287 52.0343 62.3246 61.3047 62.3246 71.9551C62.3246 108.03 98.9337 119.655 118.285 120.775C118.334 120.775 118.383 120.775 118.431 120.775C119.779 120.775 120.899 119.72 120.98 118.356C121.061 116.944 119.99 115.742 118.578 115.661V115.677Z" fill="black"/>
<path d="M118.334 115.677C136.014 114.654 169.473 104.215 169.473 71.9714C169.473 62.6198 166.502 54.8755 160.885 49.5665C156.079 45.0368 149.732 42.7638 142.978 43.1372C137.799 43.4295 133.059 45.7349 129.601 49.5989C126.159 53.463 124.422 58.4472 124.714 63.6264C125.185 71.8252 132.231 78.0921 140.429 77.6375C143.254 77.4752 145.771 76.2738 147.654 74.4391C143.124 74.3093 139.488 70.6076 139.488 66.0617C139.488 61.5157 143.238 57.668 147.881 57.668C152.524 57.668 156.274 61.4183 156.274 66.0617C156.274 66.5325 156.226 67.0033 156.144 67.4579C155.609 75.5919 149.066 82.2646 140.722 82.7517C129.682 83.3849 120.233 74.9424 119.6 63.9186C119.227 57.3757 121.419 51.0764 125.786 46.1895C130.153 41.3026 136.143 38.3965 142.686 38.0231C150.852 37.5523 158.58 40.3285 164.408 45.8323C170.983 52.0343 174.587 61.3047 174.587 71.9551C174.587 108.03 137.978 119.655 118.626 120.775C118.578 120.775 118.529 120.775 118.48 120.775C117.133 120.775 116.012 119.72 115.931 118.356C115.85 116.944 116.922 115.742 118.334 115.661V115.677Z" fill="black"/>
<path d="M118.578 120.824C100.898 121.847 67.4385 132.286 67.4385 164.53C67.4385 173.881 70.4095 181.626 76.0267 186.935C80.8321 191.464 87.1798 193.737 93.9334 193.364C99.1123 193.072 103.869 190.766 107.311 186.902C110.752 183.038 112.49 178.054 112.197 172.875C111.727 164.676 104.681 158.409 96.4822 158.863C93.6574 159.026 91.1411 160.227 89.2578 162.046C93.7873 162.176 97.4238 165.877 97.4238 170.423C97.4238 174.969 93.6737 178.817 89.0306 178.817C84.3875 178.817 80.6373 175.066 80.6373 170.423C80.6373 169.952 80.686 169.481 80.7672 169.027C81.3029 160.893 87.8454 154.22 96.19 153.733C107.23 153.084 116.678 161.542 117.311 172.566C117.685 179.109 115.493 185.408 111.126 190.295C106.775 195.182 100.768 198.088 94.2256 198.462C86.0596 198.933 78.332 196.156 72.5037 190.652C65.9287 184.451 62.3246 175.18 62.3246 164.53C62.3246 128.455 98.9337 116.83 118.285 115.71C118.334 115.71 118.383 115.71 118.431 115.71C119.779 115.71 120.899 116.765 120.98 118.113C121.061 119.525 119.99 120.726 118.578 120.808V120.824Z" fill="black"/>
<path d="M118.334 120.824C136.014 121.847 169.473 132.286 169.473 164.53C169.473 173.881 166.502 181.626 160.885 186.935C156.079 191.464 149.732 193.737 142.978 193.364C137.799 193.072 133.059 190.766 129.601 186.902C126.159 183.038 124.422 178.054 124.714 172.875C125.185 164.676 132.231 158.409 140.429 158.863C143.254 159.026 145.771 160.227 147.654 162.046C143.124 162.176 139.488 165.877 139.488 170.423C139.488 174.969 143.238 178.817 147.881 178.817C152.524 178.817 156.274 175.066 156.274 170.423C156.274 169.952 156.226 169.481 156.144 169.027C155.609 160.893 149.066 154.22 140.722 153.733C129.682 153.084 120.233 161.542 119.6 172.566C119.227 179.109 121.419 185.408 125.786 190.295C130.153 195.182 136.143 198.088 142.686 198.462C150.852 198.933 158.58 196.156 164.408 190.652C170.983 184.451 174.587 175.18 174.587 164.53C174.587 128.455 137.978 116.83 118.626 115.71C118.578 115.71 118.529 115.71 118.48 115.71C117.133 115.71 116.012 116.765 115.931 118.113C115.85 119.525 116.922 120.726 118.334 120.808V120.824Z" fill="black"/>
<path d="M118.334 112.3C118.334 112.3 118.107 111.667 117.522 110.66C117.23 110.157 116.873 109.54 116.37 108.907C115.899 108.241 115.314 107.543 114.633 106.829C113.967 106.098 113.155 105.384 112.295 104.653C111.402 103.955 110.46 103.241 109.373 102.673C108.317 102.056 107.132 101.601 105.979 101.114C104.811 100.659 103.577 100.318 102.424 99.8963C101.19 99.6041 99.9889 99.3119 98.7713 99.182C97.5212 99.117 96.3524 98.9872 95.2159 98.9547C94.0633 98.9547 92.9756 98.8573 91.9852 98.6624C90.9625 98.5488 90.0046 98.3864 89.128 98.1591C88.6896 98.0455 88.2675 97.8831 87.8779 97.7046C87.472 97.526 87.0824 97.3636 86.7252 97.1526C85.9947 96.7304 85.3615 96.2109 84.8096 95.6914C84.2738 95.1556 83.8355 94.6523 83.527 94.2627C83.2186 93.8243 83.0562 93.597 83.0562 93.597V91.6974C83.0562 91.6974 83.2348 91.4864 83.5433 91.0805C83.8679 90.7233 84.355 90.2525 84.9881 89.7654C85.6213 89.2946 86.4005 88.84 87.3097 88.4991C87.7642 88.3367 88.235 88.1744 88.7546 88.0769C89.2578 88.012 89.7936 87.9795 90.3618 88.012C91.4657 88.0769 92.6833 88.1581 93.9334 88.4017C95.1835 88.7264 96.466 89.181 97.7648 89.7492C99.0473 90.3499 100.314 91.1779 101.564 91.9247C102.814 92.704 104.015 93.6457 105.249 94.425C106.418 95.3504 107.57 96.2271 108.577 97.2662C109.567 98.3215 110.558 99.2956 111.353 100.383C112.23 101.374 112.977 102.429 113.691 103.371C114.064 103.825 114.357 104.345 114.665 104.816C114.973 105.287 115.282 105.709 115.542 106.163C117.668 109.686 118.545 112.235 118.545 112.235L118.35 112.3H118.334Z" fill="black"/>
<path d="M118.383 112.235C118.383 112.235 119.259 109.686 121.386 106.163C121.63 105.709 121.938 105.27 122.263 104.816C122.571 104.361 122.863 103.842 123.237 103.371C123.967 102.429 124.698 101.374 125.575 100.383C126.386 99.2956 127.36 98.3215 128.351 97.2662C129.357 96.2271 130.526 95.3504 131.679 94.425C132.913 93.6619 134.098 92.704 135.364 91.9247C136.63 91.1779 137.88 90.3499 139.163 89.7491C140.446 89.1971 141.744 88.7263 142.994 88.4016C144.244 88.1418 145.446 88.0607 146.566 88.012C147.118 87.9957 147.654 88.012 148.173 88.0769C148.676 88.1743 149.164 88.3204 149.618 88.499C150.527 88.84 151.306 89.2946 151.94 89.7654C152.573 90.2525 153.06 90.7233 153.384 91.0805C153.709 91.4863 153.872 91.6974 153.872 91.6974V93.597C153.872 93.597 153.709 93.8242 153.401 94.2626C153.092 94.6523 152.654 95.1555 152.118 95.6913C151.582 96.2109 150.933 96.7304 150.203 97.1525C149.845 97.3636 149.456 97.5259 149.05 97.7045C148.644 97.8993 148.238 98.0455 147.8 98.1591C146.923 98.3864 145.949 98.5488 144.942 98.6624C143.952 98.8572 142.864 98.9546 141.712 98.9546C140.559 98.9871 139.406 99.117 138.156 99.1819C136.939 99.3118 135.737 99.5878 134.504 99.8963C133.351 100.318 132.117 100.659 130.948 101.114C129.796 101.585 128.61 102.056 127.555 102.673C126.468 103.241 125.526 103.955 124.633 104.653C123.773 105.368 122.961 106.098 122.295 106.829C121.613 107.543 121.029 108.258 120.558 108.907C120.055 109.556 119.714 110.157 119.405 110.66C118.821 111.667 118.594 112.3 118.594 112.3L118.399 112.235H118.383Z" fill="black"/>
<path d="M112.035 88.4016C112.035 84.8623 114.892 82.0049 118.431 82.0049C121.971 82.0049 124.828 84.8623 124.828 88.4016C124.828 91.941 121.971 94.7984 118.431 94.7984C114.892 94.7984 112.035 91.941 112.035 88.4016Z" fill="black"/>
<path d="M118.334 124.201C118.334 124.201 118.107 124.834 117.522 125.841C117.23 126.344 116.873 126.961 116.37 127.594C115.899 128.26 115.314 128.958 114.633 129.672C113.967 130.403 113.155 131.133 112.295 131.848C111.402 132.546 110.46 133.26 109.373 133.828C108.317 134.445 107.132 134.9 105.979 135.387C104.811 135.842 103.577 136.183 102.424 136.605C101.19 136.897 99.9889 137.189 98.7713 137.319C97.5212 137.384 96.3524 137.514 95.2159 137.546C94.0633 137.546 92.9756 137.644 91.9852 137.839C90.9625 137.952 90.0046 138.115 89.128 138.342C88.6896 138.456 88.2675 138.618 87.8779 138.796C87.472 138.975 87.0824 139.137 86.7252 139.348C85.9947 139.771 85.3615 140.29 84.8096 140.793C84.2738 141.329 83.8355 141.832 83.527 142.222C83.2186 142.66 83.0562 142.888 83.0562 142.888V144.787C83.0562 144.787 83.2348 144.998 83.5433 145.404C83.8679 145.778 84.355 146.232 84.9881 146.719C85.6213 147.19 86.4005 147.645 87.3097 147.986C87.7642 148.148 88.235 148.31 88.7546 148.408C89.2578 148.473 89.7936 148.505 90.3618 148.473C91.4657 148.408 92.6833 148.327 93.9334 148.083C95.1835 147.758 96.466 147.304 97.7648 146.736C99.0473 146.135 100.314 145.307 101.564 144.56C102.814 143.781 104.015 142.839 105.249 142.06C106.418 141.134 107.57 140.258 108.577 139.219C109.567 138.163 110.558 137.189 111.353 136.101C112.23 135.111 112.977 134.056 113.691 133.114C114.064 132.659 114.357 132.14 114.665 131.685C114.973 131.215 115.282 130.792 115.542 130.338C117.668 126.815 118.545 124.266 118.545 124.266L118.35 124.185L118.334 124.201Z" fill="black"/>
<path d="M118.383 124.266C118.383 124.266 119.259 126.815 121.386 130.338C121.63 130.792 121.938 131.231 122.263 131.685C122.571 132.14 122.863 132.659 123.237 133.114C123.967 134.056 124.698 135.111 125.575 136.101C126.386 137.189 127.36 138.163 128.351 139.218C129.357 140.258 130.526 141.134 131.679 142.06C132.913 142.823 134.098 143.781 135.364 144.56C136.63 145.307 137.88 146.135 139.163 146.735C140.446 147.287 141.744 147.758 142.994 148.083C144.244 148.343 145.446 148.424 146.566 148.473C147.118 148.489 147.654 148.473 148.173 148.408C148.676 148.31 149.164 148.164 149.618 147.986C150.527 147.645 151.306 147.19 151.94 146.719C152.573 146.232 153.06 145.778 153.384 145.404C153.709 144.998 153.872 144.787 153.872 144.787V142.888C153.872 142.888 153.709 142.66 153.401 142.222C153.092 141.832 152.654 141.329 152.118 140.793C151.582 140.274 150.933 139.754 150.203 139.348C149.845 139.137 149.456 138.975 149.05 138.796C148.644 138.602 148.238 138.455 147.8 138.342C146.923 138.114 145.949 137.952 144.942 137.838C143.952 137.644 142.864 137.546 141.712 137.546C140.559 137.514 139.406 137.384 138.156 137.319C136.939 137.189 135.737 136.913 134.504 136.605C133.351 136.182 132.117 135.841 130.948 135.387C129.796 134.916 128.61 134.445 127.555 133.828C126.468 133.26 125.526 132.546 124.633 131.848C123.773 131.133 122.961 130.403 122.295 129.672C121.613 128.958 121.029 128.243 120.558 127.594C120.055 126.944 119.714 126.344 119.405 125.84C118.821 124.834 118.594 124.201 118.594 124.201L118.399 124.282L118.383 124.266Z" fill="black"/>
<path d="M112.035 148.116C112.035 151.655 114.892 154.512 118.431 154.512C121.971 154.512 124.828 151.655 124.828 148.116C124.828 144.576 121.971 141.719 118.431 141.719C114.892 141.719 112.035 144.576 112.035 148.116Z" fill="black"/>
<path d="M89.0792 118.388C89.0792 118.388 84.7608 118.405 78.267 119.005C75.0201 119.298 71.2374 119.687 67.195 120.32C63.1364 121.002 58.818 121.895 54.4995 122.48C52.3404 122.756 50.1811 123.178 48.0544 123.6C45.9277 124.038 43.8334 124.477 41.8041 124.818C37.7454 125.532 33.9628 125.564 30.7321 125.288C27.4852 125.012 24.7902 123.697 22.8908 122.334C21.9492 121.668 21.2024 120.937 20.6991 120.45C20.1958 119.915 19.9199 119.574 19.9199 119.574C19.4328 118.762 19.4166 117.885 19.9199 116.976C19.9199 116.976 20.1958 116.635 20.6991 116.099C21.2024 115.596 21.9492 114.865 22.8908 114.216C24.774 112.852 27.4852 111.537 30.7321 111.261C33.979 110.985 37.7617 111.001 41.8041 111.716C43.8334 112.057 45.9277 112.495 48.0544 112.933C50.1811 113.339 52.3404 113.761 54.4995 114.054C58.818 114.638 63.1364 115.531 67.195 116.213C71.2537 116.846 75.0363 117.236 78.267 117.528C84.7446 118.129 89.0792 118.145 89.0792 118.145V118.437V118.388Z" fill="black"/>
<path d="M74.387 111.164C74.387 111.164 74.2084 111.131 73.8837 111.05C73.559 110.969 73.0719 110.872 72.4713 110.709C71.8706 110.563 71.14 110.336 70.2796 110.108C69.4516 109.832 68.4776 109.589 67.4548 109.216C66.4158 108.891 65.3118 108.469 64.1267 107.998C62.9416 107.543 61.724 106.975 60.409 106.439C59.1427 105.822 57.7303 105.287 56.4315 104.491C55.7659 104.118 55.084 103.744 54.4184 103.338C53.769 102.916 53.1683 102.413 52.5352 101.942C51.2527 101.017 50.0675 99.9613 48.8337 98.9222L47.9083 98.1429L47.0641 97.2987C46.5121 96.7305 45.9602 96.1622 45.4407 95.5777C44.8887 95.0095 44.4666 94.3926 44.077 93.7594C43.6873 93.1262 43.3139 92.493 42.9892 91.8761C42.2749 90.6422 41.9665 89.3433 41.6418 88.1582C41.382 86.9567 41.2197 85.8203 41.4794 84.765C41.6742 83.7096 42.0314 82.768 42.421 82.0049C42.8431 81.2256 43.249 80.6249 43.6062 80.2028C43.9796 79.7807 44.1906 79.5534 44.1906 79.5534C44.8562 79.1962 45.5543 79.0663 46.2849 79.1962C46.2849 79.1962 46.5771 79.3261 47.0966 79.5534C47.5836 79.7807 48.233 80.1379 48.9149 80.5762C49.5805 81.0146 50.2786 81.5503 50.863 82.1998C51.415 82.8492 52.0969 83.5148 52.4865 84.3428C52.8923 85.1708 53.217 86.0963 53.6716 87.0217C53.8664 87.4925 54.0612 87.9958 54.2236 88.5316C54.3697 89.0673 54.5158 89.6193 54.7269 90.1714C54.9217 90.7234 55.0678 91.3078 55.2464 91.9085L55.5061 92.8177L55.8633 93.6944C56.3665 94.8634 56.8374 96.1298 57.6004 97.1851L58.6556 98.8735C59.0453 99.4093 59.4349 99.9613 59.8245 100.513C60.5551 101.666 61.4967 102.591 62.3409 103.631C63.2663 104.523 64.1916 105.433 65.1657 106.131C65.6527 106.488 66.1235 106.845 66.5781 107.186C67.0489 107.511 67.5197 107.787 67.9743 108.063C68.8672 108.647 69.7439 109.053 70.5069 109.459C71.2861 109.816 71.9842 110.125 72.5687 110.32C73.7213 110.774 74.4194 110.904 74.4194 110.904L74.3707 111.131L74.387 111.164Z" fill="black"/>
<path d="M74.4356 125.581C74.4356 125.581 73.7375 125.727 72.5849 126.165C72.0004 126.36 71.3023 126.685 70.5231 127.026C69.76 127.432 68.8671 127.837 67.9905 128.422C67.5359 128.714 67.0651 128.99 66.5943 129.299C66.1397 129.64 65.6689 129.98 65.1819 130.354C64.2078 131.052 63.2987 131.961 62.3571 132.854C61.5129 133.877 60.5713 134.819 59.8407 135.971C59.4511 136.523 59.0614 137.075 58.6718 137.611L57.6166 139.3C56.8535 140.355 56.3665 141.621 55.8795 142.79L55.5223 143.667L55.2626 144.576C55.084 145.177 54.9216 145.761 54.743 146.313C54.532 146.849 54.3859 147.401 54.2398 147.953C54.0774 148.489 53.8988 148.992 53.6878 149.463C53.2332 150.388 52.9085 151.33 52.5027 152.142C52.113 152.97 51.4312 153.636 50.8792 154.285C50.2948 154.918 49.5967 155.454 48.9311 155.908C48.233 156.347 47.5998 156.688 47.1128 156.931C46.577 157.159 46.3011 157.288 46.3011 157.288C45.603 157.402 44.9049 157.288 44.2068 156.931C44.2068 156.931 43.9795 156.704 43.6223 156.298C43.2814 155.876 42.8593 155.275 42.4372 154.496C42.0476 153.717 41.6904 152.791 41.4956 151.736C41.2521 150.681 41.3982 149.544 41.658 148.343C41.9664 147.158 42.2911 145.859 43.0054 144.625C43.3301 143.992 43.7035 143.358 44.0931 142.742C44.4828 142.108 44.9211 141.491 45.4569 140.923C45.9764 140.339 46.5283 139.77 47.0803 139.202L47.9245 138.358L48.8499 137.579C50.0837 136.54 51.2688 135.484 52.5514 134.559C53.1845 134.088 53.7852 133.601 54.4346 133.163C55.1002 132.757 55.7821 132.367 56.4477 132.01C57.7464 131.231 59.1589 130.679 60.4252 130.062C61.7402 129.526 62.9577 128.958 64.1429 128.503C65.328 128.048 66.432 127.626 67.471 127.285C68.4937 126.912 69.4678 126.668 70.2958 126.392C71.14 126.165 71.8705 125.938 72.4875 125.792C73.0881 125.629 73.5752 125.532 73.8999 125.451C74.2246 125.37 74.4031 125.337 74.4031 125.337L74.4518 125.564L74.4356 125.581Z" fill="black"/>
<path d="M147.8 118.388C147.8 118.388 152.118 118.405 158.612 119.005C161.859 119.298 165.642 119.687 169.684 120.32C173.743 121.002 178.061 121.895 182.379 122.48C184.539 122.756 186.698 123.178 188.825 123.6C190.951 124.038 193.046 124.477 195.075 124.818C199.134 125.532 202.916 125.564 206.147 125.288C209.394 125.012 212.089 123.697 213.988 122.334C214.93 121.668 215.677 120.937 216.18 120.45C216.683 119.915 216.959 119.574 216.959 119.574C217.544 118.697 217.56 117.82 216.959 116.976C216.959 116.976 216.683 116.635 216.18 116.099C215.677 115.596 214.93 114.865 213.988 114.216C212.105 112.852 209.394 111.537 206.147 111.261C202.9 110.985 199.117 111.001 195.075 111.716C193.046 112.057 190.951 112.495 188.825 112.933C186.698 113.339 184.539 113.761 182.379 114.054C178.061 114.638 173.743 115.531 169.684 116.213C165.625 116.846 161.843 117.236 158.612 117.528C152.134 118.129 147.8 118.145 147.8 118.145V118.437V118.388Z" fill="black"/>
<path d="M162.476 111.164C162.476 111.164 162.654 111.131 162.979 111.05C163.304 110.969 163.791 110.872 164.392 110.709C165.008 110.563 165.723 110.336 166.583 110.108C167.411 109.832 168.385 109.589 169.408 109.216C170.447 108.891 171.551 108.469 172.736 107.998C173.921 107.543 175.139 106.975 176.454 106.439C177.72 105.822 179.133 105.287 180.431 104.491C181.097 104.118 181.779 103.744 182.444 103.338C183.094 102.916 183.695 102.413 184.328 101.942C185.61 101.017 186.795 99.9613 188.029 98.9222L188.955 98.1429L189.799 97.2987C190.351 96.7305 190.903 96.1622 191.422 95.5777C191.974 95.0095 192.396 94.3926 192.786 93.7594C193.176 93.1262 193.549 92.493 193.874 91.8761C194.588 90.6422 194.896 89.3433 195.221 88.1582C195.481 86.9567 195.643 85.8203 195.383 84.765C195.189 83.7096 194.831 82.768 194.442 82.0049C194.02 81.2256 193.614 80.6249 193.257 80.2028C192.883 79.7807 192.656 79.5534 192.656 79.5534C192.136 79.1962 191.438 79.0663 190.562 79.1962C190.562 79.1962 190.27 79.3261 189.734 79.5534C189.247 79.7807 188.597 80.1379 187.916 80.5762C187.25 81.0146 186.552 81.5503 185.967 82.1998C185.415 82.8492 184.734 83.5148 184.344 84.3428C183.938 85.1708 183.613 86.0963 183.159 87.0217C182.964 87.4925 182.769 87.9958 182.607 88.5316C182.461 89.0673 182.315 89.6193 182.104 90.1714C181.909 90.7234 181.763 91.3078 181.584 91.9085L181.324 92.8177L180.967 93.6944C180.464 94.8634 179.993 96.1298 179.23 97.1851L178.175 98.8735C177.785 99.4093 177.395 99.9613 177.006 100.513C176.275 101.666 175.334 102.591 174.489 103.631C173.564 104.523 172.639 105.433 171.665 106.131C171.178 106.488 170.707 106.845 170.252 107.186C169.781 107.511 169.311 107.787 168.856 108.063C167.963 108.647 167.087 109.053 166.323 109.459C165.544 109.816 164.846 110.125 164.262 110.32C163.109 110.774 162.411 110.904 162.411 110.904L162.46 111.131L162.476 111.164Z" fill="black"/>
<path d="M162.427 125.581C162.427 125.581 163.125 125.727 164.278 126.165C164.862 126.36 165.56 126.685 166.34 127.026C167.103 127.432 167.979 127.837 168.872 128.422C169.327 128.714 169.798 128.99 170.268 129.299C170.723 129.64 171.194 129.98 171.681 130.354C172.655 131.052 173.564 131.961 174.506 132.854C175.35 133.877 176.292 134.819 177.022 135.971C177.412 136.523 177.801 137.075 178.191 137.611L179.246 139.3C180.009 140.355 180.496 141.621 180.983 142.79L181.34 143.667L181.6 144.576C181.779 145.177 181.941 145.761 182.12 146.313C182.331 146.849 182.477 147.401 182.623 147.953C182.785 148.489 182.964 148.992 183.175 149.463C183.63 150.388 183.954 151.33 184.36 152.142C184.75 152.97 185.432 153.636 185.984 154.285C186.568 154.918 187.25 155.454 187.932 155.908C188.63 156.347 189.263 156.688 189.75 156.931C190.286 157.159 190.578 157.288 190.578 157.288C191.373 157.402 192.072 157.288 192.672 156.931C192.672 156.931 192.9 156.704 193.273 156.298C193.614 155.876 194.036 155.275 194.458 154.496C194.848 153.717 195.205 152.791 195.4 151.736C195.659 150.681 195.497 149.544 195.237 148.343C194.929 147.158 194.604 145.859 193.89 144.625C193.565 143.992 193.192 143.358 192.802 142.742C192.412 142.108 191.974 141.491 191.438 140.923C190.919 140.339 190.367 139.77 189.815 139.202L188.971 138.358L188.045 137.579C186.812 136.54 185.626 135.484 184.344 134.559C183.711 134.088 183.11 133.601 182.461 133.163C181.795 132.757 181.113 132.367 180.448 132.01C179.149 131.231 177.736 130.679 176.47 130.062C175.155 129.526 173.938 128.958 172.752 128.503C171.567 128.048 170.463 127.626 169.424 127.285C168.402 126.912 167.427 126.668 166.599 126.392C165.755 126.165 165.025 125.938 164.408 125.792C163.807 125.629 163.32 125.532 162.995 125.451C162.671 125.37 162.492 125.337 162.492 125.337L162.443 125.564L162.427 125.581Z" fill="black"/>
<path d="M118.285 48.2841C118.285 48.2841 118.285 47.5372 118.22 46.2222C118.204 45.5728 118.155 44.761 118.09 43.8518C118.026 42.9426 117.977 41.9035 117.863 40.7833C117.652 38.5266 117.392 35.9127 116.954 33.0877C116.711 31.6752 116.451 30.2303 116.191 28.7528C115.899 27.2754 115.704 25.7818 115.46 24.2719C115.233 22.7782 114.99 21.2683 114.697 19.7909C114.421 18.3135 114.097 16.8523 113.869 15.456C113.366 12.6473 113.35 10.0172 113.545 7.76044C113.74 5.50372 114.649 3.63664 115.59 2.32157C116.077 1.67215 116.532 1.15262 116.905 0.795442C117.311 0.438262 117.522 0.259673 117.522 0.259673C118.155 -0.0650359 118.772 -0.113742 119.324 0.259673C119.324 0.259673 119.535 0.454498 119.941 0.795442C120.298 1.15262 120.769 1.65592 121.256 2.32157C122.198 3.63664 123.107 5.50372 123.302 7.76044C123.497 10.0172 123.48 12.6311 122.977 15.456C122.75 16.8685 122.425 18.3135 122.149 19.7909C121.857 21.2683 121.597 22.762 121.386 24.2719C121.143 25.7655 120.948 27.2754 120.656 28.7528C120.396 30.2303 120.136 31.6915 119.893 33.0877C119.454 35.8964 119.178 38.5266 118.983 40.7833C118.87 41.9035 118.821 42.9426 118.756 43.8518C118.691 44.761 118.642 45.5565 118.626 46.2222C118.561 47.5372 118.561 48.2841 118.561 48.2841H118.366H118.285Z" fill="black"/>
<path d="M114.275 42.7639C114.275 42.7639 114.178 42.3417 113.853 41.6436C113.561 40.9293 113.025 39.9714 112.23 38.9161C111.856 38.3803 111.386 37.8445 110.866 37.3088C110.363 36.7568 109.746 36.2535 109.113 35.7664C108.398 35.3443 107.749 34.8572 106.97 34.5325L105.866 33.9967C105.476 33.8506 105.119 33.6883 104.746 33.5259C104.048 33.185 103.236 33.0388 102.489 32.8765C101.742 32.7141 100.947 32.7466 100.265 32.6492C99.583 32.568 98.9174 32.5518 98.3492 32.357C97.7972 32.1459 97.229 32.0322 96.742 31.8049C96.2387 31.6101 95.8491 31.1555 95.4432 30.7659C95.0536 30.36 94.7127 29.808 94.4204 29.3209C94.1282 28.8014 93.9009 28.2981 93.7224 27.9247C93.56 27.5026 93.4626 27.2753 93.4626 27.2753C93.2353 26.6908 93.2515 26.0901 93.5925 25.4731C93.5925 25.4731 93.7224 25.2783 93.9659 24.9049C94.2094 24.5802 94.5828 24.1418 95.0536 23.7197C95.5244 23.3301 96.1251 22.8917 96.7907 22.6157C97.4563 22.3072 98.2193 22.2585 99.0148 22.3235C99.7941 22.4371 100.671 22.5345 101.515 22.9242C102.359 23.2976 103.252 23.7035 104.048 24.3691C104.827 25.051 105.622 25.7329 106.32 26.5447C107.018 27.3564 107.749 28.0708 108.366 28.915C108.691 29.3209 109.015 29.7106 109.308 30.1165C109.584 30.5386 109.827 30.9769 110.087 31.4153C110.606 32.2595 110.963 33.1525 111.353 33.9805C112.084 35.6365 112.717 37.1139 113.155 38.4128C113.626 39.6954 113.918 40.7831 114.145 41.53C114.34 42.2768 114.47 42.7152 114.47 42.7152L114.275 42.7639Z" fill="black"/>
<path d="M122.393 42.7152C122.393 42.7152 122.506 42.2931 122.717 41.53C122.945 40.7832 123.237 39.7117 123.708 38.4128C124.146 37.114 124.779 35.6366 125.51 33.9806C125.899 33.1688 126.256 32.2596 126.776 31.4154C127.019 30.9933 127.279 30.5387 127.555 30.1165C127.847 29.7107 128.172 29.321 128.497 28.9151C129.114 28.0709 129.861 27.3565 130.542 26.5447C131.241 25.733 132.036 25.0673 132.815 24.3692C133.611 23.7035 134.504 23.2977 135.348 22.9242C136.192 22.5346 137.069 22.4372 137.848 22.3235C138.643 22.2424 139.406 22.2911 140.072 22.6158C140.738 22.8755 141.338 23.3301 141.809 23.7198C142.28 24.1419 142.653 24.564 142.897 24.905C143.14 25.2784 143.27 25.4732 143.27 25.4732C143.595 26.1064 143.628 26.7071 143.4 27.2753C143.4 27.2753 143.319 27.5026 143.14 27.9248C142.978 28.3144 142.735 28.8015 142.442 29.321C142.15 29.8081 141.809 30.3763 141.42 30.766C141.014 31.1556 140.608 31.594 140.121 31.805C139.634 32.0323 139.066 32.146 138.514 32.357C137.962 32.5519 137.28 32.5681 136.598 32.6493C135.932 32.7467 135.121 32.7142 134.374 32.8766C133.627 33.0389 132.815 33.185 132.117 33.526C131.744 33.6721 131.387 33.8507 130.997 33.9968L129.893 34.5326C129.114 34.8735 128.464 35.3444 127.75 35.7665C127.117 36.2535 126.5 36.7568 125.997 37.3088C125.477 37.8446 125.006 38.3804 124.633 38.9161C123.838 39.9714 123.302 40.9293 123.01 41.6437C122.685 42.3418 122.587 42.7639 122.587 42.7639L122.393 42.7152Z" fill="black"/>
<path d="M118.285 188.168C118.285 188.168 118.285 188.915 118.22 190.23C118.204 190.88 118.155 191.692 118.09 192.601C118.026 193.51 117.977 194.549 117.863 195.669C117.652 197.926 117.392 200.54 116.954 203.365C116.711 204.777 116.451 206.222 116.191 207.7C115.899 209.177 115.704 210.671 115.46 212.181C115.233 213.674 114.99 215.184 114.697 216.662C114.421 218.139 114.097 219.6 113.869 220.996C113.366 223.805 113.35 226.435 113.545 228.692C113.74 230.949 114.649 232.816 115.59 234.131C116.077 234.78 116.532 235.3 116.905 235.657C117.311 236.014 117.522 236.193 117.522 236.193C118.155 236.55 118.772 236.599 119.324 236.193C119.324 236.193 119.535 235.998 119.941 235.657C120.298 235.3 120.769 234.797 121.256 234.131C122.198 232.816 123.107 230.949 123.302 228.692C123.497 226.435 123.48 223.821 122.977 220.996C122.75 219.584 122.425 218.139 122.149 216.662C121.857 215.184 121.597 213.691 121.386 212.181C121.143 210.687 120.948 209.177 120.656 207.7C120.396 206.222 120.136 204.761 119.893 203.365C119.454 200.556 119.178 197.926 118.983 195.669C118.87 194.549 118.821 193.51 118.756 192.601C118.691 191.692 118.642 190.896 118.626 190.23C118.561 188.915 118.561 188.168 118.561 188.168H118.366H118.285Z" fill="black"/>
<path d="M114.275 193.688C114.275 193.688 114.178 194.111 113.853 194.809C113.561 195.507 113.025 196.481 112.23 197.536C111.856 198.072 111.386 198.608 110.866 199.144C110.363 199.696 109.746 200.199 109.113 200.686C108.398 201.108 107.749 201.595 106.97 201.92L105.866 202.456C105.476 202.602 105.119 202.764 104.746 202.926C104.048 203.267 103.236 203.413 102.489 203.576C101.742 203.738 100.947 203.706 100.265 203.803C99.583 203.884 98.9174 203.901 98.3492 204.095C97.7972 204.306 97.229 204.42 96.7419 204.647C96.2387 204.858 95.849 205.297 95.4432 205.686C95.0535 206.092 94.7126 206.644 94.4204 207.131C94.1282 207.651 93.9009 208.154 93.7223 208.528C93.56 208.95 93.4626 209.177 93.4626 209.177C93.4139 209.875 93.4626 210.476 93.5924 210.979C93.5924 210.979 93.7223 211.174 93.9658 211.547C94.2093 211.872 94.5827 212.311 95.0535 212.733C95.5243 213.122 96.125 213.561 96.7906 213.837C97.4563 214.145 98.2193 214.194 99.0148 214.129C99.7941 214.015 100.671 213.918 101.515 213.528C102.359 213.155 103.252 212.749 104.048 212.083C104.827 211.401 105.622 210.719 106.32 209.908C107.018 209.096 107.749 208.365 108.366 207.537C108.691 207.131 109.015 206.742 109.308 206.336C109.584 205.914 109.827 205.475 110.087 205.037C110.606 204.193 110.963 203.3 111.353 202.472C112.084 200.816 112.717 199.338 113.155 198.04C113.626 196.757 113.918 195.669 114.145 194.922C114.34 194.176 114.47 193.737 114.47 193.737L114.275 193.688Z" fill="black"/>
<path d="M122.393 193.737C122.393 193.737 122.506 194.176 122.717 194.922C122.945 195.669 123.237 196.741 123.708 198.04C124.146 199.338 124.779 200.816 125.51 202.472C125.899 203.284 126.256 204.193 126.776 205.037C127.019 205.475 127.279 205.914 127.555 206.336C127.847 206.742 128.172 207.131 128.497 207.537C129.114 208.382 129.861 209.096 130.542 209.908C131.241 210.719 132.036 211.385 132.815 212.083C133.611 212.749 134.504 213.155 135.348 213.528C136.192 213.918 137.069 214.015 137.848 214.129C138.643 214.21 139.406 214.161 140.072 213.837C140.738 213.577 141.338 213.122 141.809 212.733C142.28 212.311 142.653 211.888 142.897 211.547C143.14 211.174 143.27 210.979 143.27 210.979C143.384 210.492 143.433 209.924 143.4 209.177C143.4 209.177 143.319 208.95 143.14 208.528C142.978 208.138 142.735 207.651 142.442 207.131C142.15 206.644 141.809 206.076 141.42 205.686C141.014 205.297 140.608 204.858 140.121 204.647C139.634 204.42 139.066 204.306 138.514 204.095C137.962 203.901 137.28 203.884 136.598 203.803C135.932 203.706 135.121 203.738 134.374 203.576C133.627 203.413 132.815 203.267 132.117 202.926C131.744 202.78 131.387 202.602 130.997 202.456L129.893 201.92C129.114 201.579 128.464 201.108 127.75 200.686C127.117 200.199 126.5 199.696 125.997 199.144C125.477 198.608 125.006 198.072 124.633 197.536C123.838 196.481 123.302 195.523 123.01 194.809C122.685 194.111 122.587 193.688 122.587 193.688L122.393 193.737Z" fill="black"/>
<path d="M31.3002 103.89C34.8867 103.89 37.7941 100.983 37.7941 97.3963C37.7941 93.8096 34.8867 90.9021 31.3002 90.9021C27.7138 90.9021 24.8064 93.8096 24.8064 97.3963C24.8064 100.983 27.7138 103.89 31.3002 103.89Z" fill="black"/>
<path d="M31.3002 145.291C34.8867 145.291 37.7941 142.383 37.7941 138.797C37.7941 135.21 34.8867 132.302 31.3002 132.302C27.7138 132.302 24.8064 135.21 24.8064 138.797C24.8064 142.383 27.7138 145.291 31.3002 145.291Z" fill="black"/>
<path d="M-0.0133782 118.515L8.02234 126.552L16.0581 118.515L8.02234 110.479L-0.0133782 118.515Z" fill="black"/>
<path d="M203.744 103.89C207.331 103.89 210.238 100.983 210.238 97.3963C210.238 93.8096 207.331 90.9021 203.744 90.9021C200.158 90.9021 197.25 93.8096 197.25 97.3963C197.25 100.983 200.158 103.89 203.744 103.89Z" fill="black"/>
<path d="M203.744 145.291C207.331 145.291 210.238 142.383 210.238 138.797C210.238 135.21 207.331 132.302 203.744 132.302C200.158 132.302 197.25 135.21 197.25 138.797C197.25 142.383 200.158 145.291 203.744 145.291Z" fill="black"/>
<path d="M227.014 110.466L218.978 118.502L227.014 126.538L235.05 118.502L227.014 110.466Z" fill="black"/>
<path d="M118.578 386.208C100.898 385.185 67.4385 374.746 67.4385 342.503C67.4385 333.151 70.4095 325.407 76.0267 320.098C80.8321 315.568 87.1798 313.295 93.9334 313.668C99.1123 313.961 103.869 316.266 107.311 320.13C110.752 323.994 112.49 328.978 112.197 334.157C111.727 342.356 104.681 348.623 96.4822 348.169C93.6574 348.006 91.1411 346.805 89.2578 344.987C93.7873 344.857 97.4238 341.155 97.4238 336.609C97.4238 332.063 93.6737 328.215 89.0306 328.215C84.3875 328.215 80.6373 331.966 80.6373 336.609C80.6373 337.08 80.686 337.551 80.7672 338.005C81.3029 346.139 87.8454 352.812 96.19 353.299C107.23 353.932 116.678 345.49 117.311 334.466C117.685 327.923 115.493 321.624 111.126 316.737C106.775 311.85 100.768 308.944 94.2256 308.57C86.0596 308.1 78.332 310.876 72.5037 316.38C65.9287 322.582 62.3246 331.852 62.3246 342.503C62.3246 378.578 98.9337 390.202 118.285 391.322C118.334 391.322 118.383 391.322 118.431 391.322C119.779 391.322 120.899 390.267 120.98 388.903C121.061 387.491 119.99 386.289 118.578 386.208Z" fill="black"/>
<path d="M118.334 386.208C136.014 385.185 169.473 374.746 169.473 342.503C169.473 333.151 166.502 325.407 160.885 320.098C156.079 315.568 149.732 313.295 142.978 313.668C137.799 313.961 133.059 316.266 129.601 320.13C126.159 323.994 124.422 328.978 124.714 334.157C125.185 342.356 132.231 348.623 140.429 348.169C143.254 348.006 145.771 346.805 147.654 344.987C143.124 344.857 139.488 341.155 139.488 336.609C139.488 332.063 143.238 328.215 147.881 328.215C152.524 328.215 156.274 331.966 156.274 336.609C156.274 337.08 156.226 337.551 156.144 338.005C155.609 346.139 149.066 352.812 140.722 353.299C129.682 353.932 120.233 345.49 119.6 334.466C119.227 327.923 121.419 321.624 125.786 316.737C130.153 311.85 136.143 308.944 142.686 308.57C150.852 308.1 158.58 310.876 164.408 316.38C170.983 322.582 174.587 331.852 174.587 342.503C174.587 378.578 137.978 390.202 118.626 391.322C118.578 391.322 118.529 391.322 118.48 391.322C117.133 391.322 116.012 390.267 115.931 388.903C115.85 387.491 116.922 386.289 118.334 386.208Z" fill="black"/>
<path d="M118.578 391.339C100.898 392.361 67.4385 402.801 67.4385 435.044C67.4385 444.396 70.4095 452.14 76.0267 457.449C80.8321 461.979 87.1798 464.252 93.9334 463.879C99.1123 463.586 103.869 461.281 107.311 457.417C110.752 453.553 112.49 448.569 112.197 443.389C111.727 435.191 104.681 428.924 96.4822 429.378C93.6574 429.541 91.1411 430.742 89.2578 432.577C93.7873 432.707 97.4238 436.408 97.4238 440.954C97.4238 445.5 93.6737 449.348 89.0306 449.348C84.3875 449.348 80.6373 445.597 80.6373 440.954C80.6373 440.483 80.686 440.012 80.7672 439.558C81.3029 431.424 87.8454 424.751 96.19 424.264C107.23 423.631 116.678 432.073 117.311 443.097C117.685 449.64 115.493 455.939 111.126 460.826C106.775 465.713 100.768 468.619 94.2256 468.993C86.0596 469.464 78.332 466.687 72.5037 461.183C65.9287 454.982 62.3246 445.711 62.3246 435.061C62.3246 398.986 98.9337 387.361 118.285 386.241C118.334 386.241 118.383 386.241 118.431 386.241C119.779 386.241 120.899 387.296 120.98 388.66C121.061 390.072 119.99 391.274 118.578 391.355V391.339Z" fill="black"/>
<path d="M118.334 391.339C136.014 392.361 169.473 402.801 169.473 435.044C169.473 444.396 166.502 452.14 160.885 457.449C156.079 461.979 149.732 464.252 142.978 463.879C137.799 463.586 133.059 461.281 129.601 457.417C126.159 453.553 124.422 448.569 124.714 443.389C125.185 435.191 132.231 428.924 140.429 429.378C143.254 429.541 145.771 430.742 147.654 432.577C143.124 432.707 139.488 436.408 139.488 440.954C139.488 445.5 143.238 449.348 147.881 449.348C152.524 449.348 156.274 445.597 156.274 440.954C156.274 440.483 156.226 440.012 156.144 439.558C155.609 431.424 149.066 424.751 140.722 424.264C129.682 423.631 120.233 432.073 119.6 443.097C119.227 449.64 121.419 455.939 125.786 460.826C130.153 465.713 136.143 468.619 142.686 468.993C150.852 469.464 158.58 466.687 164.408 461.183C170.983 454.982 174.587 445.711 174.587 435.061C174.587 398.986 137.978 387.361 118.626 386.241C118.578 386.241 118.529 386.241 118.48 386.241C117.133 386.241 116.012 387.296 115.931 388.66C115.85 390.072 116.922 391.274 118.334 391.355V391.339Z" fill="black"/>
<path d="M118.334 382.831C118.334 382.831 118.107 382.198 117.522 381.191C117.23 380.688 116.873 380.071 116.37 379.438C115.899 378.772 115.314 378.074 114.633 377.36C113.967 376.629 113.155 375.915 112.295 375.201C111.402 374.502 110.46 373.788 109.373 373.22C108.317 372.603 107.132 372.148 105.979 371.661C104.811 371.207 103.577 370.866 102.424 370.444C101.19 370.151 99.9889 369.859 98.7713 369.729C97.5212 369.664 96.3524 369.534 95.2159 369.502C94.0633 369.502 92.9756 369.405 91.9852 369.21C90.9625 369.096 90.0046 368.934 89.128 368.706C88.6896 368.593 88.2675 368.43 87.8779 368.252C87.472 368.073 87.0824 367.911 86.7252 367.7C85.9947 367.278 85.3615 366.758 84.8096 366.255C84.2738 365.719 83.8355 365.216 83.527 364.826C83.2186 364.388 83.0562 364.16 83.0562 364.16V362.261C83.0562 362.261 83.2348 362.05 83.5433 361.644C83.8679 361.271 84.355 360.816 84.9881 360.329C85.6213 359.858 86.4005 359.403 87.3097 359.063C87.7642 358.9 88.235 358.738 88.7546 358.64C89.2578 358.575 89.7936 358.543 90.3618 358.575C91.4657 358.64 92.6833 358.722 93.9334 358.981C95.1835 359.306 96.466 359.761 97.7648 360.329C99.0473 360.93 100.314 361.758 101.564 362.504C102.814 363.284 104.015 364.225 105.249 365.005C106.418 365.93 107.57 366.807 108.577 367.846C109.567 368.901 110.558 369.875 111.353 370.963C112.23 371.953 112.977 373.009 113.691 373.95C114.064 374.405 114.357 374.925 114.665 375.379C114.973 375.85 115.282 376.272 115.542 376.727C117.668 380.25 118.545 382.799 118.545 382.799L118.35 382.88L118.334 382.831Z" fill="black"/>
<path d="M118.383 382.75C118.383 382.75 119.259 380.201 121.386 376.678C121.63 376.223 121.938 375.785 122.263 375.331C122.571 374.876 122.863 374.356 123.237 373.902C123.967 372.96 124.698 371.905 125.575 370.914C126.386 369.827 127.36 368.853 128.351 367.797C129.357 366.758 130.526 365.881 131.679 364.956C132.913 364.193 134.098 363.235 135.364 362.456C136.63 361.709 137.88 360.881 139.163 360.28C140.446 359.712 141.744 359.257 142.994 358.933C144.244 358.673 145.446 358.592 146.566 358.527C147.118 358.511 147.654 358.527 148.173 358.592C148.676 358.689 149.164 358.835 149.618 359.014C150.527 359.355 151.306 359.809 151.94 360.28C152.573 360.767 153.06 361.238 153.384 361.595C153.709 362.001 153.872 362.212 153.872 362.212V364.112C153.872 364.112 153.709 364.339 153.401 364.777C153.092 365.167 152.654 365.67 152.118 366.206C151.582 366.726 150.933 367.245 150.203 367.651C149.845 367.862 149.456 368.025 149.05 368.203C148.644 368.398 148.238 368.544 147.8 368.658C146.923 368.885 145.949 369.047 144.942 369.161C143.952 369.356 142.864 369.453 141.712 369.453C140.559 369.486 139.406 369.616 138.156 369.681C136.939 369.81 135.737 370.086 134.504 370.395C133.351 370.817 132.117 371.158 130.948 371.613C129.796 372.083 128.61 372.554 127.555 373.171C126.468 373.739 125.526 374.454 124.633 375.152C123.773 375.866 122.961 376.597 122.295 377.311C121.613 378.026 121.029 378.74 120.558 379.389C120.055 380.039 119.714 380.639 119.405 381.143C118.821 382.149 118.594 382.783 118.594 382.783L118.399 382.701L118.383 382.75Z" fill="black"/>
<path d="M112.035 358.917C112.035 355.377 114.892 352.52 118.431 352.52C121.971 352.52 124.828 355.377 124.828 358.917C124.828 362.456 121.971 365.313 118.431 365.313C114.892 365.313 112.035 362.456 112.035 358.917Z" fill="black"/>
<path d="M118.334 394.716C118.334 394.716 118.107 395.349 117.522 396.355C117.23 396.859 116.873 397.476 116.37 398.109C115.899 398.774 115.314 399.473 114.633 400.187C113.967 400.918 113.155 401.632 112.295 402.362C111.402 403.061 110.46 403.775 109.373 404.343C108.317 404.96 107.132 405.415 105.979 405.902C104.811 406.356 103.577 406.697 102.424 407.119C101.19 407.412 99.9889 407.704 98.7713 407.834C97.5212 407.899 96.3524 408.029 95.2159 408.061C94.0633 408.061 92.9756 408.159 91.9852 408.353C90.9625 408.467 90.0046 408.629 89.128 408.857C88.6896 408.97 88.2675 409.133 87.8779 409.311C87.472 409.49 87.0824 409.652 86.7252 409.863C85.9947 410.285 85.3615 410.805 84.8096 411.324C84.2738 411.86 83.8355 412.363 83.527 412.753C83.2186 413.191 83.0562 413.419 83.0562 413.419V415.318C83.0562 415.318 83.2348 415.529 83.5433 415.935C83.8679 416.292 84.355 416.763 84.9881 417.25C85.6213 417.721 86.4005 418.176 87.3097 418.517C87.7642 418.679 88.235 418.841 88.7546 418.939C89.2578 419.004 89.7936 419.036 90.3618 419.004C91.4657 418.939 92.6833 418.858 93.9334 418.614C95.1835 418.289 96.466 417.835 97.7648 417.267C99.0473 416.666 100.314 415.838 101.564 415.091C102.814 414.312 104.015 413.37 105.249 412.591C106.418 411.665 107.57 410.789 108.577 409.75C109.567 408.694 110.558 407.72 111.353 406.632C112.23 405.642 112.977 404.587 113.691 403.645C114.064 403.19 114.357 402.671 114.665 402.2C114.973 401.729 115.282 401.307 115.542 400.853C117.668 397.329 118.545 394.781 118.545 394.781L118.35 394.716H118.334Z" fill="black"/>
<path d="M118.383 394.797C118.383 394.797 119.259 397.346 121.386 400.869C121.63 401.324 121.938 401.762 122.263 402.216C122.571 402.671 122.863 403.191 123.237 403.661C123.967 404.603 124.698 405.658 125.575 406.649C126.386 407.737 127.36 408.711 128.351 409.766C129.357 410.805 130.526 411.682 131.679 412.607C132.913 413.37 134.098 414.328 135.364 415.107C136.63 415.854 137.88 416.682 139.163 417.283C140.446 417.835 141.744 418.306 142.994 418.63C144.244 418.89 145.446 418.971 146.566 419.02C147.118 419.036 147.654 419.02 148.173 418.955C148.676 418.858 149.164 418.712 149.618 418.533C150.527 418.192 151.306 417.738 151.94 417.267C152.573 416.78 153.06 416.325 153.384 415.952C153.709 415.546 153.872 415.335 153.872 415.335V413.435C153.872 413.435 153.709 413.208 153.401 412.769C153.092 412.38 152.654 411.877 152.118 411.341C151.582 410.821 150.933 410.302 150.203 409.88C149.845 409.669 149.456 409.506 149.05 409.328C148.644 409.133 148.238 408.987 147.8 408.873C146.923 408.646 145.949 408.483 144.942 408.37C143.952 408.175 142.864 408.077 141.712 408.077C140.559 408.045 139.406 407.915 138.156 407.85C136.939 407.72 135.737 407.444 134.504 407.136C133.351 406.714 132.117 406.373 130.948 405.918C129.796 405.447 128.61 404.976 127.555 404.36C126.468 403.791 125.526 403.077 124.633 402.379C123.773 401.664 122.961 400.934 122.295 400.203C121.613 399.489 121.029 398.775 120.558 398.125C120.055 397.476 119.714 396.875 119.405 396.372C118.821 395.365 118.594 394.732 118.594 394.732L118.399 394.797H118.383Z" fill="black"/>
<path d="M112.035 418.63C112.035 422.17 114.892 425.027 118.431 425.027C121.971 425.027 124.828 422.17 124.828 418.63C124.828 415.091 121.971 412.234 118.431 412.234C114.892 412.234 112.035 415.091 112.035 418.63Z" fill="black"/>
<path d="M89.0792 388.903C89.0792 388.903 84.7608 388.919 78.267 389.52C75.0201 389.812 71.2374 390.202 67.195 390.835C63.1364 391.517 58.818 392.41 54.4995 392.995C52.3404 393.271 50.1811 393.693 48.0544 394.115C45.9277 394.553 43.8334 394.992 41.8041 395.332C37.7454 396.047 33.9628 396.079 30.7321 395.787C27.4852 395.511 24.7902 394.196 22.8908 392.832C21.9492 392.167 21.2024 391.436 20.6991 390.949C20.1958 390.413 19.9199 390.072 19.9199 390.072C19.4328 389.26 19.4166 388.384 19.9199 387.458C19.9199 387.458 20.1958 387.117 20.6991 386.582C21.2024 386.078 21.9492 385.348 22.8908 384.698C24.774 383.335 27.4852 382.019 30.7321 381.743C33.979 381.467 37.7617 381.484 41.8041 382.198C43.8334 382.539 45.9277 382.977 48.0544 383.416C50.1811 383.822 52.3404 384.244 54.4995 384.536C58.818 385.12 63.1364 386.013 67.195 386.695C71.2537 387.328 75.0363 387.718 78.267 388.01C84.7446 388.611 89.0792 388.627 89.0792 388.627V388.92V388.903Z" fill="black"/>
<path d="M74.387 381.679C74.387 381.679 74.2084 381.646 73.8837 381.565C73.559 381.484 73.0719 381.386 72.4713 381.224C71.8706 381.078 71.14 380.851 70.2796 380.623C69.4516 380.347 68.4776 380.104 67.4548 379.73C66.4158 379.389 65.3118 378.984 64.1267 378.513C62.9416 378.058 61.724 377.49 60.409 376.954C59.1427 376.337 57.7303 375.801 56.4315 375.006C55.7659 374.632 55.084 374.259 54.4184 373.853C53.769 373.431 53.1683 372.928 52.5352 372.457C51.2527 371.532 50.0675 370.476 48.8337 369.437L47.9083 368.658L47.0641 367.814C46.5121 367.245 45.9602 366.677 45.4407 366.093C44.8887 365.524 44.4666 364.907 44.077 364.274C43.6873 363.641 43.3139 363.008 42.9892 362.391C42.2749 361.157 41.9665 359.858 41.6418 358.673C41.382 357.472 41.2197 356.335 41.4794 355.28C41.6742 354.225 42.0314 353.283 42.421 352.52C42.8431 351.741 43.249 351.14 43.6062 350.718C43.9796 350.296 44.1906 350.068 44.1906 350.068C44.8562 349.711 45.5543 349.581 46.2849 349.711C46.2849 349.711 46.5771 349.841 47.0966 350.068C47.5836 350.296 48.233 350.653 48.9149 351.091C49.5805 351.529 50.2786 352.065 50.863 352.715C51.415 353.364 52.0969 354.03 52.4865 354.858C52.8923 355.686 53.217 356.611 53.6716 357.537C53.8664 358.007 54.0612 358.511 54.2236 359.046C54.3697 359.582 54.5158 360.134 54.7269 360.686C54.9217 361.238 55.0678 361.823 55.2464 362.423L55.5061 363.333L55.8633 364.209C56.3665 365.378 56.8374 366.645 57.6004 367.7L58.6556 369.388C59.0453 369.924 59.4349 370.476 59.8245 371.028C60.5551 372.181 61.4967 373.106 62.3409 374.145C63.2663 375.038 64.1916 375.948 65.1657 376.646C65.6527 377.003 66.1235 377.36 66.5781 377.701C67.0489 378.026 67.5197 378.302 67.9743 378.578C68.8672 379.162 69.7439 379.568 70.5069 379.974C71.2861 380.331 71.9842 380.64 72.5687 380.834C73.7213 381.289 74.4194 381.419 74.4194 381.419L74.3707 381.646L74.387 381.679Z" fill="black"/>
<path d="M74.4356 396.096C74.4356 396.096 73.7375 396.242 72.5849 396.68C72.0004 396.875 71.3023 397.2 70.5231 397.541C69.76 397.946 68.8671 398.352 67.9905 398.937C67.5359 399.229 67.0651 399.505 66.5943 399.813C66.1397 400.154 65.6689 400.495 65.1819 400.869C64.2078 401.567 63.2987 402.476 62.3571 403.369C61.5129 404.392 60.5713 405.334 59.8407 406.486C59.4511 407.038 59.0614 407.59 58.6718 408.126L57.6166 409.815C56.8535 410.87 56.3665 412.136 55.8795 413.305L55.5223 414.182L55.2626 415.091C55.084 415.692 54.9216 416.276 54.743 416.828C54.532 417.364 54.3859 417.916 54.2398 418.468C54.0774 419.004 53.8988 419.507 53.6878 419.978C53.2332 420.903 52.9085 421.845 52.5027 422.657C52.113 423.485 51.4312 424.15 50.8792 424.8C50.2948 425.433 49.5967 425.969 48.9311 426.423C48.233 426.862 47.5998 427.219 47.1128 427.446C46.577 427.673 46.3011 427.803 46.3011 427.803C45.603 427.917 44.9049 427.803 44.2068 427.446C44.2068 427.446 43.9795 427.219 43.6223 426.813C43.2814 426.391 42.8593 425.79 42.4372 425.011C42.0476 424.232 41.6904 423.306 41.4956 422.251C41.2521 421.196 41.3982 420.059 41.658 418.858C41.9664 417.672 42.2911 416.374 43.0054 415.14C43.3301 414.507 43.7035 413.89 44.0931 413.256C44.4828 412.623 44.9211 412.006 45.4569 411.438C45.9764 410.854 46.5283 410.285 47.0803 409.717L47.9245 408.873L48.8499 408.094C50.0837 407.054 51.2688 405.999 52.5514 405.074C53.1845 404.603 53.7852 404.116 54.4346 403.678C55.1002 403.272 55.7821 402.882 56.4477 402.525C57.7464 401.745 59.1589 401.193 60.4252 400.577C61.7402 400.041 62.9577 399.473 64.1429 399.018C65.328 398.563 66.432 398.141 67.471 397.8C68.4937 397.427 69.4678 397.183 70.2958 396.907C71.14 396.68 71.8705 396.453 72.4875 396.307C73.0881 396.144 73.5752 396.047 73.8999 395.966C74.2246 395.885 74.4031 395.852 74.4031 395.852L74.4518 396.079L74.4356 396.096Z" fill="black"/>
<path d="M147.8 388.903C147.8 388.903 152.118 388.919 158.612 389.52C161.859 389.812 165.642 390.202 169.684 390.835C173.743 391.517 178.061 392.41 182.379 392.995C184.539 393.271 186.698 393.693 188.825 394.115C190.951 394.553 193.046 394.992 195.075 395.332C199.134 396.047 202.916 396.079 206.147 395.787C209.394 395.511 212.089 394.196 213.988 392.832C214.93 392.167 215.677 391.436 216.18 390.949C216.683 390.413 216.959 390.072 216.959 390.072C217.544 389.195 217.56 388.319 216.959 387.458C216.959 387.458 216.683 387.117 216.18 386.582C215.677 386.078 214.93 385.348 213.988 384.698C212.105 383.335 209.394 382.019 206.147 381.743C202.9 381.467 199.117 381.484 195.075 382.198C193.046 382.539 190.951 382.977 188.825 383.416C186.698 383.822 184.539 384.244 182.379 384.536C178.061 385.12 173.743 386.013 169.684 386.695C165.625 387.328 161.843 387.718 158.612 388.01C152.134 388.611 147.8 388.627 147.8 388.627V388.92V388.903Z" fill="black"/>
<path d="M162.476 381.679C162.476 381.679 162.654 381.646 162.979 381.565C163.304 381.484 163.791 381.386 164.392 381.224C165.008 381.078 165.723 380.851 166.583 380.623C167.411 380.347 168.385 380.104 169.408 379.73C170.447 379.389 171.551 378.984 172.736 378.513C173.921 378.058 175.139 377.49 176.454 376.954C177.72 376.337 179.133 375.801 180.431 375.006C181.097 374.632 181.779 374.259 182.444 373.853C183.094 373.431 183.695 372.928 184.328 372.457C185.61 371.532 186.795 370.476 188.029 369.437L188.955 368.658L189.799 367.814C190.351 367.245 190.903 366.677 191.422 366.093C191.974 365.524 192.396 364.907 192.786 364.274C193.176 363.641 193.549 363.008 193.874 362.391C194.588 361.157 194.896 359.858 195.221 358.673C195.481 357.472 195.643 356.335 195.383 355.28C195.189 354.225 194.831 353.283 194.442 352.52C194.02 351.741 193.614 351.14 193.257 350.718C192.883 350.296 192.656 350.068 192.656 350.068C192.136 349.711 191.438 349.581 190.562 349.711C190.562 349.711 190.27 349.841 189.734 350.068C189.247 350.296 188.597 350.653 187.916 351.091C187.25 351.529 186.552 352.065 185.967 352.715C185.415 353.364 184.734 354.03 184.344 354.858C183.938 355.686 183.613 356.611 183.159 357.537C182.964 358.007 182.769 358.511 182.607 359.046C182.461 359.582 182.315 360.134 182.104 360.686C181.909 361.238 181.763 361.823 181.584 362.423L181.324 363.333L180.967 364.209C180.464 365.378 179.993 366.645 179.23 367.7L178.175 369.388C177.785 369.924 177.395 370.476 177.006 371.028C176.275 372.181 175.334 373.106 174.489 374.145C173.564 375.038 172.639 375.948 171.665 376.646C171.178 377.003 170.707 377.36 170.252 377.701C169.781 378.026 169.311 378.302 168.856 378.578C167.963 379.162 167.087 379.568 166.323 379.974C165.544 380.331 164.846 380.64 164.262 380.834C163.109 381.289 162.411 381.419 162.411 381.419L162.46 381.646L162.476 381.679Z" fill="black"/>
<path d="M162.427 396.096C162.427 396.096 163.125 396.242 164.278 396.68C164.862 396.875 165.56 397.2 166.34 397.541C167.103 397.946 167.979 398.352 168.872 398.937C169.327 399.229 169.798 399.505 170.268 399.813C170.723 400.154 171.194 400.495 171.681 400.869C172.655 401.567 173.564 402.476 174.506 403.369C175.35 404.392 176.292 405.334 177.022 406.486C177.412 407.038 177.801 407.59 178.191 408.126L179.246 409.815C180.009 410.87 180.496 412.136 180.983 413.305L181.34 414.182L181.6 415.091C181.779 415.692 181.941 416.276 182.12 416.828C182.331 417.364 182.477 417.916 182.623 418.468C182.785 419.004 182.964 419.507 183.175 419.978C183.63 420.903 183.954 421.845 184.36 422.657C184.75 423.485 185.432 424.15 185.984 424.8C186.568 425.433 187.25 425.969 187.932 426.423C188.63 426.862 189.263 427.219 189.75 427.446C190.286 427.673 190.578 427.803 190.578 427.803C191.373 427.917 192.072 427.803 192.672 427.446C192.672 427.446 192.9 427.219 193.273 426.813C193.614 426.391 194.036 425.79 194.458 425.011C194.848 424.232 195.205 423.306 195.4 422.251C195.659 421.196 195.497 420.059 195.237 418.858C194.929 417.672 194.604 416.374 193.89 415.14C193.565 414.507 193.192 413.89 192.802 413.256C192.412 412.623 191.974 412.006 191.438 411.438C190.919 410.854 190.367 410.285 189.815 409.717L188.971 408.873L188.045 408.094C186.812 407.054 185.626 405.999 184.344 405.074C183.711 404.603 183.11 404.116 182.461 403.678C181.795 403.272 181.113 402.882 180.448 402.525C179.149 401.745 177.736 401.193 176.47 400.577C175.155 400.041 173.938 399.473 172.752 399.018C171.567 398.563 170.463 398.141 169.424 397.8C168.402 397.427 167.427 397.183 166.599 396.907C165.755 396.68 165.025 396.453 164.408 396.307C163.807 396.144 163.32 396.047 162.995 395.966C162.671 395.885 162.492 395.852 162.492 395.852L162.443 396.079L162.427 396.096Z" fill="black"/>
<path d="M118.285 318.815C118.285 318.815 118.285 318.068 118.22 316.753C118.204 316.104 118.155 315.292 118.09 314.383C118.026 313.474 117.977 312.435 117.863 311.314C117.652 309.058 117.392 306.444 116.954 303.619C116.711 302.206 116.451 300.761 116.191 299.284C115.899 297.806 115.704 296.313 115.46 294.803C115.233 293.309 114.99 291.799 114.697 290.322C114.421 288.844 114.097 287.383 113.869 285.987C113.366 283.178 113.35 280.548 113.545 278.291C113.74 276.035 114.649 274.168 115.59 272.853C116.077 272.203 116.532 271.684 116.905 271.326C117.311 270.969 117.522 270.791 117.522 270.791C118.155 270.466 118.772 270.417 119.324 270.791C119.324 270.791 119.535 270.986 119.941 271.326C120.298 271.684 120.769 272.187 121.256 272.853C122.198 274.168 123.107 276.035 123.302 278.291C123.497 280.548 123.48 283.162 122.977 285.987C122.75 287.4 122.425 288.844 122.149 290.322C121.857 291.799 121.597 293.293 121.386 294.803C121.143 296.297 120.948 297.806 120.656 299.284C120.396 300.761 120.136 302.222 119.893 303.619C119.454 306.427 119.178 309.058 118.983 311.314C118.87 312.435 118.821 313.474 118.756 314.383C118.691 315.292 118.642 316.088 118.626 316.753C118.561 318.068 118.561 318.815 118.561 318.815H118.366H118.285Z" fill="black"/>
<path d="M114.275 313.295C114.275 313.295 114.178 312.873 113.853 312.175C113.561 311.461 113.025 310.503 112.23 309.447C111.856 308.912 111.386 308.376 110.866 307.84C110.363 307.288 109.746 306.785 109.113 306.298C108.398 305.876 107.749 305.388 106.97 305.064L105.866 304.528C105.476 304.382 105.119 304.22 104.746 304.057C104.048 303.716 103.236 303.57 102.489 303.408C101.742 303.245 100.947 303.278 100.265 303.18C99.583 303.099 98.9174 303.083 98.3492 302.888C97.7972 302.677 97.229 302.563 96.742 302.336C96.2387 302.125 95.8491 301.687 95.4432 301.297C95.0536 300.891 94.7127 300.339 94.4204 299.852C94.1282 299.333 93.9009 298.829 93.7224 298.456C93.56 298.034 93.4626 297.806 93.4626 297.806C93.2353 297.222 93.2515 296.621 93.5925 296.004C93.5925 296.004 93.7224 295.81 93.9659 295.436C94.2094 295.111 94.5828 294.673 95.0536 294.251C95.5244 293.861 96.1251 293.423 96.7907 293.147C97.4563 292.838 98.2193 292.79 99.0148 292.855C99.7941 292.968 100.671 293.066 101.515 293.455C102.359 293.829 103.252 294.235 104.048 294.9C104.827 295.582 105.622 296.264 106.32 297.076C107.018 297.888 107.749 298.618 108.366 299.446C108.691 299.852 109.015 300.242 109.308 300.648C109.584 301.07 109.827 301.508 110.087 301.947C110.606 302.791 110.963 303.684 111.353 304.512C112.084 306.168 112.717 307.645 113.155 308.944C113.626 310.227 113.918 311.314 114.145 312.061C114.34 312.808 114.47 313.246 114.47 313.246L114.275 313.295Z" fill="black"/>
<path d="M122.393 313.246C122.393 313.246 122.506 312.808 122.717 312.061C122.945 311.314 123.237 310.243 123.708 308.944C124.146 307.645 124.779 306.168 125.51 304.512C125.899 303.7 126.256 302.791 126.776 301.946C127.019 301.508 127.279 301.07 127.555 300.648C127.847 300.242 128.172 299.852 128.497 299.446C129.114 298.618 129.861 297.888 130.542 297.076C131.241 296.264 132.036 295.598 132.815 294.9C133.611 294.235 134.504 293.829 135.348 293.455C136.192 293.066 137.069 292.968 137.848 292.855C138.643 292.773 139.406 292.822 140.072 293.147C140.738 293.407 141.338 293.861 141.809 294.251C142.28 294.673 142.653 295.095 142.897 295.436C143.14 295.809 143.27 296.004 143.27 296.004C143.595 296.637 143.628 297.238 143.4 297.806C143.4 297.806 143.319 298.034 143.14 298.456C142.978 298.845 142.735 299.332 142.442 299.852C142.15 300.339 141.809 300.907 141.42 301.297C141.014 301.687 140.608 302.125 140.121 302.336C139.634 302.563 139.066 302.677 138.514 302.888C137.962 303.083 137.28 303.099 136.598 303.18C135.932 303.278 135.121 303.245 134.374 303.408C133.627 303.57 132.815 303.716 132.117 304.057C131.744 304.203 131.387 304.382 130.997 304.528L129.893 305.064C129.114 305.405 128.464 305.875 127.75 306.297C127.117 306.785 126.5 307.288 125.997 307.84C125.477 308.376 125.006 308.911 124.633 309.447C123.838 310.502 123.302 311.46 123.01 312.175C122.685 312.873 122.587 313.295 122.587 313.295L122.393 313.246Z" fill="black"/>
<path d="M118.285 458.683C118.285 458.683 118.285 459.43 118.22 460.745C118.204 461.395 118.155 462.206 118.091 463.116C118.026 464.025 117.977 465.064 117.863 466.184C117.652 468.441 117.392 471.055 116.954 473.88C116.711 475.292 116.451 476.737 116.191 478.215C115.899 479.692 115.704 481.186 115.461 482.696C115.233 484.189 114.99 485.699 114.698 487.177C114.422 488.654 114.097 490.115 113.87 491.511C113.366 494.32 113.35 496.95 113.545 499.207C113.74 501.464 114.649 503.331 115.59 504.646C116.077 505.295 116.532 505.815 116.905 506.172C117.311 506.529 117.522 506.708 117.522 506.708C118.155 507.065 118.772 507.114 119.324 506.708C119.324 506.708 119.535 506.513 119.941 506.172C120.298 505.815 120.769 505.312 121.256 504.646C122.198 503.331 123.107 501.464 123.302 499.207C123.497 496.95 123.48 494.336 122.977 491.511C122.75 490.099 122.425 488.654 122.149 487.177C121.857 485.699 121.597 484.205 121.386 482.696C121.143 481.202 120.948 479.692 120.656 478.215C120.396 476.737 120.136 475.276 119.893 473.88C119.454 471.071 119.178 468.441 118.983 466.184C118.87 465.064 118.821 464.025 118.756 463.116C118.691 462.206 118.643 461.411 118.626 460.745C118.561 459.43 118.561 458.683 118.561 458.683H118.367H118.285Z" fill="black"/>
<path d="M114.275 464.204C114.275 464.204 114.178 464.626 113.853 465.324C113.561 466.038 113.025 466.996 112.23 468.051C111.856 468.587 111.386 469.123 110.866 469.659C110.363 470.211 109.746 470.714 109.113 471.185C108.398 471.607 107.749 472.094 106.97 472.419L105.866 472.954C105.476 473.1 105.119 473.263 104.746 473.425C104.048 473.766 103.236 473.912 102.489 474.075C101.742 474.237 100.947 474.205 100.265 474.302C99.5831 474.383 98.9174 474.399 98.3492 474.594C97.7973 474.805 97.229 474.919 96.742 475.146C96.2387 475.357 95.8491 475.796 95.4432 476.185C95.0536 476.591 94.7127 477.143 94.4205 477.63C94.1282 478.15 93.901 478.653 93.7224 479.026C93.56 479.449 93.4626 479.676 93.4626 479.676C93.4139 480.374 93.4626 480.975 93.5925 481.478C93.5925 481.478 93.7224 481.673 93.9659 482.046C94.2094 482.371 94.5828 482.809 95.0536 483.231C95.5244 483.621 96.1251 484.059 96.7907 484.335C97.4563 484.644 98.2194 484.693 99.0149 484.628C99.7941 484.514 100.671 484.417 101.515 484.027C102.359 483.654 103.252 483.248 104.048 482.582C104.827 481.9 105.622 481.218 106.32 480.406C107.019 479.595 107.749 478.864 108.366 478.036C108.691 477.63 109.015 477.241 109.308 476.835C109.584 476.413 109.827 475.974 110.087 475.536C110.606 474.692 110.964 473.799 111.353 472.971C112.084 471.315 112.717 469.837 113.155 468.538C113.626 467.256 113.918 466.168 114.145 465.421C114.34 464.674 114.47 464.236 114.47 464.236L114.275 464.187V464.204Z" fill="black"/>
<path d="M122.393 464.268C122.393 464.268 122.506 464.707 122.717 465.453C122.945 466.2 123.237 467.272 123.708 468.571C124.146 469.87 124.779 471.347 125.51 473.003C125.899 473.815 126.257 474.724 126.776 475.568C127.02 476.007 127.279 476.445 127.555 476.867C127.848 477.273 128.172 477.663 128.497 478.068C129.114 478.896 129.861 479.627 130.542 480.439C131.241 481.251 132.036 481.916 132.815 482.614C133.611 483.28 134.504 483.686 135.348 484.059C136.192 484.449 137.069 484.546 137.848 484.66C138.644 484.741 139.407 484.692 140.072 484.368C140.738 484.108 141.338 483.67 141.809 483.264C142.28 482.842 142.653 482.42 142.897 482.079C143.141 481.705 143.27 481.51 143.27 481.51C143.384 481.023 143.433 480.455 143.4 479.708C143.4 479.708 143.319 479.481 143.141 479.059C142.978 478.685 142.735 478.182 142.442 477.663C142.15 477.175 141.809 476.607 141.42 476.218C141.014 475.828 140.608 475.39 140.121 475.179C139.634 474.951 139.066 474.838 138.514 474.627C137.962 474.432 137.28 474.415 136.598 474.334C135.932 474.237 135.121 474.269 134.374 474.107C133.627 473.945 132.815 473.798 132.117 473.458C131.744 473.311 131.387 473.133 130.997 472.987L129.893 472.451C129.114 472.11 128.464 471.639 127.75 471.217C127.117 470.73 126.5 470.227 125.997 469.691C125.477 469.155 125.006 468.619 124.633 468.084C123.838 467.028 123.302 466.07 123.01 465.356C122.685 464.658 122.588 464.236 122.588 464.236L122.393 464.285V464.268Z" fill="black"/>
<path d="M31.3003 374.421C34.8867 374.421 37.7941 371.514 37.7941 367.927C37.7941 364.341 34.8867 361.433 31.3003 361.433C27.7139 361.433 24.8065 364.341 24.8065 367.927C24.8065 371.514 27.7139 374.421 31.3003 374.421Z" fill="black"/>
<path d="M31.3003 415.822C34.8867 415.822 37.7941 412.914 37.7941 409.328C37.7941 405.741 34.8867 402.833 31.3003 402.833C27.7139 402.833 24.8065 405.741 24.8065 409.328C24.8065 412.914 27.7139 415.822 31.3003 415.822Z" fill="black"/>
<path d="M-0.0211297 389.022L8.01459 397.058L16.0503 389.022L8.01459 380.986L-0.0211297 389.022Z" fill="black"/>
<path d="M203.744 374.421C207.331 374.421 210.238 371.514 210.238 367.927C210.238 364.341 207.331 361.433 203.744 361.433C200.158 361.433 197.25 364.341 197.25 367.927C197.25 371.514 200.158 374.421 203.744 374.421Z" fill="black"/>
<path d="M203.744 415.822C207.331 415.822 210.238 412.914 210.238 409.328C210.238 405.741 207.331 402.833 203.744 402.833C200.158 402.833 197.25 405.741 197.25 409.328C197.25 412.914 200.158 415.822 203.744 415.822Z" fill="black"/>
<path d="M227.023 381.022L218.987 389.058L227.023 397.094L235.058 389.058L227.023 381.022Z" fill="black"/>
</g>
<defs>
<clipPath id="clip0_32_133">
<rect width="506" height="507" fill="white"/>
</clipPath>
</defs>
</svg>
