<svg width="914" height="523" viewBox="0 0 914 523" fill="none" xmlns="http://www.w3.org/2000/svg">
<g opacity="0.02" clip-path="url(#clip0_41_630)">
<path d="M457.381 213.396L701.746 457.559L457.499 701.604L212.723 457.061L457.381 213.396Z" stroke="black" stroke-width="4" stroke-miterlimit="10"/>
<path d="M457.616 452.958C425.681 451.113 365.242 432.272 365.242 374.081C365.242 357.204 370.609 343.228 380.755 333.646C389.435 325.471 400.901 321.369 413.13 322.043C422.485 322.571 431.047 326.731 437.294 333.705C443.51 340.678 446.648 349.674 446.12 359.021C445.27 373.818 432.543 385.128 417.734 384.307C412.631 384.014 408.086 381.846 404.684 378.564C412.866 378.33 419.435 371.649 419.435 363.445C419.435 355.241 412.661 348.297 404.274 348.297C395.887 348.297 389.113 355.065 389.113 363.445C389.113 364.295 389.201 365.145 389.347 365.965C390.315 380.645 402.133 392.687 417.206 393.566C437.147 394.709 454.214 379.473 455.358 359.577C456.032 347.769 452.073 336.401 444.185 327.581C436.297 318.762 425.476 313.517 413.658 312.843C398.907 311.993 384.949 317.004 374.421 326.937C362.544 338.129 356.034 354.86 356.034 374.081C356.034 439.187 422.162 460.166 457.117 462.188C457.205 462.188 457.293 462.188 457.381 462.188C459.815 462.188 461.839 460.284 461.985 457.822C462.132 455.273 460.196 453.105 457.645 452.958H457.616Z" fill="black"/>
<path d="M457.176 452.958C489.111 451.113 549.549 432.272 549.549 374.081C549.549 357.204 544.183 343.228 534.037 333.646C525.356 325.471 513.89 321.369 501.662 322.043C492.307 322.571 483.744 326.731 477.498 333.705C471.281 340.678 468.143 349.674 468.671 359.021C469.522 373.818 482.249 385.128 497.058 384.307C502.16 384.014 506.706 381.846 510.107 378.564C501.926 378.33 495.357 371.649 495.357 363.445C495.357 355.241 502.131 348.297 510.518 348.297C518.905 348.297 525.679 355.065 525.679 363.445C525.679 364.295 525.591 365.145 525.444 365.965C524.477 380.645 512.659 392.687 497.586 393.566C477.645 394.709 460.578 379.473 459.434 359.577C458.759 347.769 462.718 336.401 470.607 327.581C478.466 318.762 489.316 313.517 501.134 312.843C515.884 311.993 529.843 317.004 540.371 326.937C552.247 338.129 558.757 354.86 558.757 374.081C558.757 439.187 492.63 460.166 457.674 462.188C457.586 462.188 457.498 462.188 457.41 462.188C454.977 462.188 452.953 460.284 452.806 457.822C452.66 455.273 454.595 453.105 457.147 452.958H457.176Z" fill="black"/>
<path d="M457.616 462.217C425.681 464.063 365.242 482.904 365.242 541.095C365.242 557.972 370.609 571.948 380.755 581.53C389.435 589.705 400.901 593.807 413.13 593.133C422.485 592.605 431.047 588.445 437.294 581.471C443.51 574.497 446.648 565.502 446.12 556.155C445.27 541.358 432.543 530.048 417.734 530.869C412.631 531.162 408.086 533.33 404.684 536.641C412.866 536.875 419.435 543.556 419.435 551.76C419.435 559.964 412.661 566.909 404.274 566.909C395.887 566.909 389.113 560.111 389.113 551.76C389.113 550.91 389.201 550.061 389.347 549.24C390.315 534.561 402.133 522.518 417.206 521.639C437.147 520.496 454.214 535.733 455.358 555.628C456.032 567.436 452.073 578.805 444.185 587.624C436.297 596.444 425.476 601.688 413.658 602.362C398.907 603.212 384.949 598.202 374.421 588.269C362.544 577.076 356.034 560.345 356.034 541.124C356.034 476.018 422.162 455.039 457.117 453.017C457.205 453.017 457.293 453.017 457.381 453.017C459.815 453.017 461.839 454.922 461.985 457.383C462.132 459.932 460.196 462.1 457.645 462.247L457.616 462.217Z" fill="black"/>
<path d="M457.176 462.217C489.111 464.063 549.549 482.904 549.549 541.095C549.549 557.972 544.183 571.948 534.037 581.53C525.356 589.705 513.89 593.807 501.662 593.133C492.307 592.605 483.744 588.445 477.498 581.471C471.281 574.497 468.143 565.502 468.671 556.155C469.522 541.358 482.249 530.048 497.058 530.869C502.16 531.162 506.706 533.33 510.107 536.641C501.926 536.875 495.357 543.556 495.357 551.76C495.357 559.964 502.131 566.909 510.518 566.909C518.905 566.909 525.679 560.111 525.679 551.76C525.679 550.91 525.591 550.061 525.444 549.24C524.477 534.561 512.659 522.518 497.586 521.639C477.645 520.496 460.578 535.733 459.434 555.628C458.759 567.436 462.718 578.805 470.607 587.624C478.466 596.444 489.316 601.688 501.134 602.362C515.884 603.212 529.843 598.202 540.371 588.269C552.247 577.076 558.757 560.345 558.757 541.124C558.757 476.018 492.63 455.039 457.674 453.017C457.586 453.017 457.498 453.017 457.41 453.017C454.977 453.017 452.953 454.922 452.806 457.383C452.66 459.932 454.595 462.1 457.147 462.247L457.176 462.217Z" fill="black"/>
<path d="M457.176 446.864C457.176 446.864 456.765 445.721 455.71 443.905C455.182 442.996 454.537 441.883 453.628 440.74C452.777 439.539 451.721 438.279 450.49 436.99C449.288 435.671 447.821 434.382 446.267 433.063C444.654 431.803 442.953 430.514 440.989 429.489C439.082 428.375 436.942 427.555 434.86 426.676C432.748 425.855 430.52 425.24 428.438 424.478C426.238 423.951 424.039 423.423 421.839 423.189C419.581 423.072 417.47 422.837 415.417 422.779C413.335 422.779 411.37 422.603 409.582 422.251C407.734 422.046 406.004 421.753 404.42 421.343C403.629 421.138 402.866 420.845 402.162 420.523C401.429 420.2 400.725 419.907 400.08 419.526C398.761 418.765 397.617 417.827 396.62 416.919C395.652 415.952 394.86 415.043 394.303 414.34C393.746 413.549 393.453 413.139 393.453 413.139V409.711C393.453 409.711 393.775 409.33 394.333 408.597C394.919 407.923 395.799 407.103 396.942 406.224C398.086 405.374 399.494 404.554 401.136 403.939C401.957 403.646 402.807 403.353 403.746 403.177C404.655 403.06 405.623 403.001 406.649 403.059C408.643 403.177 410.813 403.323 413.101 403.763C415.359 404.349 417.675 405.169 420.021 406.195C422.338 407.279 424.625 408.773 426.883 410.121C429.141 411.527 431.311 413.227 433.54 414.633C435.651 416.303 437.733 417.886 439.552 419.761C441.34 421.665 443.129 423.423 444.566 425.387C446.15 427.174 447.499 429.078 448.789 430.778C449.463 431.598 449.991 432.536 450.549 433.356C451.106 434.206 451.663 434.968 452.132 435.788C455.974 442.147 457.557 446.747 457.557 446.747L457.205 446.893L457.176 446.864Z" fill="black"/>
<path d="M457.235 446.747C457.235 446.747 458.818 442.147 462.66 435.788C463.1 434.968 463.657 434.177 464.243 433.356C464.8 432.536 465.328 431.598 466.003 430.778C467.322 429.078 468.642 427.174 470.226 425.387C471.692 423.423 473.451 421.665 475.24 419.761C477.058 417.886 479.17 416.303 481.252 414.633C483.48 413.256 485.621 411.527 487.908 410.121C490.196 408.773 492.454 407.279 494.771 406.195C497.087 405.169 499.433 404.349 501.691 403.763C503.949 403.294 506.119 403.147 508.143 403.06C509.14 403.03 510.107 403.06 511.046 403.177C511.955 403.353 512.835 403.616 513.656 403.939C515.298 404.554 516.706 405.374 517.849 406.224C518.993 407.103 519.873 407.923 520.459 408.597C521.046 409.33 521.339 409.711 521.339 409.711V413.139C521.339 413.139 521.046 413.549 520.488 414.34C519.931 415.043 519.14 415.952 518.172 416.919C517.204 417.856 516.031 418.794 514.711 419.526C514.066 419.907 513.363 420.2 512.629 420.523C511.896 420.874 511.163 421.138 510.371 421.343C508.788 421.753 507.028 422.046 505.21 422.251C503.421 422.603 501.457 422.779 499.374 422.779C497.292 422.837 495.21 423.072 492.952 423.189C490.753 423.423 488.583 423.922 486.354 424.478C484.272 425.24 482.043 425.855 479.932 426.676C477.85 427.526 475.709 428.375 473.803 429.489C471.838 430.514 470.138 431.803 468.525 433.063C466.97 434.353 465.504 435.671 464.302 436.99C463.07 438.279 462.015 439.568 461.164 440.74C460.255 441.912 459.639 442.996 459.082 443.905C458.026 445.721 457.616 446.864 457.616 446.864L457.264 446.717L457.235 446.747Z" fill="black"/>
<path d="M445.798 403.704C445.798 397.317 450.959 392.16 457.352 392.16C463.745 392.16 468.906 397.317 468.906 403.704C468.906 410.092 463.745 415.249 457.352 415.249C450.959 415.249 445.798 410.092 445.798 403.704Z" fill="black"/>
<path d="M457.176 468.341C457.176 468.341 456.765 469.484 455.71 471.301C455.182 472.209 454.537 473.322 453.628 474.465C452.777 475.666 451.721 476.926 450.49 478.216C449.288 479.534 447.821 480.823 446.267 482.142C444.654 483.402 442.953 484.691 440.989 485.717C439.082 486.83 436.942 487.65 434.86 488.529C432.748 489.35 430.52 489.965 428.438 490.727C426.238 491.254 424.039 491.782 421.839 492.016C419.581 492.133 417.47 492.368 415.417 492.426C413.335 492.426 411.37 492.602 409.582 492.954C407.734 493.159 406.004 493.452 404.42 493.862C403.629 494.067 402.866 494.36 402.162 494.683C401.429 495.005 400.725 495.298 400.08 495.679C398.761 496.441 397.617 497.378 396.62 498.287C395.652 499.253 394.86 500.162 394.303 500.865C393.746 501.656 393.453 502.066 393.453 502.066V505.495C393.453 505.495 393.775 505.875 394.333 506.608C394.919 507.253 395.799 508.102 396.942 508.981C398.086 509.831 399.494 510.651 401.136 511.267C401.957 511.56 402.807 511.853 403.746 512.029C404.655 512.146 405.623 512.204 406.649 512.146C408.643 512.029 410.813 511.882 413.101 511.443C415.359 510.857 417.675 510.036 420.021 509.011C422.338 507.926 424.625 506.432 426.883 505.084C429.141 503.678 431.311 501.978 433.54 500.572C435.651 498.902 437.733 497.32 439.552 495.444C441.34 493.54 443.129 491.782 444.566 489.819C446.15 488.031 447.499 486.127 448.789 484.427C449.463 483.607 449.991 482.669 450.549 481.82C451.106 480.97 451.663 480.208 452.132 479.388C455.974 473.029 457.557 468.429 457.557 468.429L457.205 468.283L457.176 468.341Z" fill="black"/>
<path d="M457.235 468.459C457.235 468.459 458.818 473.059 462.66 479.417C463.1 480.237 463.657 481.028 464.243 481.849C464.8 482.669 465.328 483.607 466.003 484.457C467.322 486.156 468.642 488.061 470.226 489.848C471.692 491.811 473.451 493.569 475.24 495.474C477.058 497.349 479.17 498.931 481.252 500.601C483.48 501.978 485.621 503.707 487.908 505.114C490.196 506.461 492.454 507.956 494.771 509.04C497.087 510.036 499.433 510.886 501.691 511.472C503.949 511.941 506.119 512.087 508.143 512.175C509.14 512.204 510.107 512.175 511.046 512.058C511.955 511.882 512.835 511.618 513.656 511.296C515.298 510.681 516.706 509.86 517.849 509.011C518.993 508.132 519.873 507.282 520.459 506.637C521.046 505.905 521.339 505.524 521.339 505.524V502.096C521.339 502.096 521.046 501.685 520.488 500.894C519.931 500.191 519.14 499.283 518.172 498.316C517.204 497.378 516.031 496.441 514.711 495.708C514.066 495.327 513.363 495.034 512.629 494.712C511.896 494.36 511.163 494.097 510.371 493.891C508.788 493.481 507.028 493.188 505.21 492.983C503.421 492.632 501.457 492.456 499.374 492.456C497.292 492.397 495.21 492.163 492.952 492.045C490.753 491.811 488.583 491.313 486.354 490.756C484.272 489.994 482.043 489.379 479.932 488.559C477.85 487.709 475.709 486.859 473.803 485.746C471.838 484.72 470.138 483.431 468.525 482.171C466.97 480.882 465.504 479.563 464.302 478.245C463.07 476.956 462.015 475.666 461.164 474.494C460.255 473.322 459.639 472.238 459.082 471.33C458.026 469.513 457.616 468.371 457.616 468.371L457.264 468.517L457.235 468.459Z" fill="black"/>
<path d="M445.798 511.472C445.798 517.859 450.959 523.016 457.352 523.016C463.745 523.016 468.906 517.859 468.906 511.472C468.906 505.084 463.745 499.927 457.352 499.927C450.959 499.927 445.798 505.084 445.798 511.472Z" fill="black"/>
<path d="M404.303 457.822C404.303 457.822 396.503 457.852 384.773 458.936C378.908 459.463 372.075 460.166 364.773 461.309C357.442 462.54 349.641 464.151 341.841 465.206C337.941 465.704 334.04 466.466 330.199 467.228C326.357 468.019 322.574 468.81 318.909 469.425C311.578 470.715 304.745 470.773 298.909 470.246C293.044 469.748 288.176 467.374 284.745 464.913C283.044 463.712 281.695 462.393 280.786 461.514C279.877 460.547 279.379 459.932 279.379 459.932C278.499 458.467 278.47 456.885 279.379 455.215C279.379 455.215 279.877 454.599 280.786 453.632C281.695 452.724 283.044 451.406 284.745 450.234C288.147 447.772 293.044 445.399 298.909 444.901C304.774 444.403 311.607 444.432 318.909 445.721C322.574 446.337 326.357 447.128 330.199 447.919C334.04 448.651 337.941 449.413 341.841 449.941C349.641 450.995 357.442 452.607 364.773 453.838C372.104 454.98 378.937 455.683 384.773 456.211C396.473 457.295 404.303 457.324 404.303 457.324V457.852V457.822Z" fill="black"/>
<path d="M377.764 444.813C377.764 444.813 377.441 444.754 376.855 444.608C376.268 444.461 375.389 444.285 374.304 443.992C373.219 443.729 371.899 443.319 370.345 442.908C368.849 442.41 367.09 441.971 365.242 441.297C363.365 440.682 361.371 439.949 359.231 439.099C357.09 438.279 354.89 437.253 352.515 436.286C350.228 435.173 347.677 434.206 345.331 432.77C344.128 432.096 342.897 431.423 341.694 430.69C340.521 429.928 339.436 429.02 338.293 428.17C335.976 426.5 333.835 424.595 331.606 422.72L329.935 421.314L328.41 419.79C327.413 418.765 326.416 417.739 325.478 416.684C324.48 415.659 323.718 414.545 323.014 413.403C322.31 412.26 321.636 411.117 321.049 410.004C319.759 407.777 319.202 405.433 318.616 403.294C318.146 401.126 317.853 399.075 318.322 397.17C318.674 395.266 319.319 393.566 320.023 392.189C320.786 390.783 321.519 389.698 322.164 388.937C322.838 388.175 323.249 387.765 323.249 387.765C324.451 387.12 325.712 386.886 327.032 387.12C327.032 387.12 327.56 387.354 328.527 387.765C329.407 388.175 330.58 388.819 331.812 389.611C333.014 390.402 334.275 391.369 335.331 392.541C336.328 393.713 337.559 394.914 338.263 396.408C338.996 397.903 339.583 399.573 340.404 401.243C340.756 402.093 341.108 403.001 341.372 403.968C341.636 404.935 341.9 405.931 342.281 406.927C342.633 407.923 342.897 408.978 343.219 410.062L343.688 411.703L344.333 413.285C345.243 415.395 346.093 417.681 347.471 419.585L349.377 422.632C350.081 423.599 350.785 424.595 351.489 425.592C352.808 427.672 354.509 429.342 356.034 431.217C357.706 432.829 359.377 434.47 361.137 435.73C362.016 436.374 362.867 437.019 363.688 437.634C364.538 438.22 365.389 438.718 366.21 439.216C367.823 440.271 369.406 441.004 370.785 441.736C372.192 442.381 373.453 442.938 374.509 443.289C376.591 444.11 377.852 444.344 377.852 444.344L377.764 444.754V444.813Z" fill="black"/>
<path d="M377.881 470.803C377.881 470.803 376.62 471.066 374.538 471.857C373.482 472.209 372.222 472.795 370.814 473.41C369.436 474.143 367.852 474.875 366.239 475.93C365.418 476.458 364.568 476.956 363.717 477.512C362.896 478.128 362.046 478.743 361.166 479.417C359.407 480.677 357.764 482.318 356.063 483.929C354.539 485.775 352.838 487.475 351.518 489.555C350.814 490.551 350.111 491.547 349.407 492.514L347.501 495.562C346.122 497.466 345.243 499.752 344.363 501.861L343.718 503.443L343.248 505.084C342.926 506.168 342.633 507.223 342.31 508.219C341.929 509.186 341.665 510.183 341.401 511.179C341.108 512.146 340.785 513.054 340.433 513.904C339.612 515.574 339.026 517.273 338.293 518.738C337.589 520.233 336.357 521.434 335.36 522.606C334.304 523.749 333.073 524.716 331.841 525.536C330.58 526.327 329.436 526.972 328.557 527.382C327.589 527.792 327.061 528.027 327.061 528.027C325.8 528.232 324.539 528.027 323.278 527.382C323.278 527.382 322.868 526.972 322.193 526.21C321.577 525.448 320.815 524.364 320.052 522.958C319.349 521.551 318.703 519.881 318.352 517.977C317.912 516.072 318.176 514.021 318.645 511.853C319.202 509.714 319.789 507.37 321.079 505.143C321.665 504 322.34 502.887 323.044 501.744C323.747 500.601 324.539 499.488 325.507 498.462C326.445 497.407 327.442 496.382 328.439 495.356L329.964 493.833L331.636 492.426C333.864 490.551 336.005 488.647 338.322 486.976C339.466 486.127 340.551 485.248 341.724 484.457C342.926 483.724 344.158 483.021 345.36 482.376C347.706 480.97 350.257 479.974 352.544 478.86C354.92 477.893 357.119 476.868 359.26 476.047C361.401 475.227 363.395 474.465 365.271 473.85C367.119 473.176 368.878 472.736 370.374 472.238C371.899 471.828 373.219 471.418 374.333 471.154C375.418 470.861 376.298 470.685 376.884 470.539C377.471 470.392 377.793 470.334 377.793 470.334L377.881 470.744V470.803Z" fill="black"/>
<path d="M510.371 457.822C510.371 457.822 518.172 457.852 529.902 458.936C535.767 459.463 542.599 460.166 549.901 461.309C557.233 462.54 565.033 464.151 572.833 465.206C576.734 465.704 580.634 466.466 584.475 467.228C588.317 468.019 592.1 468.81 595.766 469.425C603.097 470.715 609.93 470.773 615.765 470.246C621.63 469.748 626.498 467.374 629.929 464.913C631.63 463.712 632.979 462.393 633.888 461.514C634.797 460.547 635.296 459.932 635.296 459.932C636.351 458.35 636.381 456.768 635.296 455.215C635.296 455.215 634.797 454.599 633.888 453.632C632.979 452.724 631.63 451.406 629.929 450.234C626.527 447.772 621.63 445.399 615.765 444.901C609.9 444.403 603.068 444.432 595.766 445.721C592.1 446.337 588.317 447.128 584.475 447.919C580.634 448.651 576.734 449.413 572.833 449.941C565.033 450.995 557.233 452.607 549.901 453.838C542.57 454.98 535.737 455.683 529.902 456.211C518.201 457.295 510.371 457.324 510.371 457.324V457.852V457.822Z" fill="black"/>
<path d="M536.91 444.813C536.91 444.813 537.233 444.754 537.82 444.608C538.406 444.461 539.286 444.285 540.371 443.992C541.456 443.729 542.775 443.319 544.33 442.908C545.825 442.41 547.585 441.971 549.432 441.297C551.309 440.682 553.303 439.949 555.444 439.099C557.585 438.279 559.784 437.253 562.159 436.286C564.447 435.173 566.998 434.206 569.344 432.77C570.546 432.096 571.778 431.423 572.98 430.69C574.153 429.928 575.238 429.02 576.382 428.17C578.699 426.5 580.839 424.595 583.068 422.72L584.739 421.314L586.264 419.79C587.261 418.765 588.258 417.739 589.197 416.684C590.194 415.659 590.956 414.545 591.66 413.403C592.364 412.26 593.038 411.117 593.625 410.004C594.915 407.777 595.472 405.433 596.059 403.294C596.528 401.126 596.821 399.075 596.352 397.17C596 395.266 595.355 393.566 594.651 392.189C593.889 390.783 593.156 389.698 592.511 388.937C591.836 388.175 591.426 387.765 591.426 387.765C590.487 387.12 589.226 386.886 587.643 387.12C587.643 387.12 587.115 387.354 586.147 387.765C585.267 388.175 584.094 388.819 582.863 389.611C581.66 390.402 580.399 391.369 579.344 392.541C578.347 393.713 577.115 394.914 576.411 396.408C575.678 397.903 575.092 399.573 574.27 401.243C573.919 402.093 573.567 403.001 573.303 403.968C573.039 404.935 572.775 405.931 572.394 406.927C572.042 407.923 571.778 408.978 571.455 410.062L570.986 411.703L570.341 413.285C569.432 415.395 568.581 417.681 567.203 419.585L565.297 422.632C564.593 423.599 563.889 424.595 563.186 425.592C561.866 427.672 560.165 429.342 558.64 431.217C556.969 432.829 555.297 434.47 553.538 435.73C552.658 436.374 551.808 437.019 550.986 437.634C550.136 438.22 549.286 438.718 548.464 439.216C546.852 440.271 545.268 441.004 543.89 441.736C542.482 442.381 541.221 442.938 540.166 443.289C538.083 444.11 536.822 444.344 536.822 444.344L536.91 444.754V444.813Z" fill="black"/>
<path d="M536.822 470.803C536.822 470.803 538.083 471.066 540.166 471.857C541.221 472.209 542.482 472.795 543.89 473.41C545.268 474.143 546.852 474.875 548.464 475.93C549.286 476.458 550.136 476.956 550.986 477.512C551.808 478.128 552.658 478.743 553.538 479.417C555.297 480.677 556.939 482.318 558.64 483.929C560.165 485.775 561.866 487.475 563.186 489.555C563.889 490.551 564.593 491.547 565.297 492.514L567.203 495.562C568.581 497.466 569.461 499.752 570.341 501.861L570.986 503.443L571.455 505.084C571.778 506.168 572.071 507.223 572.394 508.219C572.775 509.186 573.039 510.183 573.303 511.179C573.596 512.146 573.919 513.054 574.27 513.904C575.092 515.574 575.678 517.273 576.411 518.738C577.115 520.233 578.347 521.434 579.344 522.606C580.399 523.749 581.66 524.716 582.863 525.536C584.124 526.327 585.267 526.972 586.147 527.382C587.115 527.792 587.643 528.027 587.643 528.027C589.08 528.232 590.34 528.027 591.426 527.382C591.426 527.382 591.836 526.972 592.511 526.21C593.126 525.448 593.889 524.364 594.651 522.958C595.355 521.551 596 519.881 596.352 517.977C596.792 516.072 596.528 514.021 596.059 511.853C595.502 509.714 594.915 507.37 593.625 505.143C593.038 504 592.364 502.887 591.66 501.744C590.956 500.601 590.165 499.488 589.197 498.462C588.258 497.407 587.261 496.382 586.264 495.356L584.739 493.833L583.068 492.426C580.839 490.551 578.699 488.647 576.382 486.976C575.238 486.127 574.153 485.248 572.98 484.457C571.778 483.724 570.546 483.021 569.344 482.376C566.998 480.97 564.447 479.974 562.159 478.86C559.784 477.893 557.585 476.868 555.444 476.047C553.303 475.227 551.309 474.465 549.432 473.85C547.585 473.176 545.825 472.736 544.33 472.238C542.805 471.828 541.485 471.418 540.371 471.154C539.286 470.861 538.406 470.685 537.82 470.539C537.233 470.392 536.91 470.334 536.91 470.334L536.822 470.744V470.803Z" fill="black"/>
<path d="M457.059 331.332C457.059 331.332 457.059 329.984 456.941 327.61C456.912 326.438 456.824 324.973 456.707 323.332C456.589 321.692 456.501 319.816 456.296 317.795C455.944 313.722 455.446 309.004 454.654 303.906C454.214 301.357 453.745 298.749 453.276 296.083C452.748 293.417 452.396 290.721 451.956 287.996C451.545 285.3 451.106 282.575 450.578 279.909C450.079 277.243 449.493 274.606 449.082 272.086C448.173 267.017 448.144 262.27 448.496 258.197C448.848 254.124 450.49 250.755 452.191 248.381C453.07 247.209 453.891 246.272 454.566 245.627C455.27 244.983 455.68 244.66 455.68 244.66C456.824 244.074 457.938 243.986 458.935 244.66C458.935 244.66 459.317 245.012 460.05 245.627C460.695 246.272 461.545 247.18 462.425 248.381C464.126 250.755 465.768 254.124 466.12 258.197C466.472 262.27 466.443 266.987 465.534 272.086C465.123 274.635 464.536 277.243 464.038 279.909C463.51 282.575 463.041 285.271 462.66 287.996C462.22 290.692 461.868 293.417 461.34 296.083C460.871 298.749 460.402 301.386 459.962 303.906C459.17 308.975 458.671 313.722 458.32 317.795C458.114 319.816 458.026 321.692 457.909 323.332C457.792 324.973 457.704 326.409 457.674 327.61C457.557 329.984 457.557 331.332 457.557 331.332H457.205H457.059Z" fill="black"/>
<path d="M449.815 321.369C449.815 321.369 449.639 320.608 449.053 319.348C448.525 318.058 447.557 316.33 446.12 314.425C445.446 313.458 444.595 312.491 443.657 311.524C442.748 310.528 441.634 309.62 440.49 308.741C439.2 307.979 438.027 307.1 436.619 306.514L434.625 305.547C433.921 305.283 433.276 304.99 432.602 304.697C431.341 304.082 429.874 303.818 428.525 303.525C427.177 303.232 425.74 303.291 424.508 303.115C423.276 302.969 422.074 302.939 421.048 302.588C420.051 302.207 419.024 302.002 418.144 301.591C417.235 301.211 416.532 300.419 415.798 299.716C415.095 298.984 414.479 297.988 413.951 297.108C413.423 296.171 413.013 295.263 412.69 294.589C412.397 293.827 412.221 293.417 412.221 293.417C411.81 292.362 411.84 291.278 412.455 290.164C412.455 290.164 412.69 289.813 413.13 289.139C413.57 288.553 414.244 287.762 415.095 287C415.945 286.297 417.03 285.505 418.232 285.007C419.435 284.451 420.813 284.363 422.25 284.48C423.687 284.685 425.241 284.861 426.766 285.564C428.291 286.238 429.904 286.97 431.341 288.172C432.748 289.402 434.185 290.633 435.446 292.098C436.707 293.563 438.027 294.882 439.141 296.376C439.728 297.108 440.314 297.812 440.842 298.544C441.34 299.306 441.78 300.097 442.25 300.888C443.188 302.412 443.833 304.023 444.537 305.518C445.856 308.506 447 311.173 447.792 313.517C448.642 315.832 449.17 317.795 449.581 319.143C449.933 320.49 450.167 321.282 450.167 321.282L449.815 321.369Z" fill="black"/>
<path d="M464.478 321.281C464.478 321.281 464.683 320.49 465.064 319.142C465.475 317.795 466.003 315.861 466.853 313.517C467.645 311.173 468.789 308.506 470.108 305.518C470.812 304.053 471.457 302.412 472.396 300.888C472.835 300.097 473.305 299.306 473.803 298.544C474.331 297.812 474.917 297.108 475.504 296.376C476.618 294.882 477.938 293.563 479.199 292.098C480.46 290.633 481.897 289.432 483.304 288.172C484.741 286.97 486.354 286.238 487.879 285.564C489.404 284.861 490.988 284.685 492.395 284.48C493.832 284.333 495.21 284.421 496.413 285.007C497.615 285.476 498.7 286.296 499.55 287C500.401 287.761 501.075 288.523 501.515 289.139C501.955 289.813 502.19 290.164 502.19 290.164C502.776 291.307 502.835 292.391 502.424 293.417C502.424 293.417 502.278 293.827 501.955 294.589C501.662 295.292 501.222 296.171 500.694 297.108C500.166 297.987 499.55 299.013 498.847 299.716C498.114 300.419 497.38 301.21 496.501 301.591C495.621 302.002 494.595 302.207 493.598 302.588C492.6 302.939 491.369 302.969 490.137 303.115C488.935 303.291 487.469 303.232 486.12 303.525C484.771 303.818 483.304 304.082 482.043 304.697C481.369 304.961 480.724 305.283 480.02 305.547L478.026 306.514C476.618 307.129 475.445 307.979 474.155 308.741C473.011 309.62 471.897 310.528 470.988 311.524C470.05 312.491 469.199 313.458 468.525 314.425C467.088 316.33 466.149 318.058 465.592 319.348C465.006 320.607 464.83 321.369 464.83 321.369L464.478 321.281Z" fill="black"/>
<path d="M299.965 431.686C306.443 431.686 311.695 426.439 311.695 419.966C311.695 413.493 306.443 408.246 299.965 408.246C293.487 408.246 288.235 413.493 288.235 419.966C288.235 426.439 293.487 431.686 299.965 431.686Z" fill="black"/>
<path d="M299.965 506.403C306.443 506.403 311.695 501.155 311.695 494.683C311.695 488.21 306.443 482.962 299.965 482.962C293.487 482.962 288.235 488.21 288.235 494.683C288.235 501.155 293.487 506.403 299.965 506.403Z" fill="black"/>
<path d="M243.433 458.08L257.948 472.583L272.463 458.08L257.948 443.577L243.433 458.08Z" fill="black"/>
<path d="M611.454 431.686C617.933 431.686 623.184 426.439 623.184 419.966C623.184 413.493 617.933 408.246 611.454 408.246C604.976 408.246 599.724 413.493 599.724 419.966C599.724 426.439 604.976 431.686 611.454 431.686Z" fill="black"/>
<path d="M611.454 506.403C617.933 506.403 623.184 501.155 623.184 494.683C623.184 488.21 617.933 482.962 611.454 482.962C604.976 482.962 599.724 488.21 599.724 494.683C599.724 501.155 604.976 506.403 611.454 506.403Z" fill="black"/>
<path d="M653.488 443.555L638.973 458.058L653.488 472.561L668.003 458.058L653.488 443.555Z" fill="black"/>
<path d="M703.623 208.767C671.688 206.921 611.249 188.081 611.249 129.89C611.249 113.013 616.616 99.0362 626.762 89.4549C635.442 81.2801 646.908 77.178 659.137 77.8519C668.492 78.3793 677.054 82.54 683.301 89.5135C689.518 96.4871 692.655 105.482 692.127 114.829C691.277 129.626 678.55 140.936 663.741 140.116C658.638 139.823 654.093 137.654 650.691 134.343C658.873 134.109 665.442 127.429 665.442 119.224C665.442 111.02 658.668 104.076 650.281 104.076C641.894 104.076 635.12 110.844 635.12 119.224C635.12 120.074 635.208 120.924 635.354 121.744C636.322 136.424 648.14 148.466 663.213 149.345C683.154 150.488 700.221 135.252 701.365 115.357C702.039 103.549 698.08 92.1799 690.192 83.3604C682.304 74.5409 671.483 69.2961 659.665 68.6222C644.914 67.7725 630.956 72.7829 620.428 82.7158C608.551 93.9086 602.041 110.639 602.041 129.86C602.041 194.966 668.169 215.946 703.124 217.967C703.212 217.967 703.3 217.967 703.388 217.967C705.822 217.967 707.846 216.063 707.992 213.602C708.139 211.053 706.203 208.884 703.652 208.738L703.623 208.767Z" fill="black"/>
<path d="M703.183 208.767C735.118 206.921 795.557 188.081 795.557 129.89C795.557 113.013 790.19 99.0362 780.044 89.4549C771.363 81.2801 759.897 77.178 747.669 77.8519C738.314 78.3793 729.751 82.54 723.505 89.5135C717.288 96.4871 714.15 105.482 714.678 114.829C715.529 129.626 728.256 140.936 743.065 140.116C748.167 139.823 752.713 137.654 756.114 134.343C747.933 134.109 741.364 127.429 741.364 119.224C741.364 111.02 748.138 104.076 756.525 104.076C764.912 104.076 771.686 110.844 771.686 119.224C771.686 120.074 771.598 120.924 771.451 121.744C770.484 136.424 758.666 148.466 743.593 149.345C723.652 150.488 706.585 135.252 705.441 115.357C704.766 103.549 708.725 92.1799 716.614 83.3604C724.502 74.5409 735.323 69.2961 747.141 68.6222C761.891 67.7725 775.85 72.7829 786.378 82.7158C798.254 93.9086 804.765 110.639 804.765 129.86C804.765 194.966 738.637 215.946 703.681 217.967C703.594 217.967 703.506 217.967 703.418 217.967C700.984 217.967 698.96 216.063 698.814 213.602C698.667 211.053 700.602 208.884 703.154 208.738L703.183 208.767Z" fill="black"/>
<path d="M703.623 218.055C671.688 219.901 611.249 238.742 611.249 296.933C611.249 313.81 616.616 327.786 626.762 337.368C635.442 345.542 646.908 349.645 659.137 348.971C668.492 348.443 677.054 344.283 683.301 337.309C689.518 330.335 692.655 321.34 692.127 311.993C691.277 297.196 678.55 285.886 663.741 286.707C658.638 287 654.093 289.168 650.691 292.45C658.873 292.684 665.442 299.365 665.442 307.569C665.442 315.773 658.668 322.717 650.281 322.717C641.894 322.717 635.12 315.949 635.12 307.569C635.12 306.719 635.208 305.869 635.354 305.049C636.322 290.369 648.14 278.327 663.213 277.448C683.154 276.276 700.221 291.541 701.365 311.436C702.039 323.245 698.08 334.613 690.192 343.433C682.304 352.252 671.483 357.497 659.665 358.171C644.914 359.021 630.956 354.01 620.428 344.077C608.551 332.885 602.041 316.154 602.041 296.933C602.041 231.827 668.169 210.847 703.124 208.826C703.212 208.826 703.3 208.826 703.388 208.826C705.822 208.826 707.846 210.73 707.992 213.162C708.139 215.711 706.203 217.88 703.652 218.026L703.623 218.055Z" fill="black"/>
<path d="M703.183 218.055C735.118 219.901 795.557 238.742 795.557 296.933C795.557 313.81 790.19 327.786 780.044 337.368C771.363 345.542 759.897 349.645 747.669 348.971C738.314 348.443 729.751 344.283 723.505 337.309C717.288 330.335 714.15 321.34 714.678 311.993C715.529 297.196 728.256 285.886 743.065 286.707C748.167 287 752.713 289.168 756.114 292.45C747.933 292.684 741.364 299.365 741.364 307.569C741.364 315.773 748.138 322.717 756.525 322.717C764.912 322.717 771.686 315.949 771.686 307.569C771.686 306.719 771.598 305.869 771.451 305.049C770.484 290.369 758.666 278.327 743.593 277.448C723.652 276.276 706.585 291.541 705.441 311.436C704.766 323.245 708.725 334.613 716.614 343.433C724.502 352.252 735.323 357.497 747.141 358.171C761.891 359.021 775.85 354.01 786.378 344.077C798.254 332.885 804.765 316.154 804.765 296.933C804.765 231.827 738.637 210.847 703.681 208.826C703.594 208.826 703.506 208.826 703.418 208.826C700.984 208.826 698.96 210.73 698.814 213.162C698.667 215.711 700.602 217.88 703.154 218.026L703.183 218.055Z" fill="black"/>
<path d="M703.183 202.673C703.183 202.673 702.772 201.53 701.717 199.713C701.189 198.805 700.544 197.691 699.635 196.549C698.784 195.347 697.729 194.087 696.497 192.798C695.295 191.48 693.828 190.19 692.274 188.872C690.661 187.612 688.96 186.323 686.996 185.297C685.089 184.184 682.949 183.363 680.867 182.484C678.755 181.664 676.527 181.049 674.445 180.287C672.245 179.759 670.046 179.232 667.846 178.998C665.588 178.88 663.477 178.646 661.424 178.587C659.342 178.587 657.377 178.412 655.589 178.06C653.741 177.855 652.011 177.562 650.427 177.152C649.636 176.947 648.873 176.654 648.169 176.331C647.436 176.009 646.732 175.716 646.087 175.335C644.768 174.573 643.624 173.636 642.627 172.698C641.659 171.731 640.867 170.823 640.31 170.12C639.753 169.328 639.46 168.918 639.46 168.918V165.49C639.46 165.49 639.782 165.109 640.34 164.377C640.926 163.732 641.806 162.882 642.95 162.003C644.093 161.154 645.501 160.333 647.143 159.718C647.964 159.425 648.815 159.132 649.753 158.956C650.662 158.839 651.63 158.78 652.656 158.839C654.65 158.956 656.85 159.102 659.108 159.542C661.366 160.128 663.682 160.948 666.028 161.974C668.345 163.058 670.632 164.552 672.89 165.9C675.148 167.307 677.318 169.006 679.547 170.413C681.658 172.083 683.741 173.665 685.559 175.54C687.347 177.445 689.136 179.203 690.573 181.166C692.157 182.953 693.506 184.858 694.796 186.557C695.47 187.378 695.998 188.315 696.556 189.165C697.113 190.015 697.67 190.776 698.139 191.597C701.981 197.955 703.564 202.555 703.564 202.555L703.212 202.673H703.183Z" fill="black"/>
<path d="M703.242 202.555C703.242 202.555 704.825 197.955 708.667 191.597C709.107 190.777 709.664 189.985 710.25 189.165C710.807 188.345 711.335 187.407 712.01 186.557C713.329 184.858 714.649 182.953 716.233 181.166C717.699 179.203 719.458 177.445 721.247 175.54C723.065 173.665 725.177 172.083 727.259 170.413C729.487 169.035 731.628 167.307 733.916 165.9C736.203 164.552 738.461 163.058 740.778 161.974C743.094 160.978 745.44 160.128 747.698 159.542C749.956 159.073 752.126 158.927 754.15 158.839C755.147 158.81 756.115 158.839 757.053 158.956C757.962 159.132 758.842 159.396 759.663 159.718C761.305 160.333 762.713 161.154 763.856 162.003C765 162.882 765.88 163.732 766.466 164.377C767.053 165.109 767.346 165.49 767.346 165.49V168.918C767.346 168.918 767.053 169.328 766.496 170.12C765.938 170.823 765.147 171.731 764.179 172.698C763.211 173.636 762.038 174.573 760.719 175.335C760.073 175.716 759.37 176.009 758.636 176.331C757.903 176.683 757.17 176.947 756.378 177.152C754.795 177.562 753.035 177.855 751.217 178.06C749.428 178.412 747.464 178.587 745.382 178.587C743.299 178.646 741.217 178.88 738.959 178.998C736.76 179.232 734.59 179.73 732.361 180.287C730.279 181.049 728.051 181.664 725.939 182.484C723.857 183.334 721.716 184.184 719.81 185.297C717.845 186.323 716.145 187.612 714.532 188.872C712.978 190.161 711.511 191.48 710.309 192.798C709.077 194.087 708.022 195.377 707.171 196.549C706.262 197.721 705.646 198.805 705.089 199.713C704.033 201.53 703.623 202.673 703.623 202.673L703.271 202.555H703.242Z" fill="black"/>
<path d="M691.805 159.542C691.805 153.154 696.966 147.998 703.359 147.998C709.752 147.998 714.913 153.154 714.913 159.542C714.913 165.93 709.752 171.086 703.359 171.086C696.966 171.086 691.805 165.93 691.805 159.542Z" fill="black"/>
<path d="M703.183 224.15C703.183 224.15 702.772 225.293 701.717 227.109C701.189 228.018 700.544 229.131 699.635 230.274C698.784 231.475 697.729 232.735 696.497 234.024C695.295 235.343 693.828 236.661 692.274 237.951C690.661 239.21 688.96 240.5 686.996 241.525C685.089 242.639 682.949 243.459 680.867 244.338C678.755 245.158 676.527 245.774 674.445 246.536C672.245 247.063 670.046 247.59 667.846 247.825C665.588 247.942 663.477 248.176 661.424 248.235C659.342 248.235 657.377 248.411 655.589 248.762C653.741 248.968 652.011 249.261 650.427 249.671C649.636 249.876 648.873 250.169 648.169 250.491C647.436 250.813 646.732 251.106 646.087 251.487C644.768 252.249 643.624 253.187 642.627 254.095C641.659 255.062 640.867 255.97 640.31 256.674C639.753 257.465 639.46 257.875 639.46 257.875V261.303C639.46 261.303 639.782 261.684 640.34 262.417C640.926 263.09 641.806 263.911 642.95 264.79C644.093 265.64 645.501 266.46 647.143 267.075C647.964 267.368 648.815 267.661 649.753 267.837C650.662 267.954 651.63 268.013 652.656 267.954C654.65 267.837 656.85 267.691 659.108 267.251C661.366 266.665 663.682 265.845 666.028 264.819C668.345 263.735 670.632 262.241 672.89 260.893C675.148 259.486 677.318 257.787 679.547 256.381C681.658 254.71 683.741 253.128 685.559 251.253C687.347 249.348 689.136 247.59 690.573 245.627C692.157 243.84 693.506 241.935 694.796 240.236C695.47 239.416 695.998 238.478 696.556 237.658C697.113 236.808 697.67 236.046 698.139 235.226C701.981 228.867 703.564 224.267 703.564 224.267L703.212 224.121L703.183 224.15Z" fill="black"/>
<path d="M703.242 224.267C703.242 224.267 704.825 228.867 708.667 235.226C709.107 236.046 709.664 236.837 710.25 237.657C710.807 238.478 711.335 239.416 712.01 240.236C713.329 241.935 714.649 243.84 716.233 245.627C717.699 247.59 719.458 249.348 721.247 251.253C723.065 253.128 725.177 254.71 727.259 256.381C729.487 257.758 731.628 259.486 733.916 260.893C736.203 262.241 738.461 263.735 740.778 264.819C743.094 265.815 745.44 266.665 747.698 267.251C749.956 267.72 752.126 267.866 754.15 267.954C755.147 267.984 756.115 267.954 757.053 267.837C757.962 267.661 758.842 267.398 759.663 267.075C761.305 266.46 762.713 265.64 763.856 264.79C765 263.911 765.88 263.09 766.466 262.417C767.053 261.684 767.346 261.303 767.346 261.303V257.875C767.346 257.875 767.053 257.465 766.496 256.674C765.938 255.97 765.147 255.062 764.179 254.095C763.211 253.158 762.038 252.22 760.719 251.487C760.073 251.106 759.37 250.813 758.636 250.491C757.903 250.14 757.17 249.876 756.378 249.671C754.795 249.261 753.035 248.968 751.217 248.762C749.428 248.411 747.464 248.235 745.382 248.235C743.299 248.176 741.217 247.942 738.959 247.825C736.76 247.59 734.59 247.092 732.361 246.536C730.279 245.774 728.051 245.158 725.939 244.338C723.857 243.488 721.716 242.639 719.81 241.525C717.845 240.5 716.145 239.21 714.532 237.95C712.978 236.661 711.511 235.343 710.309 234.024C709.077 232.735 708.022 231.446 707.171 230.274C706.262 229.102 705.646 228.018 705.089 227.109C704.033 225.293 703.623 224.15 703.623 224.15L703.271 224.296L703.242 224.267Z" fill="black"/>
<path d="M691.805 267.31C691.805 273.697 696.966 278.854 703.359 278.854C709.752 278.854 714.913 273.697 714.913 267.31C714.913 260.922 709.752 255.765 703.359 255.765C696.966 255.765 691.805 260.922 691.805 267.31Z" fill="black"/>
<path d="M650.31 213.66C650.31 213.66 642.51 213.69 630.78 214.774C624.915 215.301 618.082 216.004 610.78 217.147C603.449 218.378 595.648 219.989 587.848 221.044C583.948 221.542 580.048 222.304 576.206 223.066C572.364 223.857 568.581 224.648 564.916 225.263C557.585 226.553 550.752 226.611 544.916 226.113C539.051 225.615 534.183 223.242 530.752 220.78C529.051 219.579 527.702 218.26 526.793 217.381C525.884 216.415 525.386 215.799 525.386 215.799C524.506 214.334 524.477 212.752 525.386 211.111C525.386 211.111 525.884 210.496 526.793 209.529C527.702 208.621 529.051 207.302 530.752 206.13C534.154 203.669 539.051 201.295 544.916 200.797C550.781 200.299 557.614 200.328 564.916 201.618C568.581 202.233 572.364 203.024 576.206 203.815C580.048 204.548 583.948 205.31 587.848 205.837C595.648 206.892 603.449 208.503 610.78 209.734C618.111 210.877 624.944 211.58 630.78 212.107C642.48 213.191 650.31 213.221 650.31 213.221V213.748V213.66Z" fill="black"/>
<path d="M623.771 200.621C623.771 200.621 623.448 200.563 622.862 200.416C622.275 200.27 621.396 200.094 620.311 199.801C619.196 199.537 617.906 199.127 616.352 198.717C614.856 198.219 613.097 197.779 611.249 197.105C609.372 196.519 607.378 195.758 605.238 194.908C603.097 194.087 600.898 193.062 598.522 192.095C596.235 190.982 593.684 190.015 591.338 188.579C590.135 187.905 588.904 187.231 587.701 186.499C586.528 185.737 585.443 184.828 584.3 183.979C581.983 182.309 579.842 180.404 577.614 178.529L575.942 177.122L574.417 175.599C573.42 174.573 572.423 173.548 571.485 172.493C570.488 171.467 569.725 170.354 569.021 169.211C568.317 168.069 567.643 166.926 567.057 165.812C565.766 163.586 565.209 161.241 564.623 159.103C564.153 156.934 563.86 154.883 564.329 152.979C564.681 151.074 565.326 149.375 566.03 147.998C566.793 146.591 567.526 145.507 568.171 144.745C568.845 143.983 569.256 143.573 569.256 143.573C570.458 142.929 571.719 142.694 573.039 142.929C573.039 142.929 573.567 143.163 574.534 143.573C575.414 143.983 576.587 144.628 577.819 145.419C579.021 146.21 580.282 147.177 581.338 148.349C582.335 149.521 583.567 150.723 584.27 152.217C585.003 153.711 585.59 155.381 586.411 157.051C586.763 157.901 587.115 158.809 587.408 159.776C587.672 160.743 587.936 161.74 588.317 162.736C588.669 163.732 588.933 164.787 589.256 165.871L589.725 167.512L590.37 169.094C591.279 171.204 592.129 173.489 593.508 175.394L595.414 178.441C596.118 179.408 596.821 180.404 597.525 181.4C598.845 183.481 600.546 185.151 602.071 187.026C603.742 188.638 605.414 190.278 607.173 191.538C608.053 192.183 608.903 192.828 609.724 193.443C610.575 194.029 611.425 194.527 612.246 195.025C613.859 196.08 615.443 196.812 616.821 197.545C618.229 198.19 619.49 198.746 620.545 199.098C622.627 199.918 623.888 200.153 623.888 200.153L623.8 200.563L623.771 200.621Z" fill="black"/>
<path d="M623.888 226.64C623.888 226.64 622.627 226.904 620.545 227.695C619.49 228.047 618.229 228.633 616.821 229.248C615.443 229.981 613.859 230.713 612.246 231.768C611.425 232.295 610.575 232.794 609.724 233.35C608.903 233.966 608.053 234.581 607.173 235.255C605.414 236.515 603.771 238.156 602.071 239.767C600.546 241.613 598.845 243.313 597.525 245.393C596.821 246.389 596.118 247.385 595.414 248.352L593.508 251.399C592.129 253.304 591.25 255.589 590.37 257.699L589.725 259.281L589.256 260.922C588.933 262.006 588.64 263.061 588.317 264.057C587.936 265.024 587.672 266.02 587.408 267.017C587.115 267.984 586.792 268.892 586.411 269.742C585.59 271.412 585.003 273.111 584.27 274.576C583.567 276.071 582.335 277.272 581.338 278.444C580.282 279.587 579.05 280.554 577.819 281.374C576.558 282.165 575.414 282.78 574.534 283.22C573.567 283.63 573.039 283.865 573.039 283.865C571.778 284.07 570.517 283.865 569.256 283.22C569.256 283.22 568.845 282.81 568.171 282.077C567.555 281.315 566.793 280.231 566.03 278.825C565.326 277.418 564.681 275.748 564.329 273.844C563.86 271.939 564.153 269.888 564.623 267.72C565.18 265.581 565.766 263.237 567.057 261.01C567.643 259.867 568.317 258.725 569.021 257.611C569.725 256.468 570.517 255.355 571.485 254.33C572.423 253.275 573.42 252.249 574.417 251.224L575.942 249.7L577.614 248.294C579.842 246.418 581.983 244.514 584.3 242.844C585.443 241.994 586.528 241.115 587.701 240.324C588.904 239.591 590.135 238.888 591.338 238.243C593.684 236.837 596.235 235.841 598.522 234.727C600.898 233.761 603.097 232.735 605.238 231.915C607.378 231.094 609.372 230.332 611.249 229.717C613.097 229.043 614.856 228.604 616.352 228.105C617.877 227.695 619.196 227.285 620.311 227.021C621.396 226.728 622.275 226.553 622.862 226.406C623.448 226.26 623.771 226.201 623.771 226.201L623.859 226.611L623.888 226.64Z" fill="black"/>
<path d="M756.378 213.66C756.378 213.66 764.179 213.69 775.909 214.774C781.774 215.301 788.607 216.004 795.908 217.147C803.24 218.378 811.04 219.989 818.841 221.044C822.741 221.542 826.641 222.304 830.483 223.066C834.324 223.857 838.107 224.648 841.773 225.263C849.104 226.553 855.937 226.611 861.772 226.113C867.637 225.615 872.505 223.242 875.936 220.78C877.637 219.579 878.986 218.26 879.895 217.381C880.804 216.415 881.303 215.799 881.303 215.799C882.358 214.217 882.388 212.635 881.303 211.111C881.303 211.111 880.804 210.496 879.895 209.529C878.986 208.621 877.637 207.302 875.936 206.13C872.535 203.669 867.637 201.295 861.772 200.797C855.907 200.299 849.075 200.328 841.773 201.618C838.107 202.233 834.324 203.024 830.483 203.815C826.641 204.548 822.741 205.31 818.841 205.837C811.04 206.892 803.24 208.503 795.908 209.734C788.577 210.877 781.744 211.58 775.909 212.107C764.208 213.191 756.378 213.221 756.378 213.221V213.748V213.66Z" fill="black"/>
<path d="M782.918 200.621C782.918 200.621 783.24 200.563 783.827 200.416C784.413 200.27 785.293 200.094 786.378 199.801C787.463 199.537 788.783 199.127 790.337 198.717C791.832 198.219 793.592 197.779 795.439 197.105C797.316 196.519 799.31 195.758 801.451 194.908C803.592 194.087 805.791 193.062 808.166 192.095C810.454 190.982 813.005 190.015 815.351 188.579C816.553 187.905 817.785 187.231 818.987 186.499C820.16 185.737 821.245 184.828 822.389 183.979C824.706 182.309 826.846 180.404 829.075 178.529L830.747 177.122L832.271 175.599C833.268 174.573 834.265 173.548 835.204 172.493C836.201 171.467 836.963 170.354 837.667 169.211C838.371 168.069 839.045 166.926 839.632 165.812C840.922 163.586 841.479 161.241 842.066 159.103C842.535 156.934 842.828 154.883 842.359 152.979C842.007 151.074 841.362 149.375 840.658 147.998C839.896 146.591 839.163 145.507 838.518 144.745C837.843 143.983 837.462 143.573 837.462 143.573C836.523 142.929 835.263 142.694 833.679 142.929C833.679 142.929 833.151 143.163 832.213 143.573C831.333 143.983 830.16 144.628 828.928 145.419C827.726 146.21 826.465 147.177 825.409 148.349C824.412 149.521 823.181 150.723 822.506 152.217C821.773 153.711 821.187 155.381 820.365 157.051C820.014 157.901 819.662 158.809 819.398 159.776C819.134 160.743 818.87 161.74 818.489 162.736C818.137 163.732 817.873 164.787 817.55 165.871L817.081 167.512L816.436 169.094C815.527 171.204 814.676 173.489 813.298 175.394L811.392 178.441C810.688 179.408 809.984 180.404 809.281 181.4C807.961 183.481 806.26 185.151 804.735 187.026C803.064 188.638 801.392 190.278 799.633 191.538C798.753 192.183 797.903 192.828 797.081 193.443C796.231 194.029 795.381 194.527 794.56 195.025C792.947 196.08 791.363 196.812 789.985 197.545C788.577 198.19 787.316 198.746 786.261 199.098C784.178 199.918 782.918 200.153 782.918 200.153L783.006 200.563L782.918 200.621Z" fill="black"/>
<path d="M782.83 226.64C782.83 226.64 784.091 226.904 786.173 227.695C787.228 228.047 788.489 228.633 789.897 229.248C791.275 229.981 792.888 230.713 794.472 231.768C795.293 232.295 796.143 232.794 796.993 233.35C797.815 233.966 798.665 234.581 799.545 235.255C801.304 236.515 802.947 238.156 804.647 239.767C806.172 241.613 807.873 243.313 809.193 245.393C809.896 246.389 810.6 247.385 811.304 248.352L813.21 251.399C814.588 253.304 815.468 255.589 816.348 257.699L816.993 259.281L817.462 260.922C817.785 262.006 818.078 263.061 818.401 264.057C818.782 265.024 819.046 266.02 819.31 267.017C819.603 267.984 819.926 268.892 820.278 269.742C821.099 271.412 821.685 273.111 822.418 274.576C823.122 276.071 824.354 277.272 825.321 278.444C826.377 279.587 827.638 280.554 828.84 281.374C830.101 282.165 831.245 282.78 832.125 283.22C833.093 283.63 833.591 283.865 833.591 283.865C835.028 284.07 836.289 283.865 837.374 283.22C837.374 283.22 837.785 282.81 838.43 282.077C839.045 281.315 839.808 280.231 840.57 278.825C841.274 277.418 841.919 275.748 842.271 273.844C842.711 271.939 842.447 269.888 841.978 267.72C841.421 265.581 840.834 263.237 839.544 261.01C838.958 259.867 838.283 258.725 837.579 257.611C836.875 256.468 836.084 255.355 835.116 254.33C834.178 253.275 833.18 252.249 832.183 251.224L830.659 249.7L828.987 248.294C826.758 246.418 824.618 244.514 822.301 242.844C821.157 241.994 820.072 241.115 818.899 240.324C817.697 239.591 816.465 238.888 815.263 238.243C812.917 236.837 810.366 235.841 808.078 234.727C805.703 233.761 803.504 232.735 801.363 231.915C799.222 231.094 797.228 230.332 795.351 229.717C793.504 229.043 791.744 228.604 790.249 228.105C788.724 227.695 787.404 227.285 786.29 227.021C785.205 226.728 784.325 226.553 783.739 226.406C783.152 226.26 782.83 226.201 782.83 226.201L782.742 226.611L782.83 226.64Z" fill="black"/>
<path d="M703.066 87.1402C703.066 87.1402 703.066 85.7923 702.948 83.419C702.919 82.2469 702.831 80.7819 702.714 79.1411C702.596 77.5002 702.508 75.625 702.303 73.6033C701.951 69.5305 701.453 64.8131 700.661 59.7148C700.221 57.1656 699.752 54.5579 699.283 51.8915C698.755 49.2251 698.403 46.5295 697.963 43.8045C697.553 41.1089 697.113 38.3839 696.585 35.7175C696.086 33.0512 695.5 30.4141 695.089 27.8943C694.18 22.8253 694.151 18.0786 694.503 14.0058C694.855 9.933 696.497 6.56343 698.198 4.19008C699.077 3.01805 699.899 2.08043 700.573 1.43582C701.277 0.791203 701.687 0.468896 701.687 0.468896C702.831 -0.117117 703.945 -0.205019 704.942 0.468896C704.942 0.468896 705.324 0.820503 706.057 1.43582C706.702 2.08043 707.552 2.98875 708.432 4.19008C710.133 6.56343 711.775 9.933 712.127 14.0058C712.479 18.0786 712.45 22.796 711.541 27.8943C711.13 30.4434 710.544 33.0512 710.045 35.7175C709.517 38.3839 709.048 41.0796 708.667 43.8045C708.227 46.5002 707.875 49.2251 707.347 51.8915C706.878 54.5579 706.409 57.1949 705.969 59.7148C705.177 64.7838 704.679 69.5305 704.327 73.6033C704.121 75.625 704.033 77.5002 703.916 79.1411C703.799 80.7819 703.711 82.2176 703.681 83.419C703.564 85.7923 703.564 87.1402 703.564 87.1402H703.212H703.066Z" fill="black"/>
<path d="M695.822 77.178C695.822 77.178 695.646 76.4162 695.06 75.1562C694.532 73.867 693.564 72.1383 692.127 70.2337C691.453 69.2668 690.603 68.2999 689.664 67.333C688.755 66.3368 687.641 65.4284 686.497 64.5494C685.236 63.7876 684.034 62.9086 682.626 62.3226L680.632 61.3556C679.928 61.0919 679.283 60.7989 678.609 60.5059C677.348 59.8906 675.881 59.6269 674.532 59.3339C673.184 59.0409 671.747 59.0995 670.515 58.9237C669.283 58.7772 668.081 58.7479 667.055 58.3963C666.058 58.0154 665.031 57.8103 664.151 57.4001C663.242 57.0485 662.539 56.228 661.805 55.5248C661.102 54.7923 660.486 53.7961 659.958 52.9171C659.43 51.9794 659.02 51.0711 658.697 50.3972C658.404 49.6354 658.228 49.2252 658.228 49.2252C657.817 48.1704 657.847 47.0862 658.462 45.9728C658.462 45.9728 658.697 45.6212 659.137 44.9473C659.577 44.3613 660.251 43.5702 661.102 42.8084C661.952 42.1051 663.037 41.314 664.239 40.8159C665.442 40.2592 666.82 40.1713 668.257 40.2885C669.694 40.4936 671.248 40.6694 672.773 41.3726C674.298 42.0465 675.911 42.7791 677.348 43.9804C678.755 45.211 680.192 46.4416 681.453 47.9067C682.714 49.3717 684.034 50.6609 685.148 52.1846C685.735 52.9171 686.321 53.6203 686.849 54.3528C687.347 55.1146 687.787 55.9057 688.257 56.6968C689.195 58.2205 689.84 59.832 690.544 61.3263C691.863 64.315 693.007 66.9814 693.799 69.3254C694.649 71.6402 695.177 73.6033 695.588 74.9511C695.94 76.299 696.174 77.0901 696.174 77.0901L695.822 77.178Z" fill="black"/>
<path d="M710.485 77.09C710.485 77.09 710.69 76.3282 711.071 74.951C711.482 73.6032 712.01 71.6694 712.86 69.3253C713.652 66.9813 714.796 64.3149 716.115 61.3263C716.819 59.8612 717.464 58.2204 718.403 56.6968C718.842 55.9349 719.282 55.1145 719.81 54.3527C720.338 53.6202 720.925 52.917 721.511 52.1845C722.625 50.6608 723.945 49.3716 725.206 47.9066C726.467 46.4415 727.904 45.2402 729.311 43.9803C730.748 42.779 732.361 42.0464 733.886 41.3725C735.411 40.6693 736.995 40.4935 738.402 40.2884C739.839 40.1419 741.217 40.2298 742.42 40.8158C743.622 41.2846 744.707 42.105 745.558 42.8083C746.408 43.5701 747.082 44.3319 747.522 44.9472C747.962 45.6211 748.197 45.9727 748.197 45.9727C748.783 47.1155 748.842 48.1996 748.431 49.2251C748.431 49.2251 748.285 49.6353 747.962 50.3971C747.669 51.1003 747.229 51.9794 746.701 52.917C746.173 53.796 745.557 54.8215 744.854 55.5247C744.121 56.228 743.387 57.0191 742.508 57.4C741.628 57.8102 740.602 58.0153 739.605 58.3962C738.608 58.7478 737.376 58.7771 736.144 58.9236C734.942 59.0994 733.476 59.0408 732.127 59.3338C730.778 59.6268 729.311 59.8905 728.051 60.5058C727.376 60.7695 726.731 61.0919 726.027 61.3556L724.033 62.3225C722.625 62.9378 721.452 63.7875 720.162 64.5493C719.018 65.4284 717.904 66.3367 716.995 67.3329C716.057 68.2998 715.206 69.2667 714.532 70.2336C713.095 72.1382 712.156 73.8669 711.599 75.1562C711.013 76.4161 710.837 77.1779 710.837 77.1779L710.485 77.09Z" fill="black"/>
<path d="M703.066 339.594C703.066 339.594 703.066 340.942 702.948 343.316C702.919 344.488 702.831 345.953 702.714 347.593C702.596 349.234 702.509 351.109 702.303 353.131C701.951 357.204 701.453 361.921 700.661 367.02C700.221 369.569 699.752 372.177 699.283 374.843C698.755 377.509 698.403 380.205 697.963 382.93C697.553 385.626 697.113 388.351 696.585 391.017C696.086 393.683 695.5 396.32 695.089 398.84C694.18 403.909 694.151 408.656 694.503 412.729C694.855 416.802 696.497 420.171 698.198 422.544C699.077 423.716 699.899 424.654 700.573 425.299C701.277 425.943 701.687 426.266 701.687 426.266C702.831 426.91 703.945 426.998 704.942 426.266C704.942 426.266 705.324 425.914 706.057 425.299C706.702 424.654 707.552 423.746 708.432 422.544C710.133 420.171 711.775 416.802 712.127 412.729C712.479 408.656 712.45 403.939 711.541 398.84C711.13 396.291 710.544 393.683 710.045 391.017C709.517 388.351 709.048 385.655 708.667 382.93C708.227 380.234 707.875 377.509 707.347 374.843C706.878 372.177 706.409 369.54 705.969 367.02C705.177 361.951 704.679 357.204 704.327 353.131C704.121 351.109 704.033 349.234 703.916 347.593C703.799 345.953 703.711 344.517 703.682 343.316C703.564 340.942 703.564 339.594 703.564 339.594H703.212H703.066Z" fill="black"/>
<path d="M695.822 349.557C695.822 349.557 695.646 350.318 695.06 351.578C694.532 352.838 693.564 354.596 692.127 356.501C691.453 357.468 690.603 358.435 689.664 359.402C688.755 360.398 687.641 361.306 686.497 362.185C685.236 362.947 684.034 363.826 682.626 364.412L680.632 365.379C679.928 365.643 679.283 365.936 678.609 366.229C677.348 366.844 675.881 367.108 674.533 367.401C673.184 367.694 671.747 367.635 670.515 367.811C669.283 367.957 668.081 367.987 667.055 368.338C666.058 368.719 665.031 368.924 664.151 369.334C663.242 369.715 662.539 370.506 661.805 371.21C661.102 371.942 660.486 372.938 659.958 373.817C659.43 374.755 659.02 375.663 658.697 376.337C658.404 377.099 658.228 377.509 658.228 377.509C658.14 378.769 658.228 379.853 658.462 380.762C658.462 380.762 658.697 381.113 659.137 381.787C659.577 382.373 660.251 383.164 661.102 383.926C661.952 384.629 663.037 385.42 664.239 385.919C665.442 386.475 666.82 386.563 668.257 386.446C669.694 386.241 671.248 386.065 672.773 385.362C674.298 384.688 675.911 383.955 677.348 382.754C678.755 381.524 680.192 380.293 681.453 378.828C682.714 377.363 684.034 376.044 685.148 374.55C685.735 373.817 686.321 373.114 686.849 372.382C687.347 371.62 687.787 370.829 688.257 370.038C689.195 368.514 689.84 366.902 690.544 365.408C691.864 362.419 693.007 359.753 693.799 357.409C694.649 355.094 695.177 353.131 695.588 351.783C695.94 350.436 696.174 349.644 696.174 349.644L695.822 349.557Z" fill="black"/>
<path d="M710.485 349.644C710.485 349.644 710.69 350.436 711.071 351.783C711.482 353.131 712.01 355.065 712.86 357.409C713.652 359.753 714.796 362.419 716.115 365.408C716.819 366.873 717.464 368.514 718.403 370.038C718.842 370.829 719.282 371.62 719.81 372.382C720.338 373.114 720.925 373.817 721.511 374.55C722.625 376.074 723.945 377.363 725.206 378.828C726.467 380.293 727.904 381.494 729.311 382.754C730.748 383.955 732.361 384.688 733.886 385.362C735.411 386.065 736.995 386.241 738.402 386.446C739.839 386.592 741.217 386.505 742.42 385.919C743.622 385.45 744.707 384.629 745.558 383.926C746.408 383.164 747.082 382.403 747.522 381.787C747.962 381.113 748.197 380.762 748.197 380.762C748.402 379.883 748.519 378.857 748.431 377.509C748.431 377.509 748.285 377.099 747.962 376.337C747.669 375.634 747.229 374.755 746.701 373.817C746.173 372.938 745.558 371.913 744.854 371.21C744.121 370.506 743.387 369.715 742.508 369.334C741.628 368.924 740.602 368.719 739.605 368.338C738.608 367.987 737.376 367.957 736.144 367.811C734.942 367.635 733.476 367.694 732.127 367.401C730.778 367.108 729.311 366.844 728.051 366.229C727.376 365.965 726.731 365.643 726.027 365.379L724.033 364.412C722.625 363.797 721.452 362.947 720.162 362.185C719.018 361.306 717.904 360.398 716.995 359.402C716.057 358.435 715.206 357.468 714.532 356.501C713.095 354.596 712.156 352.867 711.599 351.578C711.013 350.318 710.837 349.557 710.837 349.557L710.485 349.644Z" fill="black"/>
<path d="M545.972 187.495C552.45 187.495 557.702 182.247 557.702 175.775C557.702 169.302 552.45 164.054 545.972 164.054C539.494 164.054 534.242 169.302 534.242 175.775C534.242 182.247 539.494 187.495 545.972 187.495Z" fill="black"/>
<path d="M545.972 262.211C552.45 262.211 557.702 256.964 557.702 250.491C557.702 244.018 552.45 238.771 545.972 238.771C539.494 238.771 534.242 244.018 534.242 250.491C534.242 256.964 539.494 262.211 545.972 262.211Z" fill="black"/>
<path d="M489.412 213.892L503.927 228.395L518.442 213.892L503.927 199.389L489.412 213.892Z" fill="black"/>
<path d="M857.462 187.495C863.94 187.495 869.191 182.247 869.191 175.775C869.191 169.302 863.94 164.054 857.462 164.054C850.983 164.054 845.732 169.302 845.732 175.775C845.732 182.247 850.983 187.495 857.462 187.495Z" fill="black"/>
<path d="M857.462 262.211C863.94 262.211 869.191 256.964 869.191 250.491C869.191 244.018 863.94 238.771 857.462 238.771C850.983 238.771 845.732 244.018 845.732 250.491C845.732 256.964 850.983 262.211 857.462 262.211Z" fill="black"/>
<path d="M899.462 199.365L884.947 213.868L899.462 228.371L913.978 213.868L899.462 199.365Z" fill="black"/>
<path d="M703.066 575.376C703.066 575.376 703.066 574.029 702.948 571.655C702.919 570.483 702.831 569.018 702.714 567.377C702.596 565.736 702.508 563.861 702.303 561.839C701.951 557.767 701.453 553.049 700.661 547.951C700.221 545.402 699.752 542.794 699.283 540.128C698.755 537.461 698.403 534.766 697.963 532.041C697.553 529.345 697.113 526.62 696.585 523.954C696.086 521.287 695.5 518.65 695.089 516.13C694.18 511.061 694.151 506.315 694.503 502.242C694.855 498.169 696.497 494.8 698.198 492.426C699.077 491.254 699.899 490.317 700.573 489.672C701.277 489.027 701.687 488.705 701.687 488.705C702.831 488.119 703.945 488.031 704.942 488.705C704.942 488.705 705.324 489.057 706.057 489.672C706.702 490.317 707.552 491.225 708.432 492.426C710.133 494.8 711.775 498.169 712.127 502.242C712.479 506.315 712.45 511.032 711.541 516.13C711.13 518.68 710.544 521.287 710.045 523.954C709.517 526.62 709.048 529.316 708.667 532.041C708.227 534.736 707.875 537.461 707.347 540.128C706.878 542.794 706.409 545.431 705.969 547.951C705.177 553.02 704.679 557.767 704.327 561.839C704.121 563.861 704.033 565.736 703.916 567.377C703.799 569.018 703.711 570.454 703.681 571.655C703.564 574.029 703.564 575.376 703.564 575.376H703.212H703.066Z" fill="black"/>
<path d="M214.189 208.767C182.255 206.921 121.816 188.081 121.816 129.89C121.816 113.013 127.182 99.0362 137.329 89.4549C146.009 81.2801 157.475 77.178 169.674 77.8519C179.029 78.3793 187.621 82.54 193.838 89.5135C200.055 96.4871 203.193 105.482 202.665 114.829C201.814 129.626 189.087 140.936 174.278 140.116C169.176 139.823 164.63 137.654 161.229 134.343C169.41 134.109 175.979 127.429 175.979 119.224C175.979 111.02 169.205 104.076 160.818 104.076C152.431 104.076 145.657 110.844 145.657 119.224C145.657 120.074 145.745 120.924 145.892 121.744C146.859 136.424 158.677 148.466 173.75 149.345C193.691 150.488 210.758 135.252 211.902 115.357C212.577 103.549 208.618 92.1799 200.729 83.3604C192.87 74.5409 182.02 69.2961 170.202 68.6222C155.452 67.7725 141.493 72.7829 130.965 82.7158C119.089 93.9086 112.578 110.639 112.578 129.86C112.578 194.966 178.706 215.946 213.662 217.967C213.75 217.967 213.838 217.967 213.926 217.967C216.359 217.967 218.383 216.063 218.53 213.602C218.676 211.053 216.741 208.884 214.189 208.738V208.767Z" fill="black"/>
<path d="M213.75 208.767C245.684 206.921 306.123 188.081 306.123 129.89C306.123 113.013 300.757 99.0362 290.61 89.4549C281.93 81.2801 270.464 77.178 258.265 77.8519C248.91 78.3793 240.347 82.54 234.101 89.5135C227.884 96.4871 224.746 105.482 225.274 114.829C226.125 129.626 238.852 140.936 253.661 140.116C258.763 139.823 263.309 137.654 266.71 134.343C258.529 134.109 251.96 127.429 251.96 119.224C251.96 111.02 258.734 104.076 267.121 104.076C275.508 104.076 282.282 110.844 282.282 119.224C282.282 120.074 282.194 120.924 282.047 121.744C281.08 136.424 269.262 148.466 254.189 149.345C234.248 150.488 217.181 135.252 216.037 115.357C215.362 103.549 219.321 92.1799 227.21 83.3604C235.098 74.5409 245.919 69.2961 257.737 68.6222C272.487 67.7725 286.446 72.7829 296.974 82.7158C308.85 93.9086 315.361 110.639 315.361 129.86C315.361 194.966 249.233 215.946 214.277 217.967C214.189 217.967 214.101 217.967 214.013 217.967C211.58 217.967 209.556 216.063 209.409 213.602C209.263 211.053 211.198 208.884 213.75 208.738V208.767Z" fill="black"/>
<path d="M214.189 218.055C182.255 219.901 121.816 238.742 121.816 296.933C121.816 313.81 127.182 327.786 137.329 337.368C146.009 345.542 157.475 349.645 169.674 348.971C179.029 348.443 187.621 344.283 193.838 337.309C200.055 330.335 203.193 321.34 202.665 311.993C201.814 297.196 189.087 285.886 174.278 286.707C169.176 287 164.63 289.168 161.229 292.45C169.41 292.684 175.979 299.365 175.979 307.569C175.979 315.773 169.205 322.717 160.818 322.717C152.431 322.717 145.657 315.949 145.657 307.569C145.657 306.719 145.745 305.869 145.892 305.049C146.859 290.369 158.677 278.327 173.75 277.448C193.691 276.276 210.758 291.541 211.902 311.436C212.577 323.245 208.618 334.613 200.729 343.433C192.87 352.252 182.02 357.497 170.202 358.171C155.452 359.021 141.493 354.01 130.965 344.077C119.089 332.885 112.578 316.154 112.578 296.933C112.578 231.827 178.706 210.847 213.662 208.826C213.75 208.826 213.838 208.826 213.926 208.826C216.359 208.826 218.383 210.73 218.53 213.162C218.676 215.711 216.741 217.88 214.189 218.026V218.055Z" fill="black"/>
<path d="M213.75 218.055C245.684 219.901 306.123 238.742 306.123 296.933C306.123 313.81 300.757 327.786 290.61 337.368C281.93 345.542 270.464 349.645 258.265 348.971C248.91 348.443 240.347 344.283 234.101 337.309C227.884 330.335 224.746 321.34 225.274 311.993C226.125 297.196 238.852 285.886 253.661 286.707C258.763 287 263.309 289.168 266.71 292.45C258.529 292.684 251.96 299.365 251.96 307.569C251.96 315.773 258.734 322.717 267.121 322.717C275.508 322.717 282.282 315.949 282.282 307.569C282.282 306.719 282.194 305.869 282.047 305.049C281.08 290.369 269.262 278.327 254.189 277.448C234.248 276.276 217.181 291.541 216.037 311.436C215.362 323.245 219.321 334.613 227.21 343.433C235.098 352.252 245.919 357.497 257.737 358.171C272.487 359.021 286.446 354.01 296.974 344.077C308.85 332.885 315.361 316.154 315.361 296.933C315.361 231.827 249.233 210.847 214.277 208.826C214.189 208.826 214.101 208.826 214.013 208.826C211.58 208.826 209.556 210.73 209.409 213.162C209.263 215.711 211.198 217.88 213.75 218.026V218.055Z" fill="black"/>
<path d="M213.75 202.673C213.75 202.673 213.339 201.53 212.283 199.713C211.755 198.805 211.11 197.691 210.201 196.549C209.351 195.347 208.295 194.087 207.063 192.798C205.861 191.48 204.395 190.19 202.841 188.872C201.228 187.612 199.527 186.323 197.562 185.297C195.656 184.184 193.515 183.363 191.433 182.484C189.322 181.664 187.093 181.049 185.011 180.287C182.782 179.759 180.612 179.232 178.413 178.998C176.155 178.88 174.044 178.646 171.991 178.587C169.909 178.587 167.944 178.412 166.155 178.06C164.308 177.855 162.578 177.562 160.994 177.152C160.202 176.947 159.44 176.654 158.736 176.331C158.003 176.009 157.299 175.716 156.654 175.335C155.334 174.573 154.191 173.636 153.194 172.698C152.226 171.731 151.434 170.823 150.877 170.12C150.32 169.328 150.026 168.918 150.026 168.918V165.49C150.026 165.49 150.349 165.109 150.906 164.377C151.493 163.732 152.372 162.882 153.516 162.003C154.66 161.154 156.067 160.333 157.71 159.718C158.531 159.425 159.381 159.132 160.319 158.956C161.229 158.839 162.196 158.78 163.223 158.839C165.217 158.956 167.416 159.102 169.674 159.542C171.932 160.128 174.249 160.948 176.595 161.974C178.912 163.058 181.199 164.552 183.457 165.9C185.715 167.307 187.885 169.006 190.114 170.413C192.225 172.083 194.307 173.665 196.125 175.54C197.914 177.445 199.703 179.203 201.14 181.166C202.723 182.953 204.072 184.858 205.363 186.557C206.037 187.378 206.565 188.315 207.122 189.165C207.679 190.015 208.236 190.776 208.706 191.597C212.547 197.955 214.131 202.555 214.131 202.555L213.779 202.673H213.75Z" fill="black"/>
<path d="M213.838 202.555C213.838 202.555 215.421 197.955 219.263 191.597C219.703 190.777 220.26 189.985 220.846 189.165C221.403 188.345 221.931 187.407 222.606 186.557C223.925 184.858 225.245 182.953 226.828 181.166C228.295 179.203 230.054 177.445 231.843 175.54C233.661 173.665 235.773 172.083 237.855 170.413C240.083 169.035 242.224 167.307 244.511 165.9C246.799 164.552 249.057 163.058 251.373 161.974C253.69 160.978 256.036 160.128 258.294 159.542C260.552 159.073 262.722 158.927 264.746 158.839C265.743 158.81 266.71 158.839 267.649 158.956C268.558 159.132 269.438 159.396 270.259 159.718C271.901 160.333 273.309 161.154 274.452 162.003C275.596 162.882 276.476 163.732 277.062 164.377C277.649 165.109 277.942 165.49 277.942 165.49V168.918C277.942 168.918 277.649 169.328 277.091 170.12C276.534 170.823 275.742 171.731 274.775 172.698C273.807 173.636 272.634 174.573 271.314 175.335C270.669 175.716 269.965 176.009 269.232 176.331C268.499 176.683 267.766 176.947 266.974 177.152C265.391 177.562 263.631 177.855 261.813 178.06C260.024 178.412 258.06 178.587 255.977 178.587C253.895 178.646 251.813 178.88 249.555 178.998C247.356 179.232 245.186 179.73 242.957 180.287C240.875 181.049 238.646 181.664 236.535 182.484C234.453 183.334 232.312 184.184 230.406 185.297C228.441 186.323 226.74 187.612 225.128 188.872C223.573 190.161 222.107 191.48 220.905 192.798C219.673 194.087 218.618 195.377 217.767 196.549C216.858 197.721 216.242 198.805 215.685 199.713C214.629 201.53 214.219 202.673 214.219 202.673L213.867 202.555H213.838Z" fill="black"/>
<path d="M202.371 159.542C202.371 153.154 207.533 147.998 213.925 147.998C220.318 147.998 225.48 153.154 225.48 159.542C225.48 165.93 220.318 171.086 213.925 171.086C207.533 171.086 202.371 165.93 202.371 159.542Z" fill="black"/>
<path d="M213.75 224.15C213.75 224.15 213.339 225.293 212.283 227.109C211.755 228.018 211.11 229.131 210.201 230.274C209.351 231.475 208.295 232.735 207.063 234.024C205.861 235.343 204.395 236.661 202.841 237.951C201.228 239.21 199.527 240.5 197.562 241.525C195.656 242.639 193.515 243.459 191.433 244.338C189.322 245.158 187.093 245.774 185.011 246.536C182.782 247.063 180.612 247.59 178.413 247.825C176.155 247.942 174.044 248.176 171.991 248.235C169.909 248.235 167.944 248.411 166.155 248.762C164.308 248.968 162.578 249.261 160.994 249.671C160.202 249.876 159.44 250.169 158.736 250.491C158.003 250.813 157.299 251.106 156.654 251.487C155.334 252.249 154.191 253.187 153.194 254.095C152.226 255.062 151.434 255.97 150.877 256.674C150.32 257.465 150.026 257.875 150.026 257.875V261.303C150.026 261.303 150.349 261.684 150.906 262.417C151.493 263.09 152.372 263.911 153.516 264.79C154.66 265.64 156.067 266.46 157.71 267.075C158.531 267.368 159.381 267.661 160.319 267.837C161.229 267.954 162.196 268.013 163.223 267.954C165.217 267.837 167.416 267.691 169.674 267.251C171.932 266.665 174.249 265.845 176.595 264.819C178.912 263.735 181.199 262.241 183.457 260.893C185.715 259.486 187.885 257.787 190.114 256.381C192.225 254.71 194.307 253.128 196.125 251.253C197.914 249.348 199.703 247.59 201.14 245.627C202.723 243.84 204.072 241.935 205.363 240.236C206.037 239.416 206.565 238.478 207.122 237.658C207.679 236.808 208.236 236.046 208.706 235.226C212.547 228.867 214.131 224.267 214.131 224.267L213.779 224.121L213.75 224.15Z" fill="black"/>
<path d="M213.838 224.267C213.838 224.267 215.421 228.867 219.263 235.226C219.703 236.046 220.26 236.837 220.846 237.657C221.403 238.478 221.931 239.416 222.606 240.236C223.925 241.935 225.245 243.84 226.828 245.627C228.295 247.59 230.054 249.348 231.843 251.253C233.661 253.128 235.773 254.71 237.855 256.381C240.083 257.758 242.224 259.486 244.511 260.893C246.799 262.241 249.057 263.735 251.373 264.819C253.69 265.815 256.036 266.665 258.294 267.251C260.552 267.72 262.722 267.866 264.746 267.954C265.743 267.984 266.71 267.954 267.649 267.837C268.558 267.661 269.438 267.398 270.259 267.075C271.901 266.46 273.309 265.64 274.452 264.79C275.596 263.911 276.476 263.09 277.062 262.417C277.649 261.684 277.942 261.303 277.942 261.303V257.875C277.942 257.875 277.649 257.465 277.091 256.674C276.534 255.97 275.742 255.062 274.775 254.095C273.807 253.158 272.634 252.22 271.314 251.487C270.669 251.106 269.965 250.813 269.232 250.491C268.499 250.14 267.766 249.876 266.974 249.671C265.391 249.261 263.631 248.968 261.813 248.762C260.024 248.411 258.06 248.235 255.977 248.235C253.895 248.176 251.813 247.942 249.555 247.825C247.356 247.59 245.186 247.092 242.957 246.536C240.875 245.774 238.646 245.158 236.535 244.338C234.453 243.488 232.312 242.639 230.406 241.525C228.441 240.5 226.74 239.21 225.128 237.95C223.573 236.661 222.107 235.343 220.905 234.024C219.673 232.735 218.618 231.446 217.767 230.274C216.858 229.102 216.242 228.018 215.685 227.109C214.629 225.293 214.219 224.15 214.219 224.15L213.867 224.296L213.838 224.267Z" fill="black"/>
<path d="M202.371 267.31C202.371 273.697 207.533 278.854 213.925 278.854C220.318 278.854 225.48 273.697 225.48 267.31C225.48 260.922 220.318 255.765 213.925 255.765C207.533 255.765 202.371 260.922 202.371 267.31Z" fill="black"/>
<path d="M160.906 213.66C160.906 213.66 153.106 213.69 141.376 214.774C135.511 215.301 128.678 216.004 121.376 217.147C114.045 218.378 106.244 219.989 98.4438 221.044C94.5436 221.542 90.6434 222.304 86.8018 223.066C82.9603 223.857 79.1774 224.648 75.5117 225.263C68.1805 226.553 61.3478 226.611 55.5121 226.113C49.6471 225.615 44.7792 223.242 41.3482 220.78C39.6473 219.579 38.2984 218.26 37.3893 217.381C36.4802 216.415 35.9817 215.799 35.9817 215.799C35.102 214.334 35.0726 212.752 35.9817 211.111C35.9817 211.111 36.4802 210.496 37.3893 209.529C38.2984 208.621 39.6473 207.302 41.3482 206.13C44.7499 203.669 49.6471 201.295 55.5121 200.797C61.3771 200.299 68.2098 200.328 75.5117 201.618C79.1774 202.233 82.9603 203.024 86.8018 203.815C90.6434 204.548 94.5436 205.31 98.4438 205.837C106.244 206.892 114.045 208.503 121.376 209.734C128.707 210.877 135.54 211.58 141.376 212.107C153.076 213.191 160.906 213.221 160.906 213.221V213.748V213.66Z" fill="black"/>
<path d="M134.367 200.621C134.367 200.621 134.044 200.563 133.458 200.416C132.871 200.27 131.992 200.094 130.907 199.801C129.822 199.537 128.502 199.127 126.948 198.717C125.452 198.219 123.693 197.779 121.845 197.105C119.968 196.519 117.974 195.758 115.834 194.908C113.693 194.087 111.493 193.062 109.118 192.095C106.831 190.982 104.28 190.015 101.934 188.579C100.731 187.905 99.4995 187.231 98.2972 186.499C97.1242 185.737 96.0392 184.828 94.8955 183.979C92.5789 182.309 90.4381 180.404 88.2094 178.529L86.5379 177.122L85.013 175.599C84.016 174.573 83.0189 173.548 82.0805 172.493C81.0835 171.467 80.321 170.354 79.6172 169.211C78.9134 168.069 78.239 166.926 77.6525 165.812C76.3622 163.586 75.805 161.241 75.2185 159.103C74.7493 156.934 74.456 154.883 74.9252 152.979C75.2771 151.074 75.9223 149.375 76.6261 147.998C77.3885 146.591 78.1217 145.507 78.7668 144.745C79.4413 143.983 79.8225 143.573 79.8225 143.573C81.0248 142.929 82.2858 142.694 83.6054 142.929C83.6054 142.929 84.1333 143.163 85.0717 143.573C85.9514 143.983 87.1244 144.628 88.3561 145.419C89.5584 146.21 90.8194 147.177 91.8751 148.349C92.8721 149.521 94.1038 150.723 94.8076 152.217C95.5407 153.711 96.1272 155.381 96.9483 157.051C97.3002 157.901 97.6521 158.809 97.9453 159.776C98.2093 160.743 98.4732 161.74 98.8544 162.736C99.2063 163.732 99.4702 164.787 99.7928 165.871L100.262 167.512L100.907 169.094C101.816 171.204 102.667 173.489 104.045 175.394L105.951 178.441C106.655 179.408 107.359 180.404 108.062 181.4C109.382 183.481 111.083 185.151 112.608 187.026C114.279 188.638 115.951 190.278 117.71 191.538C118.59 192.183 119.441 192.828 120.262 193.443C121.112 194.029 121.962 194.527 122.784 195.025C124.396 196.08 125.98 196.812 127.358 197.545C128.766 198.19 130.027 198.746 131.083 199.098C133.165 199.918 134.426 200.153 134.426 200.153L134.338 200.563L134.367 200.621Z" fill="black"/>
<path d="M134.455 226.64C134.455 226.64 133.194 226.904 131.112 227.695C130.056 228.047 128.795 228.633 127.388 229.248C126.009 229.981 124.396 230.713 122.813 231.768C121.992 232.295 121.141 232.794 120.291 233.35C119.47 233.966 118.619 234.581 117.74 235.255C115.98 236.515 114.338 238.156 112.637 239.767C111.112 241.613 109.411 243.313 108.092 245.393C107.388 246.389 106.684 247.385 105.98 248.352L104.074 251.399C102.696 253.304 101.816 255.589 100.936 257.699L100.291 259.281L99.8221 260.922C99.4995 262.006 99.2063 263.061 98.8837 264.057C98.5025 265.024 98.2386 266.02 97.9746 267.017C97.6814 267.984 97.3588 268.892 96.9776 269.742C96.1565 271.412 95.57 273.111 94.8369 274.576C94.1331 276.071 92.9014 277.272 91.9044 278.444C90.8487 279.587 89.5877 280.554 88.3854 281.374C87.1244 282.165 85.9807 282.78 85.101 283.22C84.1333 283.63 83.6347 283.865 83.6347 283.865C82.3738 284.07 81.1128 283.865 79.8518 283.22C79.8518 283.22 79.4413 282.81 78.7961 282.077C78.1803 281.315 77.4178 280.231 76.6554 278.825C75.9516 277.418 75.3065 275.748 74.9546 273.844C74.5147 271.939 74.7786 269.888 75.2478 267.72C75.805 265.581 76.3915 263.237 77.6818 261.01C78.2683 259.867 78.9427 258.725 79.6465 257.611C80.3503 256.468 81.1421 255.355 82.1098 254.33C83.0482 253.275 84.0453 252.249 85.0423 251.224L86.5672 249.7L88.2388 248.294C90.4675 246.418 92.6082 244.514 94.9248 242.844C96.0685 241.994 97.1535 241.115 98.3265 240.324C99.5289 239.591 100.761 238.888 101.963 238.243C104.309 236.837 106.86 235.841 109.147 234.727C111.523 233.761 113.722 232.735 115.863 231.915C118.004 231.094 119.998 230.332 121.874 229.717C123.722 229.043 125.481 228.604 126.977 228.105C128.502 227.695 129.822 227.285 130.936 227.021C132.021 226.728 132.901 226.553 133.487 226.406C134.074 226.26 134.396 226.201 134.396 226.201L134.484 226.611L134.455 226.64Z" fill="black"/>
<path d="M266.974 213.66C266.974 213.66 274.775 213.69 286.505 214.774C292.37 215.301 299.202 216.004 306.504 217.147C313.836 218.378 321.636 219.989 329.436 221.044C333.337 221.542 337.237 222.304 341.078 223.066C344.92 223.857 348.703 224.648 352.369 225.263C359.7 226.553 366.533 226.611 372.368 226.113C378.233 225.615 383.101 223.242 386.532 220.78C388.233 219.579 389.582 218.26 390.491 217.381C391.4 216.415 391.899 215.799 391.899 215.799C392.954 214.217 392.984 212.635 391.899 211.111C391.899 211.111 391.4 210.496 390.491 209.529C389.582 208.621 388.233 207.302 386.532 206.13C383.13 203.669 378.233 201.295 372.368 200.797C366.503 200.299 359.67 200.328 352.369 201.618C348.703 202.233 344.92 203.024 341.078 203.815C337.237 204.548 333.337 205.31 329.436 205.837C321.636 206.892 313.836 208.503 306.504 209.734C299.173 210.877 292.34 211.58 286.505 212.107C274.804 213.191 266.974 213.221 266.974 213.221V213.748V213.66Z" fill="black"/>
<path d="M293.484 200.621C293.484 200.621 293.807 200.563 294.393 200.416C294.98 200.27 295.859 200.094 296.944 199.801C298.059 199.537 299.349 199.127 300.903 198.717C302.399 198.219 304.158 197.779 306.006 197.105C307.883 196.519 309.877 195.758 312.017 194.908C314.158 194.087 316.358 193.062 318.733 192.095C321.02 190.982 323.572 190.015 325.918 188.579C327.12 187.905 328.351 187.231 329.554 186.499C330.727 185.737 331.812 184.828 332.955 183.979C335.272 182.309 337.413 180.404 339.642 178.529L341.313 177.122L342.838 175.599C343.835 174.573 344.832 173.548 345.771 172.493C346.768 171.467 347.53 170.354 348.234 169.211C348.938 168.069 349.612 166.926 350.199 165.812C351.489 163.586 352.046 161.241 352.633 159.103C353.102 156.934 353.395 154.883 352.926 152.979C352.574 151.074 351.929 149.375 351.225 147.998C350.462 146.591 349.729 145.507 349.084 144.745C348.41 143.983 347.999 143.573 347.999 143.573C347.061 142.929 345.8 142.694 344.216 142.929C344.216 142.929 343.688 143.163 342.721 143.573C341.841 143.983 340.668 144.628 339.436 145.419C338.234 146.21 336.973 147.177 335.917 148.349C334.92 149.521 333.689 150.723 332.985 152.217C332.252 153.711 331.665 155.381 330.844 157.051C330.492 157.901 330.14 158.809 329.847 159.776C329.583 160.743 329.319 161.74 328.938 162.736C328.586 163.732 328.322 164.787 328 165.871L327.53 167.512L326.885 169.094C325.976 171.204 325.126 173.489 323.747 175.394L321.841 178.441C321.138 179.408 320.434 180.404 319.73 181.4C318.41 183.481 316.709 185.151 315.185 187.026C313.513 188.638 311.842 190.278 310.082 191.538C309.202 192.183 308.352 192.828 307.531 193.443C306.68 194.029 305.83 194.527 305.009 195.025C303.396 196.08 301.812 196.812 300.434 197.545C299.027 198.19 297.766 198.746 296.71 199.098C294.628 199.918 293.367 200.153 293.367 200.153L293.455 200.563L293.484 200.621Z" fill="black"/>
<path d="M293.396 226.64C293.396 226.64 294.657 226.904 296.739 227.695C297.795 228.047 299.056 228.633 300.463 229.248C301.842 229.981 303.425 230.713 305.038 231.768C305.859 232.295 306.71 232.794 307.56 233.35C308.381 233.966 309.232 234.581 310.111 235.255C311.871 236.515 313.513 238.156 315.214 239.767C316.739 241.613 318.44 243.313 319.759 245.393C320.463 246.389 321.167 247.385 321.871 248.352L323.777 251.399C325.155 253.304 326.035 255.589 326.915 257.699L327.56 259.281L328.029 260.922C328.351 262.006 328.645 263.061 328.967 264.057C329.348 265.024 329.612 266.02 329.876 267.017C330.17 267.984 330.492 268.892 330.873 269.742C331.694 271.412 332.281 273.111 333.014 274.576C333.718 276.071 334.95 277.272 335.947 278.444C337.002 279.587 338.234 280.554 339.466 281.374C340.727 282.165 341.87 282.78 342.75 283.22C343.718 283.63 344.246 283.865 344.246 283.865C345.682 284.07 346.943 283.865 348.028 283.22C348.028 283.22 348.439 282.81 349.114 282.077C349.729 281.315 350.492 280.231 351.254 278.825C351.958 277.418 352.603 275.748 352.955 273.844C353.424 271.939 353.131 269.888 352.662 267.72C352.105 265.581 351.518 263.237 350.228 261.01C349.641 259.867 348.967 258.725 348.263 257.611C347.559 256.468 346.768 255.355 345.8 254.33C344.861 253.275 343.864 252.249 342.867 251.224L341.342 249.7L339.671 248.294C337.442 246.418 335.301 244.514 332.985 242.844C331.841 241.994 330.756 241.115 329.583 240.324C328.381 239.591 327.149 238.888 325.947 238.243C323.601 236.837 321.05 235.841 318.762 234.727C316.387 233.761 314.188 232.735 312.047 231.915C309.906 231.094 307.912 230.332 306.035 229.717C304.188 229.043 302.428 228.604 300.933 228.105C299.408 227.695 298.088 227.285 296.974 227.021C295.889 226.728 295.009 226.553 294.422 226.406C293.836 226.26 293.513 226.201 293.513 226.201L293.425 226.611L293.396 226.64Z" fill="black"/>
<path d="M213.662 87.1402C213.662 87.1402 213.662 85.7923 213.544 83.419C213.515 82.2469 213.427 80.7819 213.31 79.1411C213.192 77.5002 213.104 75.625 212.899 73.6033C212.518 69.5305 212.049 64.8131 211.257 59.7148C210.817 57.1656 210.348 54.5579 209.879 51.8915C209.351 49.2251 208.999 46.5295 208.559 43.8045C208.148 41.1089 207.709 38.3839 207.181 35.7175C206.682 33.0512 206.096 30.4141 205.685 27.8943C204.776 22.8253 204.747 18.0786 205.099 14.0058C205.451 9.933 207.093 6.56343 208.794 4.19008C209.673 3.01805 210.494 2.08043 211.169 1.43582C211.902 0.791203 212.283 0.468896 212.283 0.468896C213.427 -0.117117 214.541 -0.205019 215.538 0.468896C215.538 0.468896 215.92 0.820503 216.653 1.43582C217.298 2.08043 218.148 2.98875 219.028 4.19008C220.729 6.56343 222.371 9.933 222.723 14.0058C223.075 18.0786 223.045 22.796 222.136 27.8943C221.726 30.4434 221.139 33.0512 220.641 35.7175C220.113 38.3839 219.644 41.0796 219.263 43.8045C218.823 46.5002 218.471 49.2251 217.943 51.8915C217.474 54.5579 217.005 57.1949 216.565 59.7148C215.773 64.7838 215.274 69.5305 214.922 73.6033C214.717 75.625 214.629 77.5002 214.512 79.1411C214.395 80.7819 214.307 82.2176 214.277 83.419C214.16 85.7923 214.16 87.1402 214.16 87.1402H213.808H213.662Z" fill="black"/>
<path d="M206.418 77.178C206.418 77.178 206.242 76.4162 205.656 75.1562C205.128 73.867 204.16 72.1383 202.723 70.2337C202.049 69.2668 201.198 68.2999 200.26 67.333C199.351 66.3368 198.237 65.4284 197.093 64.5494C195.803 63.7876 194.63 62.9086 193.222 62.3226L191.228 61.3556C190.524 61.0919 189.879 60.7989 189.205 60.5059C187.944 59.8906 186.477 59.6269 185.128 59.3339C183.779 59.0409 182.342 59.0995 181.111 58.9237C179.879 58.7772 178.677 58.7479 177.65 58.3963C176.653 58.0154 175.627 57.8103 174.747 57.4001C173.838 57.0485 173.134 56.228 172.401 55.5248C171.698 54.7923 171.082 53.7961 170.554 52.9171C170.026 51.9794 169.615 51.0711 169.293 50.3972C169 49.6354 168.824 49.2252 168.824 49.2252C168.413 48.1704 168.442 47.0862 169.058 45.9728C169.058 45.9728 169.293 45.6212 169.733 44.9473C170.173 44.3613 170.847 43.5702 171.698 42.8084C172.548 42.1051 173.633 41.314 174.835 40.8159C176.038 40.2592 177.416 40.1713 178.853 40.2885C180.26 40.4936 181.844 40.6694 183.369 41.3726C184.894 42.0465 186.507 42.7791 187.944 43.9804C189.351 45.211 190.788 46.4416 192.049 47.9067C193.31 49.3717 194.63 50.6609 195.744 52.1846C196.33 52.9171 196.917 53.6203 197.445 54.3528C197.943 55.1146 198.383 55.9057 198.852 56.6968C199.791 58.2205 200.436 59.832 201.14 61.3263C202.459 64.315 203.603 66.9814 204.395 69.3254C205.245 71.6402 205.773 73.6033 206.184 74.9511C206.536 76.299 206.77 77.0901 206.77 77.0901L206.418 77.178Z" fill="black"/>
<path d="M221.081 77.09C221.081 77.09 221.286 76.3282 221.667 74.951C222.078 73.6032 222.606 71.6694 223.456 69.3253C224.248 66.9813 225.392 64.3149 226.711 61.3263C227.415 59.8612 228.06 58.2204 228.998 56.6968C229.438 55.9349 229.908 55.1145 230.406 54.3527C230.934 53.6202 231.52 52.917 232.107 52.1845C233.221 50.6608 234.57 49.3716 235.802 47.9066C237.063 46.4415 238.5 45.2402 239.907 43.9803C241.344 42.779 242.957 42.0464 244.482 41.3725C246.007 40.6693 247.591 40.4935 248.998 40.2884C250.435 40.1419 251.813 40.2298 253.016 40.8158C254.218 41.2846 255.303 42.105 256.153 42.8083C257.004 43.5701 257.678 44.3319 258.118 44.9472C258.558 45.6211 258.793 45.9727 258.793 45.9727C259.379 47.1155 259.438 48.1996 259.027 49.2251C259.027 49.2251 258.881 49.6353 258.558 50.3971C258.265 51.1003 257.825 51.9794 257.297 52.917C256.769 53.796 256.153 54.8215 255.45 55.5247C254.716 56.228 253.983 57.0191 253.104 57.4C252.224 57.8102 251.197 58.0153 250.2 58.3962C249.203 58.7478 247.972 58.7771 246.74 58.9236C245.538 59.0994 244.072 59.0408 242.723 59.3338C241.374 59.6268 239.907 59.8905 238.646 60.5058C237.972 60.7695 237.327 61.0919 236.623 61.3556L234.629 62.3225C233.221 62.9378 232.048 63.7875 230.758 64.5493C229.614 65.4284 228.5 66.3367 227.591 67.3329C226.652 68.2998 225.802 69.2667 225.128 70.2336C223.691 72.1382 222.723 73.8669 222.195 75.1562C221.609 76.4161 221.433 77.1779 221.433 77.1779L221.081 77.09Z" fill="black"/>
<path d="M213.662 339.594C213.662 339.594 213.662 340.942 213.544 343.316C213.515 344.488 213.427 345.953 213.31 347.593C213.192 349.234 213.104 351.109 212.899 353.131C212.518 357.204 212.049 361.921 211.257 367.02C210.817 369.569 210.348 372.177 209.879 374.843C209.351 377.509 208.999 380.205 208.559 382.93C208.148 385.626 207.709 388.351 207.181 391.017C206.682 393.683 206.096 396.32 205.685 398.84C204.776 403.909 204.747 408.656 205.099 412.729C205.451 416.802 207.093 420.171 208.794 422.544C209.673 423.716 210.494 424.654 211.169 425.299C211.902 425.943 212.283 426.266 212.283 426.266C213.427 426.91 214.541 426.998 215.538 426.266C215.538 426.266 215.92 425.914 216.653 425.299C217.298 424.654 218.148 423.746 219.028 422.544C220.729 420.171 222.371 416.802 222.723 412.729C223.075 408.656 223.046 403.939 222.136 398.84C221.726 396.291 221.139 393.683 220.641 391.017C220.113 388.351 219.644 385.655 219.263 382.93C218.823 380.234 218.471 377.509 217.943 374.843C217.474 372.177 217.005 369.54 216.565 367.02C215.773 361.951 215.274 357.204 214.923 353.131C214.717 351.109 214.629 349.234 214.512 347.593C214.395 345.953 214.307 344.517 214.277 343.316C214.16 340.942 214.16 339.594 214.16 339.594H213.808H213.662Z" fill="black"/>
<path d="M206.418 349.557C206.418 349.557 206.242 350.318 205.656 351.578C205.128 352.838 204.16 354.596 202.723 356.501C202.049 357.468 201.198 358.435 200.26 359.402C199.351 360.398 198.237 361.306 197.093 362.185C195.803 362.947 194.63 363.826 193.222 364.412L191.228 365.379C190.524 365.643 189.879 365.936 189.205 366.229C187.944 366.844 186.477 367.108 185.128 367.401C183.779 367.694 182.342 367.635 181.111 367.811C179.879 367.957 178.677 367.987 177.651 368.338C176.653 368.719 175.627 368.924 174.747 369.335C173.838 369.715 173.134 370.507 172.401 371.21C171.698 371.942 171.082 372.939 170.554 373.818C170.026 374.755 169.615 375.663 169.293 376.337C169 377.099 168.824 377.509 168.824 377.509C168.736 378.769 168.824 379.853 169.058 380.762C169.058 380.762 169.293 381.113 169.733 381.787C170.173 382.373 170.847 383.164 171.698 383.926C172.548 384.629 173.633 385.421 174.835 385.919C176.038 386.475 177.416 386.563 178.853 386.446C180.26 386.241 181.844 386.065 183.369 385.362C184.894 384.688 186.507 383.956 187.944 382.754C189.351 381.524 190.788 380.293 192.049 378.828C193.31 377.363 194.63 376.044 195.744 374.55C196.33 373.818 196.917 373.114 197.445 372.382C197.943 371.62 198.383 370.829 198.852 370.038C199.791 368.514 200.436 366.903 201.14 365.408C202.459 362.42 203.603 359.753 204.395 357.409C205.245 355.094 205.773 353.131 206.184 351.783C206.536 350.436 206.77 349.645 206.77 349.645L206.418 349.557Z" fill="black"/>
<path d="M221.081 349.645C221.081 349.645 221.286 350.436 221.667 351.783C222.078 353.131 222.606 355.065 223.456 357.409C224.248 359.753 225.392 362.42 226.711 365.408C227.415 366.873 228.06 368.514 228.998 370.038C229.438 370.829 229.908 371.62 230.406 372.382C230.934 373.114 231.52 373.818 232.107 374.55C233.221 376.074 234.57 377.363 235.802 378.828C237.063 380.293 238.5 381.494 239.907 382.754C241.344 383.956 242.957 384.688 244.482 385.362C246.007 386.065 247.591 386.241 248.998 386.446C250.435 386.593 251.813 386.505 253.016 385.919C254.218 385.45 255.303 384.629 256.153 383.926C257.004 383.164 257.678 382.403 258.118 381.787C258.558 381.113 258.793 380.762 258.793 380.762C258.998 379.883 259.086 378.857 259.027 377.509C259.027 377.509 258.881 377.099 258.558 376.337C258.265 375.634 257.825 374.755 257.297 373.818C256.769 372.939 256.153 371.913 255.45 371.21C254.716 370.507 253.983 369.715 253.104 369.335C252.224 368.924 251.197 368.719 250.2 368.338C249.203 367.987 247.972 367.957 246.74 367.811C245.538 367.635 244.072 367.694 242.723 367.401C241.374 367.108 239.907 366.844 238.646 366.229C237.972 365.965 237.327 365.643 236.623 365.379L234.629 364.412C233.221 363.797 232.048 362.947 230.758 362.185C229.614 361.306 228.5 360.398 227.591 359.402C226.652 358.435 225.802 357.468 225.128 356.501C223.691 354.596 222.723 352.868 222.195 351.578C221.609 350.318 221.433 349.557 221.433 349.557L221.081 349.645Z" fill="black"/>
<path d="M56.5385 187.495C63.0167 187.495 68.2684 182.247 68.2684 175.775C68.2684 169.302 63.0167 164.054 56.5385 164.054C50.0602 164.054 44.8085 169.302 44.8085 175.775C44.8085 182.247 50.0602 187.495 56.5385 187.495Z" fill="black"/>
<path d="M56.5385 262.211C63.0167 262.211 68.2684 256.964 68.2684 250.491C68.2684 244.018 63.0167 238.771 56.5385 238.771C50.0602 238.771 44.8085 244.018 44.8085 250.491C44.8085 256.964 50.0602 262.211 56.5385 262.211Z" fill="black"/>
<path d="M-0.0240828 213.889L14.491 228.392L29.0061 213.889L14.491 199.386L-0.0240828 213.889Z" fill="black"/>
<path d="M368.028 187.495C374.506 187.495 379.758 182.247 379.758 175.775C379.758 169.302 374.506 164.054 368.028 164.054C361.55 164.054 356.298 169.302 356.298 175.775C356.298 182.247 361.55 187.495 368.028 187.495Z" fill="black"/>
<path d="M368.028 262.211C374.506 262.211 379.758 256.964 379.758 250.491C379.758 244.018 374.506 238.771 368.028 238.771C361.55 238.771 356.298 244.018 356.298 250.491C356.298 256.964 361.55 262.211 368.028 262.211Z" fill="black"/>
<path d="M410.061 199.362L395.546 213.865L410.061 228.368L424.576 213.865L410.061 199.362Z" fill="black"/>
<path d="M213.662 575.376C213.662 575.376 213.662 574.029 213.544 571.655C213.515 570.483 213.427 569.018 213.31 567.377C213.192 565.736 213.104 563.861 212.899 561.839C212.518 557.767 212.049 553.049 211.257 547.951C210.817 545.402 210.348 542.794 209.879 540.128C209.351 537.461 208.999 534.766 208.559 532.041C208.148 529.345 207.709 526.62 207.181 523.954C206.682 521.287 206.096 518.65 205.685 516.13C204.776 511.061 204.747 506.315 205.099 502.242C205.451 498.169 207.093 494.8 208.794 492.426C209.673 491.254 210.494 490.317 211.169 489.672C211.902 489.027 212.283 488.705 212.283 488.705C213.427 488.119 214.541 488.031 215.538 488.705C215.538 488.705 215.92 489.057 216.653 489.672C217.298 490.317 218.148 491.225 219.028 492.426C220.729 494.8 222.371 498.169 222.723 502.242C223.075 506.315 223.046 511.032 222.136 516.13C221.726 518.68 221.139 521.287 220.641 523.954C220.113 526.62 219.644 529.316 219.263 532.041C218.823 534.736 218.471 537.461 217.943 540.128C217.474 542.794 217.005 545.431 216.565 547.951C215.773 553.02 215.274 557.767 214.923 561.839C214.717 563.861 214.629 565.736 214.512 567.377C214.395 569.018 214.307 570.454 214.277 571.655C214.16 574.029 214.16 575.376 214.16 575.376H213.808H213.662Z" fill="black"/>
</g>
<defs>
<clipPath id="clip0_41_630">
<rect width="914" height="523" fill="white"/>
</clipPath>
</defs>
</svg>
